<?xml version="1.0" encoding="utf-8"?>
<!-- Generator: Adobe Illustrator 18.0.0, SVG Export Plug-In . SVG Version: 6.00 Build 0)  -->
<!DOCTYPE svg PUBLIC "-//W3C//DTD SVG 1.1//EN" "http://www.w3.org/Graphics/SVG/1.1/DTD/svg11.dtd">
<svg version="1.1" id="Layer_1" xmlns="http://www.w3.org/2000/svg" xmlns:xlink="http://www.w3.org/1999/xlink" x="0px" y="0px"
	 viewBox="0 0 190 90" enable-background="new 0 0 190 90" xml:space="preserve">
<g>
	<g>
		<path fill="#333333" d="M43.1,67.5c0-1.1,0.1-2.1,0.4-3c0.3-1,0.7-1.8,1.2-2.5c0.5-0.7,1.1-1.3,1.8-1.8c0.7-0.4,1.5-0.7,2.3-0.7
			c0.3,0,0.6,0,0.8,0.1c0.2,0,0.4,0.1,0.5,0.3c0.1,0.1,0.2,0.4,0.3,0.6c0.1,0.3,0.1,0.6,0.1,1.1c-0.5-0.6-0.9-1-1.5-1.1
			c-0.5-0.1-1-0.1-1.5,0c-0.5,0.2-0.9,0.5-1.4,1c-0.4,0.5-0.8,1-1.1,1.6c-0.3,0.6-0.5,1.3-0.7,2c-0.2,0.7-0.2,1.4-0.1,2.1
			c0,0.6,0.1,1.2,0.3,1.7c0.2,0.5,0.4,0.9,0.7,1.2c0.3,0.3,0.7,0.6,1.1,0.7c0.4,0.2,0.9,0.2,1.3,0.2c0.6-0.1,1.1-0.2,1.6-0.4
			c0.4-0.2,0.9-0.4,1.2-0.7c0.4-0.3,0.7-0.6,1.1-0.9c0.3-0.3,0.7-0.6,1.1-0.9c0.1,0,0.1,0,0.2,0c0.1,0,0.1,0,0.2,0.1
			c0.1,0,0.1,0.1,0.2,0.1c0,0.1,0.1,0.2,0.1,0.3c-0.4,0.5-0.8,0.9-1.3,1.4c-0.5,0.5-1,0.9-1.5,1.2c-0.5,0.4-1.1,0.6-1.6,0.8
			c-0.6,0.2-1.1,0.3-1.7,0.3c-0.5,0-1-0.1-1.5-0.3c-0.5-0.2-0.9-0.6-1.3-1c-0.4-0.4-0.7-0.9-0.9-1.5C43.2,68.9,43.1,68.2,43.1,67.5z
			"/>
		<path fill="#333333" d="M55.2,66.6c0-0.9,0.1-1.7,0.4-2.4c0.2-0.7,0.6-1.4,1-1.9c0.4-0.5,0.9-0.9,1.5-1.2c0.6-0.3,1.2-0.4,1.8-0.4
			c0.6,0,1.2,0.1,1.8,0.3c0.6,0.2,1.1,0.5,1.6,0.9c0.5,0.4,0.8,1,1.1,1.6c0.3,0.7,0.4,1.4,0.4,2.3c0,2.1-0.4,3.7-1.2,4.7
			c-0.8,1-2,1.5-3.6,1.5c-0.7,0-1.3-0.1-1.9-0.3c-0.6-0.2-1.1-0.5-1.5-1c-0.4-0.4-0.8-1-1-1.7C55.3,68.4,55.2,67.6,55.2,66.6z
			 M56.4,66.3c0,1.5,0.3,2.7,0.9,3.4c0.6,0.7,1.5,1.1,2.7,1.1c0.6,0,1.1-0.1,1.6-0.4c0.5-0.2,0.9-0.6,1.2-1c0.3-0.4,0.6-0.9,0.8-1.5
			c0.2-0.6,0.3-1.2,0.3-2c0-0.7-0.1-1.3-0.4-1.8c-0.2-0.5-0.6-0.9-0.9-1.2c-0.4-0.3-0.8-0.6-1.3-0.7c-0.5-0.1-1-0.2-1.5-0.2
			c-0.4,0-0.9,0.1-1.3,0.3c-0.4,0.2-0.8,0.5-1.1,0.9c-0.3,0.4-0.6,0.8-0.8,1.4C56.5,65.1,56.4,65.7,56.4,66.3z"/>
		<path fill="#333333" d="M67.2,71.9c0.1-0.4,0.2-1,0.2-1.7c0-0.7,0.1-1.5,0.1-2.3c0-0.8,0-1.7,0-2.6c0-0.9,0-1.7,0-2.5
			c0-0.8,0-1.5,0-2.1c0-0.6,0-1.1,0-1.4l1.2,0l-0.1,11.3l7.9,0.3c0.2,0.1,0.2,0.2,0.2,0.3c0,0.2-0.1,0.3-0.2,0.5
			c-0.1,0.2-0.3,0.3-0.5,0.4c-0.2,0.1-0.5,0.1-0.7,0.1L67.2,71.9z"/>
		<path fill="#333333" d="M79.1,71.9c0.1-0.4,0.2-1,0.2-1.7c0-0.7,0.1-1.5,0.1-2.3c0-0.8,0-1.7,0-2.6c0-0.9,0-1.7,0-2.5
			c0-0.8,0-1.5,0-2.1c0-0.6,0-1.1,0-1.4l1.2,0l-0.1,11.3l7.9,0.3c0.2,0.1,0.2,0.2,0.2,0.3c0,0.2-0.1,0.3-0.2,0.5
			c-0.1,0.2-0.3,0.3-0.5,0.4c-0.2,0.1-0.5,0.1-0.7,0.1L79.1,71.9z"/>
		<path fill="#333333" d="M90.6,60.1c0.2,0.1,0.5,0.1,0.9,0.1c0.4,0,0.8,0,1.2,0c0.4,0,0.9,0,1.4,0c0.5,0,0.9,0,1.4,0
			c0.4,0,0.8,0,1.2,0.1c0.4,0,0.6,0.1,0.8,0.2v1c-0.3,0.1-0.6,0.1-1.1,0.1c-0.5,0-1,0-1.5,0c-0.5,0-1.1,0-1.6,0.1
			c-0.5,0-1,0.1-1.4,0.2c-0.1,0.4-0.1,0.8-0.2,1.1c0,0.3-0.1,0.5-0.1,0.7c0,0.2,0,0.4,0,0.6s0,0.4,0,0.6c0,0.2,0,0.5,0,0.7
			c0,0.3,0,0.6,0,1c0.5,0,1,0,1.5-0.1c0.5-0.1,1-0.1,1.4-0.2c0.5-0.1,1-0.2,1.4-0.2c0.5-0.1,1-0.1,1.5-0.1v1l-5.7,0.9l0.1,3.2
			c0.8,0,1.4,0,2-0.1c0.6-0.1,1.2-0.1,1.7-0.2c0.5-0.1,1.1-0.1,1.6-0.2c0.5-0.1,1.1-0.1,1.7-0.1c0,0.1,0,0.2-0.1,0.4
			c0,0.2-0.1,0.3-0.2,0.4c-0.1,0.1-0.2,0.2-0.3,0.3c-0.1,0.1-0.2,0.1-0.3,0c-0.6,0.1-1.2,0.2-1.8,0.2c-0.7,0.1-1.3,0.2-2,0.2
			c-0.7,0.1-1.3,0.1-2,0.2c-0.6,0.1-1.2,0.1-1.7,0.2L90.6,60.1z"/>
		<path fill="#333333" d="M100.7,67.5c0-1.1,0.1-2.1,0.4-3c0.3-1,0.7-1.8,1.2-2.5c0.5-0.7,1.1-1.3,1.8-1.8c0.7-0.4,1.5-0.7,2.3-0.7
			c0.3,0,0.6,0,0.8,0.1c0.2,0,0.4,0.1,0.5,0.3c0.1,0.1,0.2,0.4,0.3,0.6c0.1,0.3,0.1,0.6,0.1,1.1c-0.5-0.6-0.9-1-1.5-1.1
			c-0.5-0.1-1-0.1-1.5,0c-0.5,0.2-0.9,0.5-1.4,1c-0.4,0.5-0.8,1-1.1,1.6c-0.3,0.6-0.5,1.3-0.7,2c-0.2,0.7-0.2,1.4-0.1,2.1
			c0,0.6,0.1,1.2,0.3,1.7c0.2,0.5,0.4,0.9,0.7,1.2c0.3,0.3,0.7,0.6,1.1,0.7c0.4,0.2,0.9,0.2,1.3,0.2c0.6-0.1,1.1-0.2,1.6-0.4
			c0.4-0.2,0.9-0.4,1.2-0.7c0.4-0.3,0.7-0.6,1.1-0.9c0.3-0.3,0.7-0.6,1.1-0.9c0.1,0,0.1,0,0.2,0c0.1,0,0.1,0,0.2,0.1
			c0.1,0,0.1,0.1,0.2,0.1s0.1,0.2,0.1,0.3c-0.4,0.5-0.8,0.9-1.3,1.4c-0.5,0.5-1,0.9-1.5,1.2c-0.5,0.4-1.1,0.6-1.6,0.8
			c-0.6,0.2-1.1,0.3-1.7,0.3c-0.5,0-1-0.1-1.5-0.3c-0.5-0.2-0.9-0.6-1.3-1c-0.4-0.4-0.7-0.9-0.9-1.5
			C100.8,68.9,100.7,68.2,100.7,67.5z"/>
		<path fill="#333333" d="M116,62.8l-3.2-0.2c0,0-0.1,0-0.1-0.1c0,0-0.1-0.1-0.1-0.2c0-0.1,0-0.1,0-0.2c0-0.1,0-0.1,0-0.2
			c0-0.2,0-0.3,0.1-0.5c0.1-0.2,0.2-0.3,0.3-0.3c0.7,0,1.5,0.1,2.2,0.2c0.7,0.1,1.5,0.1,2.2,0.2c0.7,0,1.5,0,2.2,0
			c0.7,0,1.5-0.1,2.2-0.3c0.1,0,0.1,0.1,0.1,0.2c0,0.1,0.1,0.2,0.1,0.4c0,0.1,0,0.3,0.1,0.4c0,0.1,0,0.2,0,0.3
			c-0.5,0.2-0.9,0.3-1.3,0.3c-0.4,0-0.7,0-1.1,0c-0.4,0-0.7,0-1.1,0c-0.4,0-0.8,0-1.3,0.1c0,0.3,0,0.7-0.1,1.2c0,0.5-0.1,1-0.1,1.5
			c0,0.5-0.1,1.1-0.1,1.7c0,0.6-0.1,1.2-0.1,1.7c0,0.6,0,1.1,0,1.6c0,0.5,0,1,0,1.4l-1.4,0.1L116,62.8z"/>
		<path fill="#333333" d="M123.9,72c-0.1-0.2-0.1-0.4-0.1-0.8c0-0.4,0-0.8-0.1-1.4c0-0.5,0-1.1,0-1.7c0-0.6,0-1.2,0-1.9
			c0-0.6,0-1.2,0-1.8c0-0.6,0-1.1,0.1-1.5c0-0.4,0-0.8,0-1.1c0-0.3,0-0.4,0-0.4c0.1-0.1,0.2-0.2,0.3-0.2c0.1-0.1,0.2-0.1,0.3-0.1
			c0.1,0,0.1,0,0.2,0.1c0.1,0,0.1,0.1,0.1,0.3V72c0,0.1,0,0.2-0.1,0.3c-0.1,0-0.2,0.1-0.2,0.1c-0.1,0-0.2,0-0.3-0.1
			C124.1,72.2,124,72.1,123.9,72z"/>
		<path fill="#333333" d="M127.2,66.6c0-0.9,0.1-1.7,0.4-2.4c0.2-0.7,0.6-1.4,1-1.9c0.4-0.5,0.9-0.9,1.5-1.2
			c0.6-0.3,1.2-0.4,1.8-0.4c0.6,0,1.2,0.1,1.8,0.3c0.6,0.2,1.1,0.5,1.6,0.9c0.5,0.4,0.8,1,1.1,1.6c0.3,0.7,0.4,1.4,0.4,2.3
			c0,2.1-0.4,3.7-1.2,4.7c-0.8,1-2,1.5-3.6,1.5c-0.7,0-1.3-0.1-1.9-0.3c-0.6-0.2-1.1-0.5-1.5-1c-0.4-0.4-0.8-1-1-1.7
			C127.3,68.4,127.2,67.6,127.2,66.6z M128.4,66.3c0,1.5,0.3,2.7,0.9,3.4c0.6,0.7,1.5,1.1,2.7,1.1c0.6,0,1.1-0.1,1.6-0.4
			c0.5-0.2,0.9-0.6,1.2-1c0.3-0.4,0.6-0.9,0.8-1.5c0.2-0.6,0.3-1.2,0.3-2c0-0.7-0.1-1.3-0.4-1.8c-0.2-0.5-0.6-0.9-0.9-1.2
			c-0.4-0.3-0.8-0.6-1.3-0.7c-0.5-0.1-1-0.2-1.5-0.2c-0.4,0-0.9,0.1-1.3,0.3c-0.4,0.2-0.8,0.5-1.1,0.9c-0.3,0.4-0.6,0.8-0.8,1.4
			C128.5,65.1,128.4,65.7,128.4,66.3z"/>
		<path fill="#333333" d="M146,72.3c-0.4-0.8-0.8-1.7-1.3-2.5c-0.5-0.9-1-1.7-1.5-2.6c-0.5-0.9-1-1.7-1.5-2.6
			c-0.5-0.9-1-1.7-1.4-2.6c-0.1,0.4-0.1,0.9-0.2,1.4c0,0.5-0.1,1.1-0.1,1.7c0,0.6,0,1.2,0,1.9c0,0.6,0,1.3,0,1.9c0,0.6,0,1.2,0,1.8
			c0,0.6,0,1.1,0,1.5c-0.1,0.2-0.3,0.3-0.4,0.3c-0.1,0-0.2,0.1-0.4,0.1c-0.1,0-0.3,0-0.4-0.1c-0.1-0.1-0.1-0.3-0.1-0.6
			c0-0.5,0.1-1.1,0.1-1.8c0-0.7,0.1-1.4,0.1-2.2c0-0.8,0-1.5,0.1-2.3c0-0.8,0-1.6,0-2.3c0-0.8,0-1.5,0-2.2c0-0.7,0-1.3,0-1.8
			c0.2-0.2,0.3-0.4,0.4-0.5c0.1-0.1,0.2-0.2,0.3-0.2s0.2,0.1,0.3,0.2c0.1,0.1,0.3,0.4,0.5,0.7c0.2,0.3,0.4,0.7,0.7,1.2
			s0.6,1.1,1,1.9c0.4,0.8,0.9,1.6,1.5,2.7c0.6,1,1.3,2.2,2.1,3.5l0.3-9.6c0.1-0.3,0.2-0.4,0.3-0.5c0.1-0.1,0.3-0.1,0.4-0.1
			c0.2,0,0.3,0.1,0.4,0.2c0.1,0.2,0.1,0.3,0.1,0.6c0,0.2,0,0.4,0,0.6c0,0.2,0,0.4,0,0.5c0,0.4,0,0.9,0,1.6c0,0.7,0,1.4,0,2.2
			c0,0.8,0,1.6,0,2.5c0,0.8,0,1.6,0,2.4c0,0.7-0.1,1.4-0.1,2c0,0.6-0.1,1-0.2,1.2L146,72.3z"/>
	</g>
	<g>
		<path fill="#333333" d="M25.4,17.5l1.1,0.8h0.4c4.7,0,8.6,1.2,11.7,3.7c1.2,0.5,2.7,1.9,4.6,4.2c0.6,1,1,2.1,1.2,3.4l-0.1,0.1v0.1
			l0.2,1.7v0.1c-0.3,0.3-0.6,1.1-1,2.4c-0.7,1.3-1.7,2.3-3.2,3.1c-1.1,0.9-1.9,1.5-2.5,1.6l-0.1,0.1v0.1c2.8,1.5,5.5,3.4,8.1,5.8
			c1.2,1,1.8,1.8,1.8,2.3l0.5,0.5v0.2L47.7,48v0.2c0.2,0,0.4,0.2,0.6,0.5V49h-0.2c0-0.2-0.2-0.4-0.5-0.6v0.7h-0.1L46,48v0.1l0.8,1
			v0.1L46.4,49c-0.1,0-0.2,0.1-0.2,0.4l-0.1,0.1h-0.2L45,48.6h-0.1v0.1l0.2,0.4v0.2H45l-0.6-0.5c-0.3,0-0.5,0.2-0.5,0.4
			c-2-1.7-3.8-3.1-5.4-4l-4.7-2.9c0-0.2-0.4-0.4-1.3-0.7v-0.1l-0.1,0.1h-0.1l-0.5-0.1l-0.1,0.1v0.5c0,2.7,0.2,4.2,0.5,4.6l-0.1,0.1
			V47c-0.6,0-1-0.2-1-0.5h-0.2l-0.4,0.6v0.6h-0.4v-0.6l0.1-0.6h-0.4V47l-0.6-0.1c0,0.2-0.2,0.4-0.6,0.4l0.1,0.1v0.1l-0.1,0.4h-0.4
			v-0.1l0.1-0.5l-0.1-0.4H28v0.2l0.2,0.4c0,0.2-0.2,0.4-0.7,0.5c-0.2-0.2-0.4-0.8-0.6-1.8h-0.2v0.2h-0.2v-0.6
			c-0.2,0-0.2,0.2-0.2,0.6l-0.1,0.1H26c-0.3,0-0.5-0.6-0.7-1.9l-1.1-7.7h0.1l-0.1-0.1l0.1-0.6V33l-0.4-6.8v-1.3h-0.2L22.5,25
			l-0.1-0.1c0,0.2-0.2,0.3-0.6,0.4V25h-0.6l-0.5,0.4L20,25.3l-0.1,0.1h-0.1c-0.2-0.5-0.8-1-1.6-1.7l-0.6-1v-0.1l0.1-0.1l-0.2-0.5
			l0.2-0.8l-0.2-0.7c0-0.2,0.2-0.2,0.5-0.2l-0.2-0.5l1-0.5h0.6l5.1-0.7V18l0.2-0.2L25,18h0.1v-0.1L25,17.8v-0.1l0.1-0.1H25.4z
			 M29,46l-0.1,0.6h0.2l0.2-0.5V46H29z M29.2,47.3l0.2,0.2v0.1l-0.2,0.2L29,47.7v-0.1L29.2,47.3z M29.8,25v-0.1
			c-0.3,0.1-0.5,0.2-0.5,0.4c0,0.4,0.5,1,1.4,1.9v0.2h-0.1c-0.3-0.2-0.6-0.4-0.8-0.4h-0.1l1.2,4.4c2.8-0.6,4.2-1.1,4.2-1.4
			c1.3-1,1.9-2,1.9-3.1c-0.2-1-0.8-1.6-1.8-1.6l-3-0.7L29.8,25z M43.9,48.6v0.2H44v-0.2H43.9z M47.2,47.9v0.4h0.1v-0.4H47.2z"/>
		<path fill="#333333" d="M48.5,17.7c2,0.5,3.7,0.8,4.8,0.8l0.4-0.5l2.1,0.6l2.2-0.1h4.7l0.5,0.1l0.4-0.1l0.8,0.3l1-0.1l0.1,0.1h0.1
			l0.1-0.1l0.9,0.1h2.1l2.5,0.1c3.5-0.4,6.3-0.7,8.5-1.2l0.3,0.4L79.4,19l0.1,0.1v0.1c-0.1,0.3-0.3,0.4-0.8,0.4v0.3l0.6-0.1h0.1v0.6
			h0.1c0.4-0.3,0.6-0.5,0.6-0.8l0.3,0.3c-0.7,1.9-1.3,2.9-1.6,2.9c-1.1,0-1.9,0.3-2.5,0.8c0-0.4-0.1-0.7-0.2-0.7h-0.1
			c0,0.4-0.2,0.6-0.5,0.8h-0.1v-0.3h0.3v-0.3l-0.9,0.3l0.6,0.6c-1,0.8-2.7,1.3-5.1,1.6c-0.4,0.2-1.6,0.5-3.8,0.7v-0.1
			c-0.4,0.2-1.9,0.5-4.6,0.8v-0.1c-0.6,0.1-0.9,0.3-0.9,0.5v1.4c2.1,0.1,3.1,0.3,3.1,0.5l-0.1,0.1h1.3l2.5,0.3h0.5
			c0.2,0.3,0.5,0.4,0.9,0.4v0.2c-0.7,0.2-1,0.4-1,0.7v0.1l0.1,0.1v0.1l0.1-0.1h0.3l0.6,0.1c-0.1,0.2-1.3,0.8-3.6,1.8l-0.4,0.4
			l-0.4-0.3l-0.4,0.4l0.1,0.1v0.4c-1.1,0.4-2.7,0.7-4.8,1c-0.4,0-0.6,0.3-0.6,0.8l-0.5,0.4c-0.2,0-0.3-0.2-0.4-0.5L57,38.8l0.1,0.4
			l8.6-1.8l5.1-0.8v0.1l0.1-0.1H71l0.8,0.1l0.8-0.3l0.5,1l-0.3,0.4V38c0.3,0,0.4,0.1,0.4,0.3l0.1-0.1h0.2v0.1l-0.9,1.8l-0.4,1.3
			c0,0.4-0.1,0.6-0.3,0.6h-0.3v-0.3h-0.4v0.1c0.3,0,0.4,0.1,0.4,0.3c-0.3,0-0.6,0.3-0.9,0.8l0.3,0.4v0.2l-3.3,2.5l-1,0.4
			c-0.6,0-1,0.2-1.3,0.7L65.1,47c0,0.4-0.4,0.6-1.3,0.6c-0.4,0.4-0.9,0.6-1.6,0.6c0,0.3-0.4,0.4-1.3,0.5c0,0.2-0.8,0.4-2.5,0.5
			L58,49.2l-0.6,0.1v-0.1l-0.8,0.3h-0.9l-0.5-0.1L55,49.5L52.5,49l0.3-0.5h-0.5l-0.4,0.3h-0.1c-1.1-0.7-1.7-1.7-1.7-3.1
			c-1.3-3.2-2-5.7-2-7.6v-4.2c0-1.4,1-4.1,3-8.1l0.4-1.2c-3.4-2.8-5.3-4.8-5.6-6.1L48.5,17.7z M67.4,31.1v0.2h0.1l0.4-0.1v-0.1
			l-0.2-0.3L67.4,31.1z M71,42v0.1h0.3v-0.4L71,42z M72.5,24.1v0.1h0.4v-0.1H72.5z M80,19.5h0.1v0.1l-0.2,0.3h-0.1v-0.1L80,19.5z"/>
		<path fill="#333333" d="M107.9,17.7c0.8,0,1.6,0.4,2.4,1.1v0.1l-0.3,0.2l0.3,1.3l-0.1,0.1H110l0.3,0.8v0.1
			c-1.2,1.6-2.6,2.6-4.2,3.2c0,0.3-0.9,0.6-2.8,1v-0.1l-3.6,0.6c0,0.1-0.3,0.2-1,0.3l-0.5,1.5l0.1,0.1l-0.5,3.5v1.6l-0.2,1.4v1.9
			L97.4,37l0.3,0.8c-0.8,3.5-1.3,5.7-1.3,6.4L96,45.4v1.1c0,0.5-0.3,1.3-0.9,2.3c0,0.4-0.1,0.6-0.2,0.6l-0.1-0.1
			c-0.1,0-0.2-0.2-0.2-0.6c-0.2,0-0.5-0.2-0.8-0.6h-0.3L93.4,48l-0.1,0.1l-0.4,1c-2.7-1.7-4-5-4-10l0.1-0.5l-0.1-0.1l0.1-0.9v-4.8
			l0.1-0.5L89,32.2l0.1-0.6v-2.2l0.4-2l-0.3-0.2l-0.1,0.1l-1.5-0.1h-0.4L87.1,27l-0.1,0.1h-0.1c-2.5-0.8-4.1-1.8-4.9-3
			c-0.7,0-1.1-0.5-1.3-1.6l-0.8-0.9v-0.4c0-0.1,1.1-0.4,3.4-0.6h1.5l0.1,0.1l0.1-0.1c0.8,0.2,1.9,0.2,3.3,0.2
			c3.5-0.3,5.2-0.5,5.2-0.6l0.5,0.1l0.6-0.2v0.1l0.1-0.1H95l0.4,0.1l0.6-0.1h0.8c0.9,0,3.1-0.5,6.4-1.5L107.9,17.7z"/>
		<path fill="#333333" d="M117.1,17.5l1.1,0.8h0.4c4.7,0,8.6,1.2,11.7,3.7c1.2,0.5,2.7,1.9,4.6,4.2c0.6,1,1,2.1,1.2,3.4l-0.1,0.1
			v0.1l0.2,1.7v0.1c-0.3,0.3-0.6,1.1-1,2.4c-0.7,1.3-1.7,2.3-3.2,3.1c-1.1,0.9-1.9,1.5-2.5,1.6l-0.1,0.1v0.1
			c2.8,1.5,5.5,3.4,8.1,5.8c1.2,1,1.8,1.8,1.8,2.3l0.5,0.5v0.2l-0.2,0.4v0.2c0.2,0,0.4,0.2,0.6,0.5V49h-0.2c0-0.2-0.2-0.4-0.5-0.6
			v0.7h-0.1l-1.6-1.1v0.1l0.8,1v0.1l-0.4-0.2c-0.1,0-0.2,0.1-0.2,0.4l-0.1,0.1h-0.2l-0.8-0.8h-0.1v0.1l0.2,0.4v0.2h-0.1l-0.6-0.5
			c-0.3,0-0.5,0.2-0.5,0.4c-2-1.7-3.8-3.1-5.4-4l-4.7-2.9c0-0.2-0.4-0.4-1.3-0.7v-0.1l-0.1,0.1H124l-0.5-0.1l-0.1,0.1v0.5
			c0,2.7,0.2,4.2,0.5,4.6l-0.1,0.1V47c-0.6,0-1-0.2-1-0.5h-0.2l-0.4,0.6v0.6h-0.4v-0.6l0.1-0.6h-0.4V47l-0.6-0.1
			c0,0.2-0.2,0.4-0.6,0.4l0.1,0.1v0.1l-0.1,0.4h-0.4v-0.1l0.1-0.5l-0.1-0.4h-0.4v0.2l0.2,0.4c0,0.2-0.2,0.4-0.7,0.5
			c-0.2-0.2-0.4-0.8-0.6-1.8h-0.2v0.2h-0.2v-0.6c-0.2,0-0.2,0.2-0.2,0.6l-0.1,0.1h-0.1c-0.3,0-0.5-0.6-0.7-1.9l-1.1-7.7h0.1
			l-0.1-0.1l0.1-0.6V33l-0.4-6.8v-1.3h-0.2l-1.2,0.2l-0.1-0.1c0,0.2-0.2,0.3-0.6,0.4V25h-0.6l-0.5,0.4l-0.7-0.1l-0.1,0.1h-0.1
			c-0.2-0.5-0.8-1-1.6-1.7l-0.6-1v-0.1l0.1-0.1l-0.2-0.5l0.2-0.8l-0.2-0.7c0-0.2,0.2-0.2,0.5-0.2l-0.2-0.5l1-0.5h0.6l5.1-0.7V18
			l0.2-0.2l0.4,0.2h0.1v-0.1l-0.1-0.1v-0.1l0.1-0.1H117.1z M120.7,46l-0.1,0.6h0.2l0.2-0.5V46H120.7z M120.9,47.3l0.2,0.2v0.1
			l-0.2,0.2l-0.2-0.2v-0.1L120.9,47.3z M121.5,25v-0.1c-0.3,0.1-0.5,0.2-0.5,0.4c0,0.4,0.5,1,1.4,1.9v0.2h-0.1
			c-0.3-0.2-0.6-0.4-0.8-0.4h-0.1l1.2,4.4c2.8-0.6,4.2-1.1,4.2-1.4c1.3-1,1.9-2,1.9-3.1c-0.2-1-0.8-1.6-1.8-1.6l-3-0.7L121.5,25z
			 M135.6,48.6v0.2h0.1v-0.2H135.6z M138.9,47.9v0.4h0.1v-0.4H138.9z"/>
		<path fill="#333333" d="M162.4,17.6c1.2,0,2.5,1.2,3.9,3.5c1.6,2.1,3,4.1,4.1,6.1l1.9,3.8l0.3,3.2c-0.4,2.2-0.8,3.3-1.2,3.3
			c-0.5,2.9-1.4,5-2.7,6.2l-2.7,2.3l-4.2,1.1c-1.7,1.3-4.2,1.9-7.6,1.9c0,0.2-0.2,0.3-0.7,0.3h-0.1l-3.4,0.1l-0.7-0.1l-0.1,0.1h-0.1
			l-4.4-1.1c-0.5-0.7-1.4-1.1-2.7-1.5l-1.4-1.8c-1-2.5-1.9-6.3-2.6-11.4l0.1-0.7v-1.8l0.1-0.1l-0.1-0.1c0-2.7,0.9-5,2.6-6.9
			c4.7-4.2,8.7-6.2,11.9-6.2h1.2c0.3,0,0.7,0.2,1.1,0.6c1.4-0.5,3.1-0.7,5.2-0.7h1.8L162.4,17.6z M149.5,27.9l-4.8,4.5
			c-0.7,1.5-1.1,2.7-1.1,3.6l1,5c1.2,0.5,2.1,0.7,2.7,0.7l4.4-0.5c1.8-0.9,3.7-1.5,5.8-1.9c2.9-3.4,4.4-5.2,4.4-5.4l1.6-4.1v-0.3
			l-1.4-0.3l-1.1,0.1l-0.1-0.1l-1,0.1h-2.6l-0.4-0.3c-2.9,0-4.7-0.3-5.4-1h-1.6L149.5,27.9z"/>
	</g>
</g>
</svg>
