<svg xmlns="http://www.w3.org/2000/svg" xmlns:xlink="http://www.w3.org/1999/xlink" id="Layer_1" x="0px" y="0px" viewBox="0 0 190 90" xml:space="preserve">
<g>
	<g>
		<path fill="#333333" d="M55.7,74.6c-0.1,0-0.1,0-0.2,0h-1.1v1.4h-0.8v-4.6h1.9c1.2,0,1.8,0.6,1.8,1.6c0,0.7-0.3,1.2-0.9,1.5l1,1.5    h-0.9L55.7,74.6z M55.4,73.9c0.7,0,1.1-0.3,1.1-0.9c0-0.6-0.4-0.9-1.1-0.9h-1.1v1.8H55.4z"></path>
		<path fill="#333333" d="M63,72.1v1.2h2.2V74H63v1.3h2.6v0.7h-3.3v-4.6h3.3v0.7H63z"></path>
		<path fill="#333333" d="M73.5,71.8l-0.3,0.7c-0.5-0.3-1-0.4-1.3-0.4c-0.4,0-0.7,0.2-0.7,0.5c0,1,2.5,0.5,2.5,2.1    c0,0.8-0.7,1.3-1.7,1.3c-0.7,0-1.4-0.3-1.9-0.7l0.3-0.7c0.5,0.4,1.1,0.7,1.5,0.7c0.5,0,0.9-0.2,0.9-0.6c0-1-2.5-0.4-2.5-2.1    c0-0.8,0.7-1.3,1.7-1.3C72.5,71.3,73.1,71.5,73.5,71.8z"></path>
		<path fill="#333333" d="M80.1,72.1v3.9h-0.8v-3.9h-1.4v-0.7h3.7v0.7H80.1z"></path>
		<path fill="#333333" d="M86.3,74.9l-0.4,1H85l2-4.6h0.8l2,4.6H89l-0.4-1H86.3z M87.4,72.2l-0.9,2h1.7L87.4,72.2z"></path>
		<path fill="#333333" d="M98.1,74.1c0,1.2-0.8,1.9-2,1.9c-1.2,0-2-0.7-2-1.9v-2.7h0.8v2.7c0,0.8,0.5,1.2,1.2,1.2    c0.7,0,1.2-0.5,1.2-1.2v-2.7h0.8V74.1z"></path>
		<path fill="#333333" d="M105.2,74.6c-0.1,0-0.1,0-0.2,0h-1.1v1.4h-0.8v-4.6h1.9c1.2,0,1.8,0.6,1.8,1.6c0,0.7-0.3,1.2-0.9,1.5    l1,1.5H106L105.2,74.6z M105,73.9c0.7,0,1.1-0.3,1.1-0.9c0-0.6-0.4-0.9-1.1-0.9h-1.1v1.8H105z"></path>
		<path fill="#333333" d="M112.4,74.9l-0.4,1h-0.8l2-4.6h0.8l2,4.6h-0.8l-0.4-1H112.4z M113.5,72.2l-0.9,2h1.7L113.5,72.2z"></path>
		<path fill="#333333" d="M123.7,75.9l-2.4-3.3v3.3h-0.8v-4.6h0.8l2.4,3.3v-3.3h0.8v4.6H123.7z"></path>
		<path fill="#333333" d="M131.2,72.1v3.9h-0.8v-3.9H129v-0.7h3.7v0.7H131.2z"></path>
	</g>
	<g>
		<g>
			<path fill="#333333" d="M160.7,57.8c0.1,0,0.2,0,0.3,0.1C160.7,57.9,160.6,57.9,160.7,57.8z"></path>
		</g>
		<g>
			<path fill="#333333" d="M164.2,58.3c-0.9-0.1-2.3-0.2-3.2-0.4C161.8,57.9,164,57.8,164.2,58.3z"></path>
		</g>
		<g>
			<path fill="#333333" d="M160.6,57.1l1.1,0.2C161.1,57.4,161.2,57.2,160.6,57.1z"></path>
		</g>
		<g>
			<polygon fill="#333333" points="161,57.5 160.9,57.7 160.3,57.5    "></polygon>
		</g>
		<g>
			<path fill="#333333" d="M103.5,59.3c0.1,0.1,0.2,0.1,0.1,0.2L103.5,59.3z"></path>
		</g>
		<g>
			<path fill="#333333" d="M100.9,58.7c-0.2,0-0.4,0-0.5,0C100.5,58.7,100.6,58.7,100.9,58.7z"></path>
		</g>
		<g>
			<path fill="#333333" d="M105.9,59l-0.5,0C105.6,59,105.7,59,105.9,59z"></path>
		</g>
		<g>
			<path fill="#333333" d="M134.7,57.5c0.4,0.1,0.8,0.2,1.1,0.3C135,57.9,135,57.6,134.7,57.5z"></path>
		</g>
		<g>
			<path fill="#333333" d="M88.7,57.3l-0.1,0.1C88.5,57.4,88.4,57.3,88.7,57.3z"></path>
		</g>
		<g>
			<path fill="#333333" d="M100.1,56.6c0,0.1,0,0.1,0,0.2l-0.1,0L100.1,56.6z"></path>
		</g>
		<g>
			<path fill="#333333" d="M107.7,58.7L107.7,58.7l0.4,0C107.9,58.7,107.8,58.7,107.7,58.7z"></path>
		</g>
		<g>
			<path fill="#333333" d="M85.1,57.5c-0.2-0.1-0.3-0.1-0.5-0.2C84.9,57.2,85.1,57.3,85.1,57.5z"></path>
		</g>
		<g>
			<path fill="#333333" d="M100.3,58.7C100.3,58.7,100.3,58.7,100.3,58.7C100.3,58.7,100.3,58.7,100.3,58.7     C100.3,58.7,100.3,58.7,100.3,58.7z"></path>
		</g>
		<g>
			<path fill="#333333" d="M103.9,56.5c-0.2,0-0.4,0-0.6,0C103.5,56.4,103.7,56.4,103.9,56.5z"></path>
		</g>
		<g>
			<path fill="#333333" d="M134.7,57.5c-0.1,0-0.2-0.1-0.4-0.1C134.5,57.4,134.7,57.4,134.7,57.5z"></path>
		</g>
		<g>
			<path fill="#333333" d="M157.7,57.9c-0.4,0-0.4-0.1-0.5-0.2C157.4,57.7,157.5,57.8,157.7,57.9z"></path>
		</g>
		<g>
			<path fill="#333333" d="M26.6,67l-0.1,0C26.5,67,26.5,67,26.6,67z"></path>
		</g>
		<g>
			<path fill="#333333" d="M40.5,65.6c0.1,0,0.1,0,0.2,0.1C40.6,65.7,40.5,65.7,40.5,65.6z"></path>
		</g>
		<g>
			<path fill="#333333" d="M52.8,60.9C52,61.2,51,61,50.2,61l0.3,0.1l-0.8,0l0,0.2c-1.3,0.1-2.9,0.5-3.5,0.2l0.2,0.3L45,61.8     l0.8,0.2c-1.6,0.3-4,0.3-4.3,0.3l0.2,0.1c-0.2,0.1-0.5,0-0.7,0l0.2,0.2c-2.4,0.2-3,0.8-5.6,0.9c-0.7,0.1,0.4,0,0.4,0.1     c-0.4,0.2-1.3,0.2-1.5,0.1c0.2,0.3,1.3,0.1,0.5,0.4c-0.6-0.1,0.4,0.2-0.6,0.3L34,64.1c-0.6,0.1-0.1,0.3-1,0.4     c-1.1,0,1.2-0.6-0.5-0.5c-0.8,0.1-1.7,1.2-3.4,1.2c-1.4,0.4,0.8,0.5-1.2,0.7l1.3,0.1c-0.3,0.2-0.1,0.3-0.9,0.4     C28,66.2,27.5,66,27,66.1c1.9,0.1-1.6,0.7,0.2,0.9L26.6,67c0.1,0,0.1,0,0.1,0.1l-0.8,0.1c0.5,0,1.8-0.1,1.2,0.3l-1.2,0.2     c0.4,0.2-0.1,0.3,0,0.5l3.7,0c-0.2-0.1-0.7-0.1-0.5-0.3c1-0.2,0.8,0.1,1.7-0.2l-0.4-0.1c0.1,0.1,0.2,0.1,0,0.1     c-0.3,0.2-0.5,0-0.5-0.1c0.3-0.3,1.2-0.2,1.5-0.1c1.2-0.2,0.2-0.4,0.4-0.5c0.7,0.3,2-0.3,2.7-0.2L34,66.7     c0.9-0.4,1.7-0.3,2.2-0.2L36,66.2c1.3-0.1,1.8-0.9,2.8-0.3l-0.1-0.1c0.5-0.1,1.3-0.4,1.8-0.2c0-0.1,0.1-0.2,0.3-0.3     c0.3,0.2,0.8,0,1.6-0.2c-0.5,0-0.4-0.4-0.9-0.4c1.1-0.5,1.1,0.3,2.1,0.1c0.6-0.3-0.6-0.1-0.7-0.3c1.5,0,3-1.2,4-0.6l-0.6,0.3     c0.6,0.1,0.9,0,0.9,0c-0.2,0-0.3,0-0.3-0.1c1.8-0.6,2.9,0.2,4.7-0.2C51.3,64,51,64,51,63.8c0.8-0.2,0.9,0.6,2.2,0.2l-0.3-0.1     c0.4-0.1,0.8,0,0.8,0.1c0-0.6,2.9-0.3,3.7-1.2c0.7,0.3,2.6,0.3,3.2,0c0.8-0.5-0.8-0.3-0.5-0.7c0.7-0.1,1,0.2,2,0     c0.1,0.3-1.9,0.9,0,0.9l0.2-0.2c-0.2,0-0.4,0.1-0.7,0.1c-0.6-0.1,0.3-0.3,0.4-0.4l2-0.1c0.2,0.4-1,0.4-1.1,0.5     c1.6-0.3,3.4-1,4.9-0.9l-0.2-0.1c1.9,0.1,1-0.8,2.5-0.4c0.8-0.2-0.3-0.4,0.9-0.5c0.3,0,0.2,0.1,0.1,0.2c1.5,0,0.6-0.4,2-0.2     l-0.3-0.4c1.6,0.1,3.4,0.6,4.7,0.3c-0.1-0.3-1-0.2-1.3-0.4c1.9,0.3,4.5-0.4,6.2-0.3c-0.5,0.3,0.9,0.5-0.2,0.8     c-0.3-0.4-0.8-0.1-1.4,0c1,0.8,4-0.8,4.3-0.1l0.2-0.3c0.3,0,1,0.2,0.5,0.3l1.9-0.4c-0.7-0.2-2.1-0.6-2.6-0.2     c-0.6-0.3,0.8-0.3,0.2-0.6c1.3,0.4,0.8-0.3,2.1-0.3c-0.6,0.5,1.4,0.5,1.3,0.7c0.4-0.1,1.4,0,1.8,0.1c0.8,0,2.5-0.5,3.7-0.5     c-0.5-0.1-1.2-0.2-1.2-0.5c0.6,0.1,1.3,0,1.4-0.3c-2.2-0.4-0.6,0.8-2.6,0.6c-0.5-0.3-1-0.4-2-0.4c0.4-0.2,0.2-0.3,0.4-0.6     c1.3,0.7,3.2-0.2,4.8,0.1c0.7,0.2,0.2,0.7,1.7,0.7l-1.3,0.3c1.4-0.3,0.4,0.2,1.5,0.2l-0.5-0.2c0.7-0.1,1-0.1,1.4,0.1l-0.6-0.3     c0.4-0.1,1.1-0.2,1.1,0.1c0.1-0.1,0.1-0.2,0.1-0.2c0.1,0.1,0.3,0.1,0.7,0c-0.3,0-0.5,0-0.5-0.1c1.8,0,0.4-0.4,1.5-0.5     c-0.2-0.1,0.1-0.2,0.5-0.3c0,0.6,2.2,0.5,2.8,0.8l0,0l1.5,0.1c-0.3,0,0-0.2,0.4-0.3l-0.1,0c0.5-0.1-0.6-0.6,0.8-0.5l0.7,0.1     c-0.1,0,0-0.1,0.1-0.2l0.8,0.1c1.1-0.6,2.2,0.2,3.5-0.2c-0.4,0.1-1,0.1-0.7-0.1c0.3-0.1,0.7,0,0.9,0l-0.1-0.1l2.6,0.2     c-0.2-0.2-1.7-0.1-1-0.4c0.4-0.3,1.1,0,1.6,0c-0.1,0.2-0.9,0.3,0,0.4c0.1-0.1,0.9-0.3,0.5-0.4c0.9,0.1,2.2,0.2,3,0.4     c0.2-0.1-0.1-0.1-0.3-0.1l-0.1,0c-0.5-0.1-0.1-0.4-1.1-0.2c-0.1-0.5,1.5-0.2,2.4-0.3l-1.5-0.3c2.4-0.8,5.8-0.2,8.2-0.2     c-0.7,0.2-1.3,0-1.2,0.4c1.5,0.2,1.3,0.1,2.8,0.1l-0.1,0c0.8-0.2,1.9,0.2,2.4-0.2c-0.3-0.2-1.1,0.2-1.1-0.2l1.9,0     c-0.6-0.3-1.9,0-2.6,0c-0.5,0,1.1,0,0.8,0.3c-1.8,0-2.2-0.3-3.1-0.7c-0.5-0.3,0.8-0.3,1.1-0.4c1.1,0.5,2.8,0.6,4.6,0.4l1-0.3     c0.9,0.3,0.5,0.9,2.1,0.9l-0.5-0.3c0.3-0.1,0.6-0.1,0.7-0.1c-0.7-0.2-1.4-0.4-2-0.6c0.9-0.5,2.6,0.3,3.9,0.4     c-0.1-0.1-0.5-0.1-0.7-0.2c2-0.1,4,0.5,5.6,0.6c0.6-0.2-1.3-0.2-0.9-0.5c0.8,0.2,1.7-0.1,1.9,0.2c-0.3-0.5,1.8,0,0.3-0.5     c1.4-0.1,3,0,4.5,0.2c1.5,0.1,3,0.4,4.5,0.6c-0.1-0.1-0.1-0.3,0-0.3c-1,0-2.4-0.2-3-0.6c0.7-0.2,1.5,0.4,1.7,0.3     c-0.3-0.1-1-0.2-1-0.4c0.9-0.2,1.3,0.2,1.9,0.2l-0.3,0.1c1.8,0.4,1,0.9,3,0.8c0.7-0.2,0-0.2,0-0.6c0.5,0.2,2-0.1,2.4,0.3l-1.2,0     c0.8,0.1,1.6,0.2,2.2,0.4c-0.1-0.1-0.1-0.2-0.3-0.2c0.7,0.2,1.5,0.2,1.8,0.5l0.2-0.4c-0.4,0.1-1.6,0.1-1.8-0.2     c0.1-0.3,1.3,0,1.8,0c-2.3-0.3-2.3-0.9-4.3-0.7l0.3,0.1c-1.2,0.2-2.5-0.3-3.5-0.3c0.3-0.1,0.4-0.2,0.2-0.3c-1.2,0.1-2.4,0-3.6,0     c-1.2,0-2.5-0.1-3.8,0l-0.8-0.4l-0.1,0.3c-1.3,0.1-0.3-0.4-1.1-0.4c0.3,0,0.3,0.1,0.3,0.1c-1.5-0.4-0.9,0.2-1.7,0.1     c0.4,0.3,1.7,0.1,1.3,0.5c-1.5-0.4-3.9-0.2-4.1-0.9c-2.8,0.3-6.4-0.2-8.8-0.2c-0.3,0.1,0.2,0.1,0.1,0.2c-1-0.4-3.2,0.3-3.2,0     c-0.5,0.1-0.6,0.4-0.8,0.5c-0.6-0.2-1.3-0.2-2.1-0.3l0.6,0.1l-0.1,0l-0.8-0.1l0,0c-1.9-0.1-4.1,0.1-5.9-0.2     c1,0.2-0.2,0.4,0.2,0.5c-0.9-0.5-3-0.5-4.7-0.3c0,0.1-0.1,0.2,0.1,0.3l-1-0.2l0.1,0.1c-1.8,0.2-3.8-0.3-4.9,0     c0.7,0,0.7,0.1,0.8,0.3c-1.3,0.1-2.5,0.1-4,0.1c0.1,0,0.1,0.1,0.1,0.1c-0.4,0.1-0.9,0-1.3-0.1l0,0.3c-0.8-0.1-1.7,0.1-2.7,0     c-0.3,0.3-2.2-0.1-3.3,0.1c-0.4,0,0.9,0.3-0.2,0.3c-0.2-0.6-1.5,0.1-1.6-0.5l-1,0.3l-0.2-0.3c-0.8,0.7-1.3-0.2-2.5,0.1     c0.1,0.1,0.2,0.1,0.1,0.1c-0.4,0-1.3,0-0.6-0.2c-0.7,0.1-2.9,0.1-1.9,0.4c-0.1-0.2,0.8-0.1,1.3-0.1c0,0.3-1,0.3-1.3,0.6     c0,0-0.2-0.1-0.3-0.1l-0.1,0.2c-1.3-0.2-2.5,0.1-3.4-0.2c0,0.1-0.3,0.2-0.7,0.2l-0.1-0.3L83,57.4l0.7,0.4     c-1.4,0.2-2.5-0.2-3.7-0.2c-0.2,0.6-2.3,0-3.3,0.6l0.9,0.1c-2,0.1-2.3,0.5-4.1,0.5c1.5-0.4,1.6-0.2,3.8-0.9     c-2.3,0.5-4,0.1-6.1,0.6c0.2,0.1,0.7,0.2,0.2,0.3c-0.4-0.3-2,0.2-1.7-0.2c-0.6,0.2-0.7,0.5-1.1,0.6l-2.2-0.2l0.1,0.1     c-3.6,1.2-7,0.2-10.7,1l0.1,0.2l-1-0.2c0.8,0.1-0.3,0.3-0.3,0.4l-2.4-0.1C52.1,60.7,52.3,61.1,52.8,60.9z M84.3,57.7l0.6,0     c0.1,0,0.2,0,0.4,0l-0.4,0C84.6,57.7,84.4,57.9,84.3,57.7z M136.7,55.7c0.3,0.2-0.4,0-0.6,0.1l0.9,0     C137.2,55.7,136.9,55.7,136.7,55.7z M84.5,59.9l-0.3,0.3L83.8,60L84.5,59.9z M76.5,60.7l0.8,0.1l-0.1,0.1L76.5,60.7L76.5,60.7z      M67.4,59.8c0.1,0,0.1,0,0.2,0C67.5,59.8,67.5,59.8,67.4,59.8c-0.6-0.1-0.8,0.3-1.4,0C66.6,59.4,67.1,59.7,67.4,59.8z M81.5,58.4     c0.3,0,0.4,0,0.6,0c-0.2-0.1-0.7-0.3-0.3-0.4c0.3,0.1,1.2,0.1,1.2,0.3C82.2,58.1,81.7,58.8,81.5,58.4z M100.5,56.9l-0.2,0     l0.8,0.1L100.5,56.9z M103.9,56.9c0.4,0.3,1.5,0.1,2.2,0.2c0.2-0.3-0.6-0.5-1.4-0.4C103.7,56.5,104.3,57.1,103.9,56.9z      M75.4,59.4l0.2,0.2l-0.2,0l0.8,0.1c-1,0.4-1.8-0.1-2.4-0.1C74.4,59.6,75.7,59.9,75.4,59.4z M111.3,56.6c0.7,0.1,2.1,0.3,2,0.5     c0-0.4-1-0.5-1.4-0.5C111.7,56.7,111.5,56.6,111.3,56.6z M111.3,57.4c-1.1-0.1-1.2-0.3-2-0.6c1-0.2,1.4,0.3,1.2,0.5     c0.7,0.1,0.6-0.1,1-0.2L111.3,57.4z M110.1,56.3l-0.4,0.1c-0.5,0.2-0.6,0.6-1.3,0.2l1.3-0.2C109.8,56.4,109.9,56.3,110.1,56.3z      M119.1,55.9l-0.4-0.1C119.1,55.8,119.1,55.9,119.1,55.9l0.4,0.1C118.5,56.2,119,56.1,119.1,55.9z M112.2,56.3l-1.3,0     C111.1,56.5,111.8,56.4,112.2,56.3z M118.8,56.3c-0.5,0-1.9,0.2-1.7,0.1C117.2,56.2,118.5,56.2,118.8,56.3z M146.6,56.7l-0.8,0     l0.4-0.3L146.6,56.7z M137.3,56.7l0.2-0.1l0.5,0L137.3,56.7z M128.7,56.8c0-0.1,0-0.1-0.1-0.2c-0.1,0-0.2-0.1-0.3-0.1     c0.1,0,0.2,0,0.3,0.1c0.3,0.1,0.9,0,1.1-0.1c-0.1-0.1-0.7-0.1-0.9-0.2c0.8-0.3,2.6,0.6,2-0.3c0.3,0.1,1.5,0.4,1.1,0.5     C131.1,56.5,129.4,56.6,128.7,56.8c0,0.1-0.1,0.1-0.3,0.1C128.5,56.9,128.6,56.8,128.7,56.8z M117.2,57.3c-0.3,0-0.5,0-0.5-0.1     c-0.3-0.1-0.5-0.2-0.4-0.3c0.7,0.1,0.3,0.2,0.4,0.3C116.8,57.3,117,57.3,117.2,57.3z M115.1,57.5l1.1,0.1l-0.5-0.2l1.6,0.3     C116.4,58,115.3,57.7,115.1,57.5z M114.8,57.7l-0.2-0.2l0.3,0.2L114.8,57.7L114.8,57.7l-1.7,0L114.8,57.7z M96.5,58.3     c-0.6,0.8,1.6,0.4,2,0.8c0.1-0.3,0.7-0.7-1-0.6c1.5-0.4,1,0.4,1.8-0.3c-0.7,0.1-1.6,0-1.7-0.1l0.8-0.1     C97.9,57.7,97.1,58.5,96.5,58.3z M87.4,59.2l-1.1,0.1L87.4,59.2L87.4,59.2z M59.9,62.3c0.1,0.2-1.3,0.7-1.7,0.4     C58.9,62.5,59.7,62.5,59.9,62.3z M48.1,63.7l1.3,0c-0.2,0.4-1.1,0.1-1.7,0.3C47.4,63.7,47.9,63.8,48.1,63.7z M40,64.7l-0.4,0     L40,65L40,64.7z M40.6,65.1c-0.2,0.2,0.6,0.2,0.8,0.1L40.6,65.1z M33.3,66.4l0.5-0.1L33.3,66L33.3,66.4z M34.1,65.9     c0.2,0.2,0.1,0.6,1.3,0.3c0-0.3-0.3-0.2,0.1-0.6c-0.4,0-0.7,0.1-0.9,0.2c0.3,0,0.6-0.1,0.7,0C34.8,65.9,34.4,65.9,34.1,65.9     c-0.1-0.1-0.1-0.2-0.3-0.2C33.8,65.8,33.9,65.8,34.1,65.9z M38.4,65c0.2-0.1,0.3-0.1,0.3-0.2l0.1,0.1     C38.7,65.1,38.5,65.1,38.4,65c-0.2,0.1-0.4,0.1-0.6,0.2c-0.1,0.2,0.7,0.3,1,0.4c-0.4,0-0.8-0.2-1.3,0c0.1,0.1,0,0.1,0.3,0.1     l-0.7,0.1c-0.9-0.2-0.1-0.4,0.7-0.6c0-0.1,0.1-0.1,0.2-0.2C38.1,65,38.3,65,38.4,65z M32.6,65.2l0.4,0c0.2,0.1,0.1,0.2,0.2,0.2     C32.7,65.5,32.1,65.4,32.6,65.2z M56.1,62.3c-0.3,0.1,0.4,0.3,1,0.2l-0.3,0.4c0-0.2-1.2-0.1-1.3-0.1     C55.2,62.5,55.7,62.5,56.1,62.3z M83.5,59.3c0.3,0.4,1.7,0,2.1,0.1C84.8,59.6,83,59.9,83.5,59.3z M86.1,58.9     c0.4,0,0.5-0.1,0.5,0.1c0.2,0.1,0.5-0.1,0.7,0C86.5,59.3,86.5,59,86.1,58.9c-0.1,0-0.2,0-0.4,0C85.8,58.9,86,58.9,86.1,58.9z      M70,60.5l-0.6-0.3l-0.8,0.1L70,60.5z M60.8,60.9c0.1,0.2-0.9,0.3-1.1,0.2c0.1,0.2,0.7,0.1,1.3,0.1c0.1,0,0.2,0,0.3,0     c-0.1,0-0.2,0-0.3,0C60.8,61.2,60.9,61.1,60.8,60.9l0.3,0l-0.7,0L60.8,60.9z M44.7,62.6c-0.6,0.3-0.6,0.2-1,0.2     C43.8,62.7,44.3,62.6,44.7,62.6z M65.6,60.2c-1,0.2,0.5,0.3-0.1,0.5l0.5-0.1c-0.8,0.3-0.6-0.2-1.2-0.1l0.4-0.1     c0.3-0.3-0.6-0.1-0.7-0.3C65,60,66,60.1,65.6,60.2z M43.8,62.6c-0.9,0.4-0.8-0.1-1.4-0.1C43.1,62.1,43,62.6,43.8,62.6z      M59.4,60.2L59.4,60.2l-0.8-0.1l-0.1,0.1L59.4,60.2z"></path>
		</g>
		<g>
			<path fill="#333333" d="M42.8,65.1c-0.2,0.1-0.4,0.1-0.5,0.1C42.5,65.2,42.7,65.1,42.8,65.1z"></path>
		</g>
		<g>
			<path fill="#333333" d="M88.6,60.3c0-0.1,0.1-0.1,0.2-0.1C88.8,60.2,88.7,60.3,88.6,60.3z"></path>
		</g>
		<g>
			<path fill="#333333" d="M90.5,60.3C90.5,60.3,90.6,60.3,90.5,60.3c0.1,0,0.1,0,0.1,0L90.5,60.3z"></path>
		</g>
		<g>
			<path fill="#333333" d="M157.1,58.1c0.4,0.3-0.4,0-0.7,0C156.7,58.2,156.8,58,157.1,58.1z"></path>
		</g>
		<g>
			<path fill="#333333" d="M154.5,57.5c0.2,0.1,0.5,0.2,0.8,0.2C155.1,57.7,154.9,57.7,154.5,57.5z"></path>
		</g>
		<g>
			<path fill="#333333" d="M156.6,57.7c-0.5,0-0.9,0-1.3,0C155.7,57.7,156,57.6,156.6,57.7z"></path>
		</g>
		<g>
			<path fill="#333333" d="M147.5,57.2c0.4,0.2,1.2,0.1,1.2,0.1c-1.7,0.1,0.3,0.4,0.5,0.5C148.1,57.8,148.1,57.5,147.5,57.2z"></path>
		</g>
		<g>
			<path fill="#333333" d="M145.3,57.1c0.2,0,0.3,0,0.5,0C145.6,57.1,145.4,57.1,145.3,57.1z"></path>
		</g>
		<g>
			<path fill="#333333" d="M144.6,57.2c-0.6-0.1-0.8-0.3-1.1-0.4c0.7-0.1,1.2,0.2,1.7,0.3C144.9,57.1,144.4,57,144.6,57.2z"></path>
		</g>
		<g>
			<path fill="#333333" d="M126.4,58.2c0.1,0,0.5,0,0.5,0.1l-1,0C125.5,58.3,126.2,58.2,126.4,58.2z"></path>
		</g>
		<g>
			<path fill="#333333" d="M122.8,57.7c-0.8,0-0.4,0.3-0.8,0.2l0-0.4L122.8,57.7z"></path>
		</g>
		<g>
			<path fill="#333333" d="M123.1,55.7l0.2,0C123.3,55.7,123.2,55.7,123.1,55.7L123.1,55.7z"></path>
		</g>
		<g>
			<path fill="#333333" d="M119,58.2l0.6,0.4C118.9,58.6,118.8,58.2,119,58.2z"></path>
		</g>
		<g>
			<polygon fill="#333333" points="116,58.7 116.4,58.8 115,58.7    "></polygon>
		</g>
		<g>
			<polygon fill="#333333" points="112.3,58.6 112.2,58.7 111.2,58.7    "></polygon>
		</g>
		<g>
			<path fill="#333333" d="M72.8,61.5c-0.2-0.4,1.4-0.4,1.9-0.5C74.4,61.4,73.4,60.9,72.8,61.5z"></path>
		</g>
		<g>
			<path fill="#333333" d="M44.2,64.8l1.5-0.1C44.6,65,45.4,64.7,44.2,64.8z"></path>
		</g>
	</g>
	<g>
		<path fill="#333333" d="M44,56.9c-1.1,0.1-3.1-0.6-3.3-1.1c0-0.6,0-1.1,0-1.7c0-4.3,0.6-9.1,2.1-14.7c0.1-0.5,0.4-1.5,0.5-2.4    c-2.8,2.4-9.5,13.8-10.1,20.7c-1.9-0.4-2.5-0.9-2.5-1.7c0-1.4,1.8-5.4,4.5-10.5c3.1-5.9,6-10.6,8.7-12.3c1.1-0.1,4.1,1,4.2,1.6    c-1.1,2.2-3.2,9.5-4,15.3c2.7-6.6,8.3-15.5,10.9-17.6c1.1-0.1,4.1,1,4.2,1.6c-2.5,4.6-3.8,13.8-3.8,19.3c0,0.9,0,1.9,0.1,2.9    c-1.1,0.1-3.3-0.4-3.7-1c0-0.6,0-1.1,0-1.7c0-4.3,0.6-9.1,2.1-14.7c0.1-0.6,0.4-1.6,0.6-2.6c-3.3,1.8-9.6,13.8-10.1,20.8    C44.3,56.9,44.2,56.9,44,56.9z"></path>
		<path fill="#333333" d="M67.2,32.3c0.8,0,2.9,0.9,3.2,1.6c-3.4,3.3-7,17-7,21.3c0,0.4,0,0.5,0.1,0.6c-1.7,0-1.4-1-2.1-1.3    c-0.5-0.2-0.8-1.9-0.8-2.6C60.6,47.7,64.9,34.8,67.2,32.3z"></path>
		<path fill="#333333" d="M68.7,53.2c0-3.6,5.3-17.1,7.9-20.9l-0.2-1.2c1.1-0.1,4.4,1,4.6,1.5c-0.2,0.9-0.3,3-0.3,5.2    c0,4.3,0.2,8.3,1.4,12.4c1.9-9.5,4.8-19.4,6.3-19.6c0.9,0.1,2.1,1,2.6,1.8c-3.7,1.8-7.5,17.3-7.6,22c0,0,0,0.1,0,0.1    c-0.1,0-0.3,0-0.4,0.1c-1.8,0.1-3.3-0.3-3.8-1.1C77.6,47,77,41.5,76.8,34.7c-2.2,3.7-5.3,14.5-5.3,19.2c0,0.8,0,1.1,0.1,1.3    C69.3,54.7,68.7,54.3,68.7,53.2z"></path>
		<path fill="#333333" d="M96.5,30.5c0.8,0,2.9,0.9,3.2,1.6c-3.4,3.3-7,17-7,21.3c0,0.4,0,0.5,0.1,0.6c-1.7,0-1.4-1-2.1-1.3    c-0.5-0.2-0.8-1.9-0.8-2.6C89.9,45.9,94.2,32.9,96.5,30.5z"></path>
		<path fill="#333333" d="M110,52.8c-1.1,0.1-3.1-0.6-3.3-1.1c0-0.6,0-1.1,0-1.7c0-4.3,0.6-9.1,2.1-14.7c0.1-0.5,0.4-1.5,0.5-2.4    c-2.8,2.4-9.5,13.8-10.1,20.7c-1.9-0.4-2.5-0.9-2.5-1.7c0-1.4,1.8-5.4,4.6-10.5c3.1-5.9,6-10.6,8.7-12.3c1.1-0.1,4.1,1,4.2,1.6    c-1.1,2.2-3.2,9.5-4,15.3c2.7-6.6,8.3-15.5,10.9-17.6c1.1-0.1,4.1,1,4.2,1.6c-2.5,4.6-3.8,13.8-3.8,19.3c0,0.9,0,1.9,0.1,2.9    c-1.1,0.1-3.3-0.4-3.7-1c0-0.6,0-1.1,0-1.7c0-4.3,0.6-9.1,2.1-14.7c0.1-0.6,0.4-1.6,0.6-2.6c-3.3,1.8-9.6,13.8-10.1,20.8    C110.3,52.8,110.2,52.8,110,52.8z"></path>
		<path fill="#333333" d="M124.7,50c0-1.3,1.5-4.7,3.9-9.2c-1,0-1.8,0.1-2.3,0.1c0.2-0.6,1.4-1.1,3.2-1.5c3.1-5.3,7-9.8,10.2-11.8    c0-0.3,0.1-0.5,0.1-0.6c1.1-0.1,4.1,1,4.2,1.6c-1.3,2.3-2.6,7.1-3.5,13.4c-0.2,1.6-0.4,3.6-0.4,6c0,0.9,0,1.8,0.1,2.7    c-0.1,0-0.1,0-0.4,0.1c-1.1,0.1-3.1-0.6-3.3-1.1c0-0.5,0-1,0-1.5c0-2.4,0.2-4.9,0.6-7.6c-1.1,0-3.8,0-6.3,0.1    c-0.9,1.8-1.8,3.6-2.4,5.4c-0.6,1.9-1.1,3.9-1.2,5.5C125.3,51.3,124.7,50.9,124.7,50z M139.1,30.7c-2,0.9-4.9,4.2-7.3,8.3    c1.6-0.2,3.5-0.5,5.6-0.6c0.3-1.6,0.7-3.3,1.1-5C138.7,32.8,138.9,31.8,139.1,30.7z"></path>
		<path fill="#333333" d="M156.4,48.4c0,0.4-0.1,0.6-0.1,0.9c-0.7,0-1.4,0-2.2,0c-1.9,0.1-3.7,0.4-7.5,1.3c-0.9-0.3-1.8-1.2-2.6-2.4    c0.8-1.8,2.4-5.1,4.6-11.6c1.4-4.3,1.9-6.1,2.8-10.5c1.6,0.2,2.6,1,3.7,2.4c-0.6,1-2.1,4.8-3.9,9.6c-1.7,4.7-3.4,8.5-3.4,9.7    c1.2-0.1,1.9-0.3,3.7-0.8c1.6-0.5,2.5-0.7,4.2-0.9C156.1,46.9,156.4,47.7,156.4,48.4z"></path>
	</g>
	<g>
		<polygon fill="#333333" points="74.2,14 75.2,16 77.4,16.4 75.8,17.9 76.2,20.1 74.2,19.1 72.2,20.1 72.6,17.9 71,16.4 73.2,16       "></polygon>
	</g>
	<g>
		<polygon fill="#333333" points="83.1,14 84.1,16 86.4,16.4 84.7,17.9 85.1,20.1 83.1,19.1 81.2,20.1 81.5,17.9 79.9,16.4 82.1,16       "></polygon>
	</g>
	<g>
		<polygon fill="#333333" points="92.1,14 93.1,16 95.3,16.4 93.7,17.9 94.1,20.1 92.1,19.1 90.1,20.1 90.5,17.9 88.9,16.4 91.1,16       "></polygon>
	</g>
	<g>
		<polygon fill="#333333" points="101.1,14 102.1,16 104.3,16.4 102.7,17.9 103.1,20.1 101.1,19.1 99.1,20.1 99.5,17.9 97.9,16.4     100.1,16   "></polygon>
	</g>
	<g>
		<polygon fill="#333333" points="110,14 111,16 113.3,16.4 111.6,17.9 112,20.1 110,19.1 108,20.1 108.4,17.9 106.8,16.4 109,16       "></polygon>
	</g>
</g>
</svg>