<?xml version="1.0" encoding="utf-8"?>
<!-- Generator: Adobe Illustrator 18.0.0, SVG Export Plug-In . SVG Version: 6.00 Build 0)  -->
<!DOCTYPE svg PUBLIC "-//W3C//DTD SVG 1.1//EN" "http://www.w3.org/Graphics/SVG/1.1/DTD/svg11.dtd">
<svg version="1.1" id="Layer_1" xmlns="http://www.w3.org/2000/svg" xmlns:xlink="http://www.w3.org/1999/xlink" x="0px" y="0px"
	 viewBox="0 0 190 90" enable-background="new 0 0 190 90" xml:space="preserve">
<g>
	<g>
		<g>
			<path fill="#231F20" d="M21.7,34.2h9.4v3.6c0.9-2.7,2.8-4,5.7-4s4.7,1.4,5.3,4.2c0.9-2.8,2.8-4.2,5.7-4.2c3.8,0,5.7,2.2,5.7,6.5
				v11.8h2.2v0.7H45v-0.7h1.4V39.4c0-2-0.2-3.1-0.5-3.5c-0.2-0.2-0.4-0.2-0.6-0.2c-0.8,0-1.4,0.5-2,1.5c-0.6,1-0.9,2.3-0.9,3.9v11
				h1.4v0.7h-10v-0.7h1.4V39.4c0-2-0.2-3.1-0.5-3.5c-0.2-0.2-0.4-0.2-0.6-0.2c-0.7,0-1.4,0.6-2,1.7c-0.6,1.1-0.9,2.4-0.9,4v10.8h1.4
				v0.7H21.7v-0.7h2.1V34.9h-2.1V34.2z"/>
			<path fill="#231F20" d="M65.8,43.7h1.1v-3c0-2.5-0.1-4.1-0.4-5c-0.3-0.8-0.8-1.3-1.6-1.3c-0.5,0-0.9,0.1-1.3,0.4
				c-0.4,0.2-0.6,0.6-0.6,1c0,0.4,0.1,0.9,0.2,1.3h1c0.2,0.5,0.3,1.2,0.3,2c0,0.8-0.3,1.4-1,2c-0.7,0.6-1.5,0.8-2.5,0.8
				c-2.2,0-3.4-1.1-3.4-3.2c0-3.2,2.7-4.8,8.2-4.8c3.1,0,5.2,0.5,6.4,1.6c1.2,1.1,1.8,3,1.8,5.8v7.9c0,1.4,0.4,2,1.1,2
				c0.9,0,1.4-1.3,1.6-4l0.6,0c-0.1,2.3-0.5,3.9-1.3,4.7c-0.8,0.9-2,1.3-3.7,1.3c-3.1,0-4.9-1-5.4-2.9c-0.3,1-0.8,1.7-1.5,2.2
				c-0.7,0.5-1.7,0.7-3,0.7c-3.9,0-5.8-1.6-5.8-4.7c0-1.8,0.7-3.1,2.2-3.8C60.5,44,62.7,43.7,65.8,43.7z M64.2,48.5
				c0,1.4,0.1,2.2,0.2,2.6c0.1,0.4,0.4,0.6,0.8,0.6c0.4,0,0.8-0.3,1.1-1c0.4-0.7,0.5-1.6,0.5-2.8v-3.6h-0.3c-1.6,0-2.4,1.2-2.4,3.6
				V48.5L64.2,48.5z"/>
			<path fill="#231F20" d="M91.7,37.3c0.7-1.3,0.4-2-0.8-2c-1,0-1.8,0.6-2.5,1.9c-0.7,1.3-1.1,2.7-1.1,4.5v10.5H90v0.7H77.8v-0.7H80
				V34.9h-2.1v-0.7h9.4V38c0.3-1.3,1-2.4,2-3.1c1-0.7,2.1-1.1,3.3-1.1c1.2,0,2.2,0.3,3,1c0.8,0.7,1.2,1.7,1.2,2.9
				c0,1.3-0.3,2.2-0.9,2.9c-0.6,0.7-1.5,1-2.6,1c-1.2,0-2.1-0.4-2.6-1.2c-0.6-0.8-0.6-1.9-0.2-3.2H91.7L91.7,37.3z"/>
		</g>
		<g>
			<path fill="#231F20" d="M99.1,47.2V34.9H97v-0.7h2.1v-5l7.3-1.8v6.8h5.1v0.7h-5.1v13.2c0,1.2,0.1,2.1,0.4,2.7
				c0.2,0.6,0.8,0.9,1.5,0.9c0.8,0,1.5-0.4,2.1-1.2c0.6-0.8,1-1.8,1.2-3.2l0.7,0.1c-0.2,1.8-0.8,3.2-1.7,4.3
				c-0.9,1.1-2.5,1.6-4.7,1.6c-2.2,0-3.8-0.4-5-1.3C99.7,51.1,99.1,49.5,99.1,47.2z"/>
		</g>
		<g>
			<path fill="#231F20" d="M112,34.9v-0.7h11.3v0.7h-2.1l4.3,13l4.5-13h-2.6v-0.7h5.5v0.7h-2L123.6,56c-0.9,2.4-1.8,4.2-2.9,5.1
				c-1.1,1-2.4,1.5-3.9,1.5c-1.5,0-2.7-0.4-3.6-1.1c-0.9-0.7-1.3-1.6-1.3-2.7s0.3-1.9,0.9-2.5c0.6-0.6,1.3-0.9,2.3-0.9
				c2.2,0,3.2,0.9,3.2,2.7c0,0.4-0.1,0.9-0.2,1.4h-1.4c-0.2,0.6-0.2,1.1-0.1,1.5c0.2,0.4,0.5,0.6,1.1,0.6c1.1,0,2-0.5,2.9-1.6
				c0.8-1.1,1.6-2.7,2.4-4.8l0.9-2.4h-3.4l-6.7-17.9H112z"/>
			<path fill="#231F20" d="M133.1,34.2h9.4v3.6c0.4-1.2,1.1-2.2,1.9-2.9c0.9-0.7,2.2-1.1,3.9-1.1c4,0,6.1,2.2,6.1,6.5v11.8h2.2v0.7
				h-11.1v-0.7h1.6V39.4c0-1.6-0.1-2.6-0.3-3c-0.2-0.5-0.6-0.7-1.1-0.7c-0.8,0-1.6,0.5-2.2,1.6c-0.6,1.1-1,2.4-1,4v10.8h1.7v0.7
				h-11.1v-0.7h2.1V34.9h-2.1V34.2z"/>
		</g>
	</g>
	<path fill="#231F20" d="M120.1,31.1c0,0,74.5-8.2,38.3,6.1C158.4,37.2,176.3,28.2,120.1,31.1z"/>
</g>
</svg>
