<svg xmlns="http://www.w3.org/2000/svg" xmlns:xlink="http://www.w3.org/1999/xlink" id="Layer_1" x="0px" y="0px" viewBox="0 0 190 90" xml:space="preserve">
<g>
	<path fill="#333333" d="M53.8,73.3L53.3,74c-0.4-0.4-1-0.7-1.6-0.7c-1.1,0-2,0.9-2,2s0.9,2,2,2c0.6,0,1.1-0.3,1.6-0.7l0.6,0.6   c-0.6,0.6-1.4,0.9-2.2,0.9c-1.6,0-2.9-1.2-2.9-2.8c0-1.6,1.3-2.8,2.9-2.8C52.5,72.4,53.3,72.8,53.8,73.3z"></path>
	<path fill="#333333" d="M58.9,76.4c-0.1,0-0.2,0-0.3,0h-1.3v1.7h-0.9v-5.6h2.3c1.4,0,2.3,0.7,2.3,1.9c0,0.9-0.4,1.5-1.2,1.8   l1.3,1.9h-1.1L58.9,76.4z M58.7,75.5c0.9,0,1.4-0.4,1.4-1.1c0-0.7-0.5-1.1-1.4-1.1h-1.3v2.2H58.7z"></path>
	<path fill="#333333" d="M69.3,75.3c0,1.6-1.3,2.8-3,2.8s-3-1.2-3-2.8c0-1.6,1.3-2.8,3-2.8S69.3,73.7,69.3,75.3z M64.3,75.3   c0,1.1,0.9,2,2,2c1.1,0,2-0.9,2-2c0-1.1-0.9-2-2-2C65.2,73.3,64.3,74.2,64.3,75.3z"></path>
	<path fill="#333333" d="M76.6,78.1l-1.3-4.4l-1.3,4.4h-1l-1.9-5.6h1l1.4,4.5l1.4-4.5l0.9,0l1.4,4.5l1.4-4.5h1l-1.9,5.6H76.6z"></path>
	<path fill="#333333" d="M85.6,78.1l-3-4v4h-0.9v-5.6h0.9l3,4v-4h0.9v5.6H85.6z"></path>
	<path fill="#333333" d="M93.4,73L93,73.8c-0.6-0.4-1.2-0.5-1.6-0.5c-0.6,0-0.9,0.2-0.9,0.6c0,1.2,3,0.6,3,2.6c0,1-0.9,1.6-2.1,1.6   c-0.9,0-1.7-0.4-2.3-0.9l0.4-0.8c0.6,0.5,1.3,0.8,1.9,0.8c0.7,0,1-0.2,1-0.7c0-1.2-3-0.6-3-2.5c0-1,0.8-1.6,2-1.6   C92.2,72.4,92.9,72.7,93.4,73z"></path>
	<path fill="#333333" d="M98.2,73.3v4.7h-0.9v-4.7h-1.8v-0.8h4.5v0.8H98.2z"></path>
	<path fill="#333333" d="M104.9,76.4c-0.1,0-0.2,0-0.3,0h-1.3v1.7h-0.9v-5.6h2.3c1.4,0,2.3,0.7,2.3,1.9c0,0.9-0.4,1.5-1.2,1.8   l1.3,1.9H106L104.9,76.4z M104.7,75.5c0.9,0,1.4-0.4,1.4-1.1c0-0.7-0.5-1.1-1.4-1.1h-1.3v2.2H104.7z"></path>
	<path fill="#333333" d="M110.7,73.3v1.5h2.7v0.8h-2.7v1.5h3.2v0.8h-4.1v-5.6h4v0.8H110.7z"></path>
	<path fill="#333333" d="M117.6,73.3v1.5h2.7v0.8h-2.7v1.5h3.2v0.8h-4.1v-5.6h4v0.8H117.6z"></path>
	<path fill="#333333" d="M125.5,73.3v4.7h-0.9v-4.7h-1.8v-0.8h4.5v0.8H125.5z"></path>
	<path fill="#333333" d="M136.7,73.8c0,0.6-0.4,1.2-1,1.8l-1.5,1.5h2.7v0.8h-4v-0.7l2.1-2.2c0.4-0.4,0.7-0.9,0.7-1.2   c0-0.4-0.4-0.7-0.9-0.7c-0.5,0-1.1,0.3-1.5,0.7l-0.4-0.7c0.6-0.5,1.3-0.8,2-0.8C136,72.4,136.7,73,136.7,73.8z"></path>
	<path fill="#333333" d="M141.1,78.1h-1l2.2-4.7h-2.2l0,0.8h-0.8v-1.6h4.1v0.7L141.1,78.1z"></path>
</g>
<g>
	<path fill="#333333" d="M42,32.8l-8.6,24.5h-1l-8.6-24.5h-2.4v-0.7h10.4v0.7h-2.6l6,17.2l6-17.2h-2.5v-0.7h5.8v0.7H42z"></path>
	<path fill="#333333" d="M57.1,57.3H46.3v-0.7h2.9V32.8h-2.9v-0.7h7.2h3.6v0.7h-2.9v23.8h2.9V57.3z"></path>
	<path fill="#333333" d="M58.9,56.6h2.9V32.8h-2.9v-0.7h7.5L79.8,56V32.8h-2.9v-0.7h6.1v0.7h-2.5v24.5h-5.1l-12.9-23v22.3h2.9v0.7   h-6.5V56.6z"></path>
	<path fill="#333333" d="M84.9,32.1h19.4v5h-0.7v-4.3h-6.5v23.8h2.9v0.7H89.2v-0.7h2.9V32.8h-6.5v4.3h-0.7V32.1z"></path>
	<path fill="#333333" d="M104.6,56.6l8.6-24.5h1l8.6,24.5h2.4v0.7h-10.4v-0.7h2.6l-2.3-6.4h-7.6l-2.2,6.4h2.5v0.7H102v-0.7H104.6z    M107.9,49.4h7l-3.5-10L107.9,49.4z"></path>
	<path fill="#333333" d="M147.6,57.3h-7.9v-1c-0.8,0.5-1.7,0.8-2.6,1c-0.9,0.2-1.8,0.4-2.8,0.4c-1.6,0-3.2-0.3-4.6-1   c-1.4-0.7-2.7-1.6-3.8-2.8c-1.1-1.2-1.9-2.5-2.6-4.1c-0.6-1.6-0.9-3.3-0.9-5.1c0-1.8,0.3-3.5,0.9-5.1c0.6-1.6,1.5-2.9,2.6-4.1   c1.1-1.2,2.3-2.1,3.8-2.8c1.4-0.7,3-1,4.6-1c2,0,3.9,0.5,5.6,1.5c1.7,1,3.1,2.4,4.2,4v-5.2h0.7l0.1,7.2H144v-0.5   c-0.5-0.9-1.1-1.8-1.7-2.6c-0.7-0.8-1.4-1.4-2.3-2c-0.8-0.6-1.7-1-2.7-1.3c-1-0.3-2-0.5-3-0.5c-1.2,0-2.2,0.2-3.3,0.5   c-1,0.4-2,0.9-2.9,1.5v20.4c0.9,0.6,1.8,1.1,2.9,1.5c1,0.3,2.1,0.5,3.3,0.5c1,0,1.9-0.1,2.8-0.4c0.9-0.3,1.8-0.6,2.6-1.1V45.1h-2.9   v-0.7h10.8v0.7h-2.9v11.5h2.9V57.3z"></path>
	<path fill="#333333" d="M149.4,56.6h2.9V32.8h-2.9v-0.7h19.4v7.2h-0.7v-6.5h-10.8v11.5h6.5v-3.4h0.7v7.9h-0.7v-3.8h-6.5v11.5h10.8   v-6.5h0.7v7.2h-19.4V56.6z"></path>
</g>
<g>
	<path fill="#333333" d="M69.3,16.3c0,1.1-0.7,1.8-1.7,1.8c-0.7,0-1.2-0.3-1.6-0.8l0.4-0.7c0.4,0.4,0.8,0.6,1.2,0.6   c0.5,0,0.8-0.3,0.8-0.9v-3h-1.9v-0.8h2.9V16.3z"></path>
	<path fill="#333333" d="M73.2,13.3v1.5h2.7v0.8h-2.7v1.5h3.2v0.8h-4.1v-5.6h4v0.8H73.2z"></path>
	<path fill="#333333" d="M83.9,18.1l-1.3-4.4l-1.3,4.4h-1l-1.9-5.6h1l1.4,4.5l1.4-4.5l0.9,0l1.4,4.5l1.4-4.5h1l-1.9,5.6H83.9z"></path>
	<path fill="#333333" d="M89.9,13.3v1.5h2.7v0.8h-2.7v1.5h3.2v0.8H89v-5.6h4v0.8H89.9z"></path>
	<path fill="#333333" d="M99.2,17.2v0.9h-3.4v-5.6h0.9v4.7H99.2z"></path>
	<path fill="#333333" d="M105.1,17.2v0.9h-3.4v-5.6h0.9v4.7H105.1z"></path>
	<path fill="#333333" d="M108.5,13.3v1.5h2.7v0.8h-2.7v1.5h3.2v0.8h-4.1v-5.6h4v0.8H108.5z"></path>
	<path fill="#333333" d="M116.9,16.4c-0.1,0-0.2,0-0.3,0h-1.3v1.7h-0.9v-5.6h2.3c1.4,0,2.3,0.7,2.3,1.9c0,0.9-0.4,1.5-1.2,1.8   l1.3,1.9H118L116.9,16.4z M116.7,15.5c0.9,0,1.4-0.4,1.4-1.1c0-0.7-0.5-1.1-1.4-1.1h-1.3v2.2H116.7z"></path>
	<path fill="#333333" d="M124,18.1h-0.9v-1.8l-2.1-3.8h1l1.6,2.7l1.6-2.7h1l-2.1,3.7V18.1z"></path>
</g>
</svg>