<svg xmlns="http://www.w3.org/2000/svg" xmlns:xlink="http://www.w3.org/1999/xlink" id="Layer_1" x="0px" y="0px" viewBox="0 0 190 90" xml:space="preserve">
<g>
	<g>
		<path fill="#333333" d="M37.7,52.4c-0.7-0.1-1.4-0.2-2.1-0.4c-3.9,7.2-8.5,13.5-13.2,13.5c-1.9,0-2.9-1.6-2.9-3.2    c0-4.5,2.8-9,9-13.5c-3.9-3.1-4.9-7.4-4.9-11.2c0-12.7,11.8-22,19.2-22c2.4,0,4.2,1,4.2,5.3c0,3.3-1.2,8.4-4.4,15.8    c-0.7,1.6-1.5,3.5-2.4,5.4c0.9-0.3,1.8-0.8,2.7-1.2l0.4,1c-1.3,0.5-2.5,1.1-3.8,1.7c-1,2.3-2.2,4.8-3.5,7.2    c0.6,0.1,1.2,0.3,1.9,0.4L37.7,52.4z M33.9,51.5c-1.6-0.5-2.9-1.1-4-1.8c-4.5,3.5-7.4,7.5-7.4,11.7c0,1.3,0.7,1.6,1.3,1.6    c1.8,0,4.5-2.2,7.7-7C32.3,54.7,33.1,53.2,33.9,51.5z M30,47.9c2.1-1.4,4.4-2.7,7.1-4.1c1.2-3.2,2.3-6.2,3.1-8.4    c2.8-7,5-13.1,5-16.3c0-1.8-0.6-2.5-2.1-2.5c-6.2,0-16.1,10.3-16.1,21C27,43,28,46,30,47.9z M34.4,50.4c0.7-1.6,1.4-3.3,2.1-5    c-2,1.1-3.8,2.2-5.5,3.4C32,49.5,33.1,50,34.4,50.4z"></path>
		<path fill="#333333" d="M55.9,47c0,0.3,0.2,0.4,0.5,0.4c0.4,0,1.1-0.4,1.8-1.3l4.4-5.4l0.6,0.5l-5.3,6.5c-1.6,1.9-2.6,2.4-3.8,2.4    c-1,0-1.7-0.6-1.7-1.5c0-0.9,0.4-1.9,1.1-3.4c0.7-1.7,2.7-6.5,2.7-6.8c0-0.1,0-0.2-0.1-0.2c-0.1,0-0.3,0.1-0.4,0.3    c-0.6,0.7-5.1,7.3-6.8,9.1c-1.5,1.5-2.6,2.4-3.8,2.4c-0.8,0-2-0.5-2-2.7c0-4.9,7.1-13.9,14.1-14.6v0.4C51.3,35,46.6,43,46.6,46.2    c0,0.6,0.2,1,0.5,1c1,0,5.4-5.6,8.1-9.3c2.8-3.8,3.5-4.8,4.7-4.8c0.6,0,0.9,0.4,0.9,0.9c0,0.4-0.1,0.9-0.3,1.3    c-0.4,0.8-3.9,9.7-4.5,10.9C56,46.4,55.9,46.7,55.9,47z"></path>
		<path fill="#333333" d="M67.9,36.2c0-0.2-0.1-0.3-0.2-0.3c-0.2,0-0.3,0.1-0.4,0.3L62.4,42l-0.6-0.4l5.4-6.7c0.8-1,1.7-2,2.7-2    c0.9,0,1.3,0.6,1.3,1.2c0,0.6-0.2,1.4-0.6,2.2l-3.3,7.8c-0.1,0.2-0.1,0.4-0.1,0.5c0,0.1,0.1,0.2,0.2,0.2c0.1,0,0.3-0.1,0.6-0.5    l5-7.4c2-3,3.1-4.2,4.5-4.2c1.2,0,1.9,0.5,1.9,1.4c0,0.5-0.2,1.2-0.3,1.6l-4.2,10.2c-0.1,0.3-0.2,0.6-0.2,0.9    c0,0.3,0.2,0.4,0.5,0.4c0.4,0,1.1-0.4,1.8-1.3l4.4-5.4l0.6,0.5l-5.3,6.5c-1.6,1.9-2.6,2.4-3.8,2.4c-1,0-1.7-0.6-1.7-1.5    c0-0.8,0.4-1.8,1.1-3.4l3.9-9.1c0-0.1,0-0.2,0-0.3c0-0.3-0.2-0.5-0.4-0.5c-0.2,0-0.6,0.1-0.9,0.6l-7.9,11.7    c-1.3,1.9-2.2,2.5-3,2.5c-0.7,0-1.1-0.3-1.1-1c0-0.7,0.4-1.8,1-3.3l4-9.3C67.9,36.4,67.9,36.3,67.9,36.2z"></path>
		<path fill="#333333" d="M94.8,41l0.6,0.4c-6.7,8.5-9.9,8.7-11.5,8.7c-1.5,0-4.1-0.7-4.1-4C79.9,39,87.5,33,91.1,33    c1.7,0,2.4,1.1,2.4,2.7c0,4.3-6.1,8-10.2,8.1c-0.4,1.2-0.7,2.3-0.7,3.2c0,1.7,0.8,2.2,1.7,2.2C86.6,49.2,89.6,47.4,94.8,41z     M83.5,43.1c4.5-0.7,7.6-5.1,7.6-8c0-0.8-0.3-1.1-0.8-1.1C88.6,34,85.1,38.8,83.5,43.1z"></path>
		<path fill="#333333" d="M115.1,47.1c-1.9,2.3-3.9,3.4-6.2,3.4c-1.7,0-3.7-1-3.7-3.4c0-2.5,2.2-4.7,5.3-4.7c1.3,0,2.5,0.7,3.7,1.7    c1-2,2-4.5,3.3-7.6l3.1-7.4h-2.8c-3.2,0-6.5-1.3-6.5-4.4c0-4.4,5.9-8.8,15.2-8.8c6.9,0,13.7,5.1,13.7,13.9    c0,9.2-7.7,20.7-17.6,20.7C119.2,50.6,117,48.8,115.1,47.1z M113.4,45.5c-1.1-1-2.2-1.8-3.3-1.8c-2.4,0-3.7,1.9-3.7,3.3    c0,1.4,0.9,2.3,2.3,2.3C110.6,49.3,111.9,48.1,113.4,45.5z M123.6,29.1L119,40.1c-1,2.3-1.9,4.1-2.9,5.6c1.9,1.7,3.8,3.4,6.4,3.4    c8.2,0,14.3-11.3,14.3-20.2c0-6.8-3.3-12.2-10.7-12.2c-7.3,0-12.1,3.7-12.1,7.1c0,1.8,1,3,4.6,3h2.9l3.5-8.4h3.1l-3.5,8.4h7.7    l-0.9,2.2H123.6z"></path>
		<path fill="#333333" d="M156.7,41.5c-2,2.6-3.6,3.5-5.2,3.7c-1.9,2.8-4.7,5-7.6,5c-2.3,0-4.6-1.6-4.6-4.9c0-5.2,3.8-10.3,9.4-12.4    l0.2,0.3c-4.9,4.3-7,10-7,13.7c0,1.2,0.5,2.3,1.6,2.3c1.4,0,3.4-2,5.1-4.5c-1.6-0.8-2.2-2.5-2.2-4.3c0-3.4,2.7-6.7,4.8-6.7    c1.2,0,2.9,0.9,2.9,4c0,2-0.8,4.4-2.1,6.6c1.2-0.2,2.3-1.1,4.1-3.3L156.7,41.5z M148.9,44c1.7-2.8,3-6,3-8.1c0-1-0.7-1.2-1.2-1.2    c-1.2,0-3.6,2.7-3.6,5.6C147.2,42,147.8,43.3,148.9,44z"></path>
		<path fill="#333333" d="M169.8,41l0.6,0.4c-6.7,8.5-9.9,8.7-11.5,8.7c-1.5,0-4.1-0.7-4.1-4c0-7.1,7.7-13.2,11.2-13.2    c1.7,0,2.4,1.1,2.4,2.7c0,4.3-6.1,8-10.2,8.1c-0.4,1.2-0.7,2.3-0.7,3.2c0,1.7,0.8,2.2,1.7,2.2C161.6,49.2,164.6,47.4,169.8,41z     M158.5,43.1c4.5-0.7,7.6-5.1,7.6-8c0-0.8-0.3-1.1-0.8-1.1C163.6,34,160.1,38.8,158.5,43.1z"></path>
	</g>
	<g>
		<path fill="#333333" d="M37.4,67.7c0.1,0,0.2,0,0.3,0c0.1,0,0.3,0,0.5,0.1c0.2,0,0.3,0.1,0.5,0.1c0.2,0.1,0.3,0.1,0.5,0.2    c0.1,0.1,0.3,0.2,0.4,0.3c0.1,0.1,0.1,0.3,0.1,0.4c0,0.3-0.1,0.7-0.2,0.9c-0.2,0.3-0.4,0.5-0.6,0.7c-0.3,0.2-0.6,0.3-0.9,0.5    c-0.3,0.1-0.7,0.2-1,0.3c-0.3,0.1-0.6,0.1-0.9,0.2c-0.3,0-0.6,0-0.8,0l0,2.2c0,0,0,0.1-0.1,0.1c-0.1,0-0.1,0-0.2,0    c-0.1,0-0.2,0-0.2,0c-0.1,0-0.1,0-0.2,0c0-0.4,0-0.7,0-1.1c0-0.4,0-0.7,0-1.1c0-0.5,0.1-0.9,0.1-1.3c0-0.4,0-0.7,0.1-1    s0.1-0.5,0.2-0.7c0.1-0.2,0.3-0.3,0.5-0.4c0.2-0.1,0.5-0.2,0.8-0.2C36.5,67.8,36.9,67.7,37.4,67.7z M35.4,69.3c0,0.1,0,0.2,0,0.3    c0,0.1,0,0.2-0.1,0.3c0,0.1,0,0.2,0,0.3c0,0.1,0,0.2,0,0.3c0,0.1,0.1,0.2,0.1,0.2c0.1,0,0.2,0.1,0.3,0c0.1,0,0.3,0,0.5,0    c0.2,0,0.4,0,0.7-0.1c0.2,0,0.5-0.1,0.7-0.2c0.2-0.1,0.5-0.2,0.7-0.3c0.2-0.1,0.4-0.3,0.5-0.4c0.1-0.2,0.2-0.4,0.2-0.6    c0-0.2-0.1-0.3-0.2-0.4c-0.1-0.1-0.3-0.2-0.4-0.3c-0.2-0.1-0.4-0.1-0.6-0.1c-0.2,0-0.4,0-0.6,0c-0.2,0-0.4,0-0.6,0.1    c-0.2,0.1-0.4,0.1-0.5,0.2c-0.2,0.1-0.3,0.2-0.4,0.3C35.4,69,35.4,69.2,35.4,69.3z"></path>
		<path fill="#333333" d="M46,71.1c-0.1,0-0.2,0-0.2-0.1c-0.1,0-0.1-0.1-0.1-0.2c0-0.1,0-0.1,0.1-0.2c0-0.1,0.1-0.1,0.1-0.2    c0.1-0.1,0.1-0.1,0.1-0.2c0-0.1,0.1-0.2,0.1-0.3c0-0.1,0-0.2,0-0.3c0-0.1,0-0.3,0-0.5c0-0.2,0-0.4,0-0.6c0-0.2,0-0.4,0-0.6    c0-0.2,0-0.3,0-0.5c0-0.1,0-0.2,0-0.3c0,0,0.1-0.1,0.1-0.1c0.1-0.1,0.1-0.1,0.2-0.1c0.1,0,0.1,0,0.2,0c0.1,0,0.1,0.1,0.1,0.1    l-0.1,3c0,0,0.1,0,0.2,0c0.1,0,0.2,0,0.4,0c0.2,0,0.3,0,0.5,0c0.2,0,0.4,0,0.6-0.1c0.2,0,0.4-0.1,0.5-0.1c0.2,0,0.3-0.1,0.4-0.1    v-3.1c0,0,0-0.1,0.1-0.1c0.1,0,0.1,0,0.2-0.1c0.1,0,0.1,0,0.2,0s0.1,0,0.2,0c0,0.1,0,0.3,0,0.6c0,0.3,0,0.5,0,0.8c0,0.3,0,0.6,0,1    c0,0.3,0,0.7,0,1c0,0.3,0,0.6,0,0.8c0,0.3,0,0.4,0,0.6c0,0.3,0.1,0.7,0.1,1c0.1,0.3,0.2,0.6,0.3,0.9c-0.1,0-0.2,0.1-0.4,0.1    c-0.1,0-0.3,0-0.5,0c-0.2-0.4-0.3-0.9-0.3-1.4c-0.1-0.5-0.1-1-0.1-1.5c-0.2,0-0.5,0-0.7,0c-0.2,0-0.4,0-0.6,0    c-0.2,0-0.4,0-0.6,0.1c-0.2,0-0.4,0.1-0.7,0.2c0,0.4,0,0.8,0,1.2c0,0.4,0.1,0.8,0.2,1.2l-0.7,0.4L46,71.1z"></path>
		<path fill="#333333" d="M56.8,70.8c0-0.4,0.1-0.8,0.2-1.2c0.1-0.4,0.3-0.7,0.6-0.9c0.2-0.3,0.5-0.5,0.8-0.6    c0.3-0.1,0.7-0.2,1.1-0.2c0.4,0,0.7,0,1.1,0.2c0.3,0.1,0.6,0.3,0.9,0.5c0.3,0.2,0.5,0.5,0.6,0.8c0.2,0.3,0.2,0.7,0.2,1.2    c0,1.1-0.2,1.8-0.7,2.4c-0.4,0.5-1.1,0.8-2.1,0.8c-0.4,0-0.8-0.1-1.1-0.2c-0.3-0.1-0.6-0.3-0.9-0.5c-0.2-0.2-0.4-0.5-0.6-0.8    C56.9,71.7,56.8,71.3,56.8,70.8z M57.5,70.6c0,0.8,0.2,1.3,0.5,1.7c0.3,0.4,0.9,0.6,1.5,0.6c0.3,0,0.7-0.1,0.9-0.2    c0.3-0.1,0.5-0.3,0.7-0.5c0.2-0.2,0.4-0.5,0.5-0.8c0.1-0.3,0.2-0.6,0.2-1s-0.1-0.7-0.2-0.9c-0.1-0.3-0.3-0.5-0.5-0.6    c-0.2-0.2-0.5-0.3-0.8-0.4c-0.3-0.1-0.6-0.1-0.9-0.1c-0.3,0-0.5,0.1-0.7,0.2c-0.2,0.1-0.4,0.3-0.6,0.5c-0.2,0.2-0.3,0.4-0.4,0.7    C57.6,70.1,57.5,70.3,57.5,70.6z"></path>
		<path fill="#333333" d="M70.3,68.9l-1.9-0.1c0,0,0,0-0.1,0c0,0,0-0.1,0-0.1c0,0,0-0.1,0-0.1c0,0,0-0.1,0-0.1c0-0.1,0-0.2,0.1-0.3    c0.1-0.1,0.1-0.1,0.2-0.1c0.4,0,0.8,0.1,1.3,0.1c0.4,0,0.9,0.1,1.3,0.1c0.4,0,0.9,0,1.3,0c0.4,0,0.8-0.1,1.3-0.2    c0,0,0.1,0,0.1,0.1c0,0.1,0,0.1,0.1,0.2c0,0.1,0,0.1,0,0.2c0,0.1,0,0.1,0,0.2c-0.3,0.1-0.5,0.1-0.8,0.2c-0.2,0-0.4,0-0.6,0    c-0.2,0-0.4,0-0.6,0c-0.2,0-0.5,0-0.7,0.1c0,0.2,0,0.4,0,0.6c0,0.2,0,0.5-0.1,0.8c0,0.3,0,0.6-0.1,0.9c0,0.3,0,0.6-0.1,0.9    c0,0.3,0,0.6,0,0.8c0,0.3,0,0.5,0,0.7L70,73.7L70.3,68.9z"></path>
		<path fill="#333333" d="M79.7,70.8c0-0.4,0.1-0.8,0.2-1.2c0.1-0.4,0.3-0.7,0.6-0.9c0.2-0.3,0.5-0.5,0.8-0.6    c0.3-0.1,0.7-0.2,1.1-0.2c0.4,0,0.7,0,1.1,0.2c0.3,0.1,0.6,0.3,0.9,0.5c0.3,0.2,0.5,0.5,0.6,0.8c0.2,0.3,0.2,0.7,0.2,1.2    c0,1.1-0.2,1.8-0.7,2.4c-0.4,0.5-1.1,0.8-2.1,0.8c-0.4,0-0.8-0.1-1.1-0.2c-0.3-0.1-0.6-0.3-0.9-0.5c-0.2-0.2-0.4-0.5-0.6-0.8    C79.8,71.7,79.7,71.3,79.7,70.8z M80.4,70.6c0,0.8,0.2,1.3,0.5,1.7c0.3,0.4,0.9,0.6,1.5,0.6c0.3,0,0.7-0.1,0.9-0.2    c0.3-0.1,0.5-0.3,0.7-0.5c0.2-0.2,0.4-0.5,0.5-0.8c0.1-0.3,0.2-0.6,0.2-1s-0.1-0.7-0.2-0.9c-0.1-0.3-0.3-0.5-0.5-0.6    c-0.2-0.2-0.5-0.3-0.8-0.4c-0.3-0.1-0.6-0.1-0.9-0.1c-0.3,0-0.5,0.1-0.7,0.2c-0.2,0.1-0.4,0.3-0.6,0.5c-0.2,0.2-0.3,0.4-0.4,0.7    C80.5,70.1,80.4,70.3,80.4,70.6z"></path>
		<path fill="#333333" d="M94.9,72.8c-0.2,0.2-0.4,0.3-0.6,0.4c-0.2,0.1-0.4,0.2-0.6,0.3c-0.2,0.1-0.4,0.1-0.7,0.1    c-0.2,0-0.4-0.1-0.6-0.2c-0.2-0.1-0.4-0.2-0.5-0.4c-0.2-0.2-0.3-0.4-0.4-0.6c-0.1-0.2-0.1-0.5-0.1-0.7c0-0.3,0.1-0.7,0.1-1    c0.1-0.4,0.2-0.7,0.3-1c0.1-0.3,0.3-0.6,0.5-0.9c0.2-0.3,0.4-0.5,0.7-0.8c0.2-0.2,0.5-0.4,0.8-0.5c0.3-0.1,0.6-0.2,1-0.2    c0.1,0,0.1,0,0.2,0c0.1,0,0.1,0,0.2,0c0.1,0,0.1,0,0.2,0.1c0,0,0.1,0.1,0,0.2c-0.5,0-0.9,0.1-1.3,0.4c-0.4,0.2-0.8,0.5-1.1,0.9    c-0.3,0.4-0.5,0.8-0.7,1.3c-0.2,0.5-0.3,1-0.3,1.5c0,0.2,0,0.4,0.1,0.6c0.1,0.2,0.1,0.3,0.3,0.4c0.1,0.1,0.2,0.2,0.4,0.2    C93,73,93.1,73,93.3,73c0.1,0,0.2,0,0.3-0.1c0.1,0,0.3-0.1,0.5-0.2c0.2-0.1,0.3-0.1,0.5-0.2c0.2-0.1,0.3-0.2,0.5-0.3    c0.1-0.1,0.2-0.2,0.3-0.3c0.1-0.1,0.1-0.2,0.1-0.4v-1.4c-0.1,0-0.2,0-0.3,0c-0.1,0-0.3,0-0.4,0.1c-0.2,0-0.3,0.1-0.5,0.1    c-0.2,0-0.3,0.1-0.5,0.1c-0.2,0-0.3,0.1-0.4,0.1c-0.1,0-0.2,0-0.3,0.1c0,0-0.1,0-0.1-0.1c0,0-0.1-0.1-0.1-0.1c0,0,0-0.1,0.1-0.2    c0.1-0.1,0.2-0.2,0.3-0.3c0,0,0.1,0,0.2,0c0.1,0,0.3-0.1,0.4-0.1c0.2,0,0.4-0.1,0.6-0.1c0.2,0,0.4-0.1,0.7-0.1    c0.2,0,0.4-0.1,0.6-0.1c0.2,0,0.4-0.1,0.5-0.1c0.1,0,0.1,0,0.2,0c0.1,0,0.2,0,0.2,0c0.1,0,0.1,0,0.2,0.1c0.1,0,0.1,0.1,0.1,0.3    l-0.7,0.3c0,0.2-0.1,0.3-0.1,0.5c0,0.2,0,0.4,0,0.7s0,0.5,0,0.7c0,0.3,0,0.5,0,0.7c0,0.2,0,0.5,0,0.7c0,0.2,0,0.4,0,0.6    c0,0-0.1,0-0.2,0.1c-0.1,0-0.2,0-0.2,0.1c-0.1,0-0.2,0-0.2,0c-0.1,0-0.1-0.1-0.1-0.1v-1.8C95.3,72.5,95.1,72.6,94.9,72.8z"></path>
		<path fill="#333333" d="M104.3,73.4c0,0.1,0,0.1-0.1,0.1c0,0-0.1,0-0.1,0.1c0,0-0.1,0-0.1,0c0,0-0.1,0-0.1,0    c-0.1,0-0.2-0.1-0.3-0.2c-0.1-0.1-0.1-0.3-0.1-0.6c0-0.2,0-0.5,0-0.9c0-0.3,0-0.7,0-1.2c0-0.4,0-0.9,0-1.4c0-0.5,0-1-0.1-1.6    c0.1-0.1,0.1-0.2,0.2-0.2c0.1,0,0.1,0,0.2,0c0.1,0,0.1,0.1,0.2,0.2c0,0.1,0.1,0.1,0.1,0.2c0.1-0.2,0.3-0.3,0.6-0.4    c0.3-0.1,0.5-0.1,0.8-0.2c0.3,0,0.6,0,0.9,0c0.3,0,0.6,0.1,0.8,0.2c0.3,0.1,0.5,0.2,0.6,0.3c0.2,0.1,0.3,0.3,0.3,0.4    c0,0.2-0.1,0.3-0.2,0.5c-0.2,0.2-0.5,0.4-0.9,0.6c-0.1,0-0.2,0.1-0.3,0.1c-0.1,0.1-0.3,0.1-0.5,0.2c-0.2,0.1-0.3,0.1-0.5,0.2    c-0.2,0.1-0.4,0.1-0.5,0.2c-0.2,0.1-0.3,0.1-0.4,0.2c-0.1,0.1-0.2,0.1-0.3,0.2c0,0,0,0.1,0,0.1s0.1,0.1,0.2,0.1    c0.1,0.1,0.2,0.1,0.4,0.2c0.2,0.1,0.4,0.2,0.7,0.4c0.3,0.2,0.7,0.4,1.1,0.7c0.5,0.3,1,0.6,1.7,1.1c0,0,0.1,0,0.1,0.1    c0,0,0.1,0.1,0.1,0.1c0,0,0.1,0.1,0.1,0.1c0,0,0,0.1,0,0.1c0,0.1,0,0.1-0.1,0.2c0,0-0.1,0.1-0.2,0.1c-0.1,0-0.1,0-0.2,0    c-0.1,0-0.1,0-0.2,0c-0.1,0-0.2-0.1-0.4-0.2c-0.2-0.1-0.4-0.2-0.6-0.4c-0.2-0.2-0.5-0.4-0.7-0.6c-0.3-0.2-0.5-0.4-0.8-0.6    c-0.3-0.2-0.6-0.4-0.8-0.5c-0.3-0.2-0.5-0.3-0.7-0.4V73.4z M104.1,68.5c0,0.1-0.1,0.2-0.1,0.3c0,0.1,0,0.2,0,0.4    c0,0.1,0,0.2,0.1,0.4c0,0.1,0.1,0.2,0.1,0.2c0.1,0,0.1,0,0.3,0c0.1,0,0.3-0.1,0.5-0.2c0.2-0.1,0.4-0.1,0.6-0.2    c0.2-0.1,0.4-0.2,0.6-0.3c0.2-0.1,0.4-0.2,0.6-0.3c0.2-0.1,0.3-0.2,0.4-0.3c0.1-0.1,0.1-0.2,0-0.3c0-0.1-0.2-0.1-0.4-0.2    c-0.1,0-0.2,0-0.4,0c-0.2,0-0.3,0-0.5,0c-0.2,0-0.4,0-0.6,0c-0.2,0-0.4,0-0.6,0.1c-0.2,0-0.3,0.1-0.5,0.2    C104.3,68.4,104.2,68.5,104.1,68.5z"></path>
		<path fill="#333333" d="M115.8,73.5c0,0-0.1,0-0.1,0c-0.1,0-0.1,0-0.2,0c-0.1,0-0.1-0.1-0.2-0.1c0,0-0.1-0.1-0.1-0.1    c0-0.1,0.1-0.4,0.2-0.6c0.1-0.3,0.2-0.6,0.3-1c0.1-0.4,0.3-0.8,0.4-1.2c0.1-0.4,0.3-0.8,0.4-1.2c0.1-0.4,0.2-0.7,0.3-1    c0.1-0.3,0.2-0.5,0.2-0.7c0-0.1,0.1-0.2,0.1-0.3c0-0.1,0-0.2,0.1-0.3c0-0.1,0.1-0.1,0.1-0.2c0.1,0,0.2-0.1,0.3-0.1    c0.2,0.1,0.3,0.2,0.4,0.4c0.1,0.1,0.2,0.3,0.3,0.5c0.1,0.2,0.2,0.4,0.2,0.5c0.1,0.2,0.1,0.4,0.2,0.6c0.1,0.2,0.1,0.4,0.2,0.6    c0.1,0.2,0.2,0.4,0.3,0.5c0,0.1,0.1,0.1,0.2,0.1c0.1,0,0.2,0,0.2,0c0.1,0,0.2,0,0.3,0c0.1,0,0.2,0,0.2,0c0.1,0,0.1,0,0.2,0.1    c0,0,0.1,0.1,0.1,0.2c0,0.1,0,0.2,0,0.2c0,0.1-0.1,0.1-0.2,0.1c-0.1,0-0.1,0-0.2,0c-0.1,0-0.2,0-0.2,0c-0.1,0-0.1,0-0.2,0    c0,0-0.1,0-0.1,0.1c0.1,0.2,0.1,0.4,0.2,0.6c0.1,0.2,0.1,0.5,0.2,0.7c0.1,0.2,0.2,0.5,0.3,0.7c0.1,0.2,0.2,0.4,0.3,0.6    c0,0-0.1,0.1-0.1,0.1c-0.1,0.1-0.1,0.1-0.2,0.2c-0.1,0.1-0.1,0.1-0.2,0.1c-0.1,0-0.1,0-0.1,0l-1.2-2.9l-2.4,0.6    c0,0.1-0.1,0.2-0.1,0.4c0,0.2-0.1,0.3-0.1,0.5c-0.1,0.2-0.1,0.4-0.2,0.6C115.9,73.3,115.9,73.4,115.8,73.5z M117.7,68.1    c0,0.2-0.1,0.5-0.2,0.7c-0.1,0.2-0.2,0.5-0.3,0.7c-0.1,0.2-0.2,0.5-0.3,0.7c-0.1,0.2-0.2,0.4-0.3,0.6c0.2,0,0.3,0,0.5-0.1    c0.2,0,0.3-0.1,0.5-0.1c0.2-0.1,0.3-0.1,0.5-0.2c0.1-0.1,0.3-0.1,0.4-0.2c0-0.1,0-0.2-0.1-0.3c0-0.1-0.1-0.3-0.1-0.4    c0-0.1-0.1-0.3-0.1-0.5c0-0.2-0.1-0.3-0.2-0.4c-0.1-0.1-0.1-0.3-0.2-0.4C117.8,68.2,117.7,68.1,117.7,68.1z"></path>
		<path fill="#333333" d="M129.7,67.7c0.1,0,0.2,0,0.3,0c0.1,0,0.3,0,0.5,0.1c0.2,0,0.3,0.1,0.5,0.1c0.2,0.1,0.3,0.1,0.5,0.2    c0.1,0.1,0.3,0.2,0.4,0.3c0.1,0.1,0.1,0.3,0.1,0.4c0,0.3-0.1,0.7-0.2,0.9c-0.2,0.3-0.4,0.5-0.6,0.7c-0.3,0.2-0.6,0.3-0.9,0.5    c-0.3,0.1-0.7,0.2-1,0.3c-0.3,0.1-0.6,0.1-0.9,0.2c-0.3,0-0.6,0-0.8,0l0,2.2c0,0,0,0.1-0.1,0.1c-0.1,0-0.1,0-0.2,0s-0.2,0-0.2,0    c-0.1,0-0.1,0-0.2,0c0-0.4,0-0.7,0-1.1c0-0.4,0-0.7,0-1.1c0-0.5,0.1-0.9,0.1-1.3c0-0.4,0-0.7,0.1-1c0-0.3,0.1-0.5,0.2-0.7    c0.1-0.2,0.3-0.3,0.5-0.4c0.2-0.1,0.5-0.2,0.8-0.2C128.8,67.8,129.2,67.7,129.7,67.7z M127.6,69.3c0,0.1,0,0.2,0,0.3    c0,0.1,0,0.2-0.1,0.3c0,0.1,0,0.2,0,0.3c0,0.1,0,0.2,0,0.3c0,0.1,0.1,0.2,0.1,0.2c0.1,0,0.2,0.1,0.3,0c0.1,0,0.3,0,0.5,0    c0.2,0,0.4,0,0.7-0.1c0.2,0,0.5-0.1,0.7-0.2c0.2-0.1,0.5-0.2,0.7-0.3c0.2-0.1,0.4-0.3,0.5-0.4c0.1-0.2,0.2-0.4,0.2-0.6    c0-0.2-0.1-0.3-0.2-0.4c-0.1-0.1-0.3-0.2-0.4-0.3c-0.2-0.1-0.4-0.1-0.6-0.1c-0.2,0-0.4,0-0.6,0c-0.2,0-0.4,0-0.6,0.1    c-0.2,0.1-0.4,0.1-0.5,0.2c-0.2,0.1-0.3,0.2-0.4,0.3C127.7,69,127.7,69.2,127.6,69.3z"></path>
		<path fill="#333333" d="M138.3,71.1c-0.1,0-0.2,0-0.2-0.1c-0.1,0-0.1-0.1-0.1-0.2c0-0.1,0-0.1,0.1-0.2c0-0.1,0.1-0.1,0.1-0.2    c0.1-0.1,0.1-0.1,0.1-0.2c0-0.1,0.1-0.2,0.1-0.3c0-0.1,0-0.2,0-0.3c0-0.1,0-0.3,0-0.5c0-0.2,0-0.4,0-0.6c0-0.2,0-0.4,0-0.6    c0-0.2,0-0.3,0-0.5c0-0.1,0-0.2,0-0.3c0,0,0.1-0.1,0.1-0.1c0.1-0.1,0.1-0.1,0.2-0.1c0.1,0,0.1,0,0.2,0c0.1,0,0.1,0.1,0.1,0.1    l-0.1,3c0,0,0.1,0,0.2,0c0.1,0,0.2,0,0.4,0c0.2,0,0.3,0,0.5,0c0.2,0,0.4,0,0.6-0.1c0.2,0,0.4-0.1,0.5-0.1c0.2,0,0.3-0.1,0.4-0.1    v-3.1c0,0,0-0.1,0.1-0.1c0.1,0,0.1,0,0.2-0.1c0.1,0,0.1,0,0.2,0s0.1,0,0.2,0c0,0.1,0,0.3,0,0.6c0,0.3,0,0.5,0,0.8c0,0.3,0,0.6,0,1    c0,0.3,0,0.7,0,1s0,0.6,0,0.8c0,0.3,0,0.4,0,0.6c0,0.3,0.1,0.7,0.1,1c0.1,0.3,0.2,0.6,0.3,0.9c-0.1,0-0.2,0.1-0.4,0.1    c-0.1,0-0.3,0-0.5,0c-0.2-0.4-0.3-0.9-0.3-1.4c-0.1-0.5-0.1-1-0.1-1.5c-0.2,0-0.5,0-0.7,0c-0.2,0-0.4,0-0.6,0    c-0.2,0-0.4,0-0.6,0.1c-0.2,0-0.4,0.1-0.7,0.2c0,0.4,0,0.8,0,1.2c0,0.4,0.1,0.8,0.2,1.2l-0.7,0.4L138.3,71.1z"></path>
		<path fill="#333333" d="M151.3,73.9c0,0-0.1,0-0.2,0c-0.1,0-0.1-0.1-0.2-0.1c-0.1,0-0.1-0.1-0.2-0.1c0-0.1-0.1-0.1,0-0.2    c0,0,0.1-0.1,0.1-0.2c0-0.1,0.1-0.2,0.1-0.4c0-0.2,0.1-0.3,0.1-0.5c0.1-0.2,0.1-0.4,0.1-0.5c0-0.2,0.1-0.3,0.1-0.5    c0-0.2,0.1-0.3,0.1-0.4l-2.3-2.6c-0.1-0.1-0.1-0.1-0.1-0.2c0,0,0-0.1,0.1-0.1c0,0,0.1,0,0.1,0c0,0,0.1,0,0.1,0c0.1,0,0.2,0,0.2,0    c0.1,0,0.2,0,0.2,0.1c0.1,0,0.2,0.1,0.3,0.2c0.1,0.1,0.2,0.2,0.4,0.4c0.2,0.2,0.3,0.4,0.5,0.6c0.2,0.3,0.4,0.6,0.7,0.9    c0.2-0.6,0.3-1,0.5-1.4c0.1-0.4,0.2-0.7,0.4-0.9c0.1-0.2,0.2-0.4,0.3-0.5c0.1-0.1,0.2-0.1,0.3-0.2c0.1,0,0.1,0,0.2,0    c0.1,0,0.1,0.1,0.1,0.1c-0.2,0.4-0.4,0.9-0.5,1.4c-0.2,0.5-0.3,1.1-0.5,1.7c-0.2,0.6-0.4,1.2-0.5,1.7    C151.7,72.8,151.5,73.4,151.3,73.9z"></path>
	</g>
</g>
</svg>