<svg xmlns="http://www.w3.org/2000/svg" xmlns:xlink="http://www.w3.org/1999/xlink" id="Layer_1" x="0px" y="0px" viewBox="0 0 190 90" xml:space="preserve">
<g>
	<g>
		<g>
			<path d="M135.9,76.6C135.9,76.6,135.9,76.6,135.9,76.6L135.9,76.6z"></path>
		</g>
		<g>
			<path d="M140.8,76.5C140.8,76.5,140.8,76.5,140.8,76.5C140.8,76.5,140.8,76.5,140.8,76.5L140.8,76.5z"></path>
		</g>
		<g>
			<path d="M141.6,76.6C141.6,76.6,141.6,76.6,141.6,76.6C141.6,76.6,141.6,76.6,141.6,76.6z"></path>
		</g>
		<g>
			<path d="M139,76.6C139,76.6,139,76.6,139,76.6C139,76.6,139,76.6,139,76.6z"></path>
		</g>
		<g>
			<polygon points="134.4,76.7 134.4,76.7 134.4,76.7    "></polygon>
		</g>
		<g>
			<path d="M134.5,76.7C134.5,76.7,134.4,76.7,134.5,76.7C134.5,76.7,134.5,76.7,134.5,76.7C134.5,76.7,134.5,76.7,134.5,76.7z"></path>
		</g>
		<g>
			<path d="M131.8,76.7L131.8,76.7C131.8,76.7,131.8,76.7,131.8,76.7z"></path>
		</g>
		<g>
			<path d="M139.1,77.7C139.1,77.7,139.1,77.7,139.1,77.7C139.1,77.7,139.1,77.7,139.1,77.7z"></path>
		</g>
		<g>
			<path d="M132.2,76.8L132.2,76.8C132.2,76.7,132.2,76.8,132.2,76.8z"></path>
		</g>
		<g>
			<path d="M140.8,76.5L140.8,76.5C140.8,76.5,140.8,76.5,140.8,76.5z"></path>
		</g>
		<g>
			<path d="M142.3,76.6C142.3,76.6,142.3,76.6,142.3,76.6C142.3,76.6,142.3,76.6,142.3,76.6L142.3,76.6z"></path>
		</g>
		<g>
			<path d="M146,77.2C146,77.2,146,77.2,146,77.2L146,77.2C146,77.2,146,77.2,146,77.2z"></path>
		</g>
		<g>
			<path d="M143.3,76.8C143.3,76.8,143.3,76.8,143.3,76.8c0,0-0.1,0-0.1,0l0,0L143.3,76.8z"></path>
		</g>
		<g>
			<path d="M144.4,77.7l-0.1-0.1c0.3,0,0.5,0,0.8,0l0,0c0,0,0.1-0.2,0.5,0.1v0c0,0,0,0,0,0l-0.1-0.1c0,0,0.1-0.1,0.2-0.1     c0,0,0,0,0,0l0.2,0l0,0.1c0,0,0-0.1,0.2-0.1c0-0.1,0.1,0,0-0.1c0,0,0,0,0,0c0.1,0,0.2,0,0.3-0.1c0,0-0.3-0.2-0.4-0.3     c0.1,0,0,0,0,0l0,0c-0.1,0-0.1-0.1-0.1-0.1c0,0,0,0,0,0l0,0c0,0,0,0,0,0c0,0,0,0,0,0l0,0c0,0-0.1,0-0.1,0l0,0     c0,0.1-0.3-0.1-0.4-0.1c-0.1-0.1-0.1,0-0.2,0c-0.1,0-0.1-0.1-0.1-0.1c-0.1,0,0,0,0,0.1l-0.1-0.1c0.1,0,0,0,0,0     c-0.1,0-0.2-0.1-0.2,0c-0.1,0-0.1-0.1-0.2-0.1c0,0,0,0,0,0c0,0,0,0,0,0c-0.1,0-0.4-0.2-0.4-0.1v0c0,0.1,0,0.1,0,0.2l0,0l0,0     c0,0,0,0,0,0c-0.1,0-0.2,0-0.3,0L144,77c-0.1,0-0.2-0.1-0.2-0.1l0-0.1c-0.2-0.1-0.1,0.1-0.2,0l-0.1-0.1l0.1,0     c-0.1,0-0.1-0.1-0.2-0.1c0,0,0,0,0,0c0,0,0,0,0,0l0,0c0,0-0.1,0.1-0.1,0.1c-0.1,0-0.1,0-0.3,0l0,0.1l-0.1,0v-0.1     c0.1,0,0.3,0,0.4,0l0,0c-0.1,0-0.2,0-0.2,0c0,0-0.1-0.1,0-0.1l0,0.1c-0.2,0-0.2,0-0.5-0.1l0,0c-0.1,0-0.1,0-0.1,0     c-0.2,0-0.3,0-0.4-0.1l0,0.1c0,0-0.1-0.1-0.1,0l-0.1,0c0,0-0.1,0-0.1,0v0l0,0c0,0,0,0,0,0c0,0,0,0,0,0c-0.1,0,0,0.1-0.1,0     c0,0,0,0.1-0.1,0.1l-0.1-0.1c-0.1-0.1-0.1,0-0.3,0c-0.1,0-0.1-0.1-0.1-0.2c-0.1,0.1,0,0.1-0.1,0.1c0,0,0,0,0-0.1     c-0.1,0,0,0-0.1,0c0,0.1,0,0.2-0.1,0.2l0,0c-0.1,0-0.1,0.1-0.2,0l0,0l-0.1,0l0,0l-0.1,0l0,0c0,0-0.1,0-0.2,0l0,0     c-0.1-0.1-0.2,0-0.4,0l0,0c-0.1,0,0,0.1-0.1,0.1l0-0.1c-0.1,0.1-0.1,0-0.1,0l0,0.1l-0.1,0c-0.1,0,0-0.1,0-0.1l-0.1,0.1l0-0.1     c0,0.1,0,0-0.1,0c0,0,0,0,0-0.1l-0.1,0.1l0.1,0l0,0.1c-0.1,0.1-0.1,0-0.1,0l0,0c-0.1,0-0.1,0-0.1,0c0,0,0,0,0,0.1c0,0,0,0,0,0     c0,0.1-0.1,0.1-0.1,0.1c0,0,0,0,0,0c0,0,0,0,0,0l0-0.1l0,0.1c0,0-0.1,0-0.1,0l0,0l-0.2,0l0-0.1c0,0.1-0.1,0-0.1,0.1     c0-0.1-0.2,0-0.1-0.1c-0.2,0-0.2,0.1-0.4,0c-0.1-0.1-0.2-0.1-0.4-0.1c-0.2,0-0.4,0.1-0.6,0.1c-0.1-0.1-0.4,0-0.5,0l0,0.1     c-0.1-0.1-0.3,0-0.4-0.1c0,0-0.1,0-0.1,0c0,0,0,0,0,0c0,0-0.1,0-0.1-0.1l0,0c0-0.1-0.1,0-0.2,0l0,0.1l-0.1,0l0,0     c-0.3,0.2-0.5-0.1-0.8,0.1c0-0.1-0.1,0-0.1,0c-0.1-0.1-0.1,0-0.2,0.1c0,0,0,0,0,0l-0.1,0c0.1-0.1-0.1,0.1,0,0c-0.3-0.1-0.7,0-1,0     l0,0c-0.1,0-0.2,0-0.3,0c-0.1,0-0.1,0.1-0.2,0.1c-0.1,0-0.1,0-0.1,0c-0.1,0-0.2,0.1-0.3,0.1c0-0.1-0.3,0.1-0.3,0l0,0     c-0.1-0.1-0.3,0.1-0.4,0c0,0,0,0,0,0l-0.3,0.3l0.1,0.4l0.3,0.3l0.7-0.1l0.6,0.1l1.4,0l0.1-0.1c0.3,0.1,0.6,0,0.9,0.1l0-0.1     c0.1,0,0.1,0,0.1,0.1c0.8,0,1.6-0.1,2.3,0c0.1,0,0.3,0,0.3,0.1c0.2-0.1,0.5-0.1,0.7-0.1l0,0l0.1,0c0,0,0,0,0,0     c0.1-0.1,0.3,0,0.5,0l0,0c0.9,0,1.7-0.1,2.5,0c0.4,0.1,0.9,0,1.3,0.1C143.4,77.8,144.4,77.8,144.4,77.7z"></path>
		</g>
		<g>
			<path d="M145.8,77.7L145.8,77.7C145.8,77.7,145.8,77.7,145.8,77.7z"></path>
		</g>
		<g>
			<polygon points="143.9,76.9 143.9,76.9 143.9,76.8    "></polygon>
		</g>
		<g>
			<path d="M145.1,76.8C145.1,76.8,145,76.8,145.1,76.8C145.1,76.8,145.1,76.8,145.1,76.8z"></path>
		</g>
		<g>
			<path d="M146.2,77.6C146.3,77.6,146.3,77.6,146.2,77.6C146.2,77.6,146.2,77.6,146.2,77.6C146.2,77.6,146.2,77.6,146.2,77.6z"></path>
		</g>
		<g>
			<path d="M146.1,77.2L146.1,77.2C146.1,77.2,146.1,77.2,146.1,77.2z"></path>
		</g>
	</g>
	<g>
		<path d="M63.6,77.3c0-1.6,1.3-2.9,2.9-2.9c0.7,0,1.3,0.2,1.8,0.6c0.2,0.2,0.2,0.4,0.1,0.6c-0.2,0.2-0.5,0.2-0.6,0.1    c-0.4-0.3-0.8-0.4-1.3-0.4c-0.6,0-1.1,0.2-1.4,0.6c-0.4,0.4-0.6,0.8-0.6,1.4c0,0.5,0.2,1,0.6,1.4c0.4,0.4,0.9,0.6,1.4,0.6    c0.5,0,0.9-0.2,1.3-0.4c0.2-0.1,0.5-0.1,0.6,0.1c0.1,0.2,0.1,0.5-0.1,0.6c-0.5,0.4-1.1,0.6-1.8,0.6C64.9,80.2,63.6,78.9,63.6,77.3    z"></path>
		<path d="M75.3,79.6c0.1,0.2,0,0.5-0.3,0.6c0,0-0.1,0-0.2,0c0,0,0,0,0,0c-0.1,0-0.2,0-0.3-0.1c-0.1-0.1-0.2-0.2-0.3-0.3    c-0.1-0.2-0.2-0.5-0.2-1c0-0.2,0-0.3-0.1-0.3c0-0.1-0.1-0.2-0.2-0.2c-0.2-0.1-0.4-0.2-0.4-0.2h-0.9v1.7c0,0.2-0.2,0.4-0.4,0.4    c-0.2,0-0.4-0.2-0.4-0.4v-4.7c0-0.2,0.2-0.4,0.4-0.4c0,0,0,0,0,0h1.4c1,0,1.7,0.8,1.7,1.7c0,0.5-0.2,1-0.6,1.3    c0.1,0.1,0.2,0.2,0.3,0.3c0.2,0.2,0.3,0.5,0.3,0.9c0,0.2,0,0.4,0,0.5C75.2,79.3,75.3,79.4,75.3,79.6z M74.2,76.3    c0-0.5-0.4-0.8-0.8-0.8h-1v1.6h1C73.8,77.2,74.2,76.8,74.2,76.3z"></path>
		<path d="M81.1,78.9h-1.9l-0.4,1c-0.1,0.2-0.2,0.3-0.4,0.3c-0.1,0-0.1,0-0.2,0c-0.2-0.1-0.3-0.3-0.3-0.6l1.8-4.7    c0.1-0.2,0.2-0.3,0.4-0.3c0.2,0,0.4,0.1,0.4,0.3l1.8,4.7c0.1,0.2,0,0.5-0.3,0.6c0,0-0.1,0-0.2,0c-0.2,0-0.3-0.1-0.4-0.3L81.1,78.9    z M80.8,78l-0.6-1.7L79.5,78H80.8z"></path>
		<path d="M85,79.8v-4.7c0-0.2,0.2-0.4,0.4-0.4h0c0,0,0,0,0,0H88c0.2,0,0.4,0.2,0.4,0.4c0,0.2-0.2,0.4-0.4,0.4h-2.2V77h1.9    c0.2,0,0.4,0.2,0.4,0.4c0,0.2-0.2,0.4-0.4,0.4h-1.9v1.9c0,0.2-0.2,0.4-0.4,0.4C85.2,80.2,85,80,85,79.8z"></path>
		<path d="M94.9,75.5h-1.3v4.3c0,0.2-0.2,0.4-0.4,0.4c-0.2,0-0.4-0.2-0.4-0.4v-4.3h-1.3c-0.2,0-0.4-0.2-0.4-0.4    c0-0.2,0.2-0.4,0.4-0.4h3.4c0.2,0,0.4,0.2,0.4,0.4C95.3,75.3,95.1,75.5,94.9,75.5z"></path>
		<path d="M97.9,78.8c0.1-0.2,0.4-0.2,0.6-0.1c0.4,0.3,1,0.6,1.5,0.6c0.4,0,0.8-0.1,1-0.3c0.2-0.2,0.3-0.4,0.3-0.6    c0-0.1,0-0.2-0.1-0.3c0-0.1-0.1-0.2-0.2-0.2c-0.2-0.2-0.6-0.3-1.1-0.4h0c-0.4-0.1-0.7-0.2-1-0.3c-0.3-0.1-0.6-0.3-0.7-0.6    c-0.1-0.2-0.2-0.4-0.2-0.7c0-0.5,0.3-0.9,0.6-1.2c0.4-0.3,0.9-0.4,1.4-0.4c0.8,0,1.3,0.4,1.7,0.6c0.2,0.1,0.2,0.4,0.1,0.6    c-0.1,0.2-0.4,0.2-0.6,0.1c-0.4-0.3-0.8-0.5-1.3-0.5c-0.4,0-0.7,0.1-0.9,0.3c-0.2,0.2-0.3,0.3-0.3,0.5c0,0.1,0,0.2,0.1,0.2    c0,0.1,0.1,0.1,0.2,0.2c0.2,0.1,0.6,0.3,1,0.4h0c0.4,0.1,0.8,0.2,1.1,0.3c0.3,0.2,0.6,0.4,0.8,0.7c0.1,0.2,0.2,0.4,0.2,0.7    c0,0.5-0.3,1-0.7,1.2c-0.4,0.3-0.9,0.5-1.5,0.5c-0.9,0-1.6-0.4-2-0.8C97.8,79.3,97.8,79,97.9,78.8z"></path>
		<path d="M109.8,75.1v4.7c0,0.2-0.2,0.4-0.4,0.4c-0.2,0-0.4-0.2-0.4-0.4v-3.4l-1.2,1.6c-0.1,0.1-0.2,0.2-0.4,0.2h0h0    c-0.1,0-0.3-0.1-0.4-0.2l-1.1-1.6v3.4c0,0.2-0.2,0.4-0.4,0.4c-0.2,0-0.4-0.2-0.4-0.4v-4.7c0-0.2,0.2-0.4,0.4-0.4c0,0,0,0,0,0    c0.1,0,0.3,0.1,0.4,0.2l1.6,2.2l1.6-2.2c0.1-0.1,0.2-0.2,0.4-0.2c0,0,0,0,0,0C109.6,74.6,109.8,74.8,109.8,75.1z"></path>
		<path d="M115.7,78.9h-1.9l-0.4,1c-0.1,0.2-0.2,0.3-0.4,0.3c-0.1,0-0.1,0-0.2,0c-0.2-0.1-0.3-0.3-0.3-0.6l1.8-4.7    c0.1-0.2,0.2-0.3,0.4-0.3c0.2,0,0.4,0.1,0.4,0.3l1.8,4.7c0.1,0.2,0,0.5-0.3,0.6c0,0-0.1,0-0.2,0c-0.2,0-0.3-0.1-0.4-0.3    L115.7,78.9z M115.4,78l-0.6-1.7l-0.6,1.7H115.4z"></path>
		<path d="M120.5,79.8c0,0.2-0.2,0.4-0.4,0.4c-0.2,0-0.4-0.2-0.4-0.4v-4.6c0,0,0,0,0,0c0-0.1,0.1-0.3,0.2-0.4    c0.2-0.1,0.5-0.1,0.6,0.1l2.6,3.6v-3.3c0-0.2,0.2-0.4,0.4-0.4c0.2,0,0.4,0.2,0.4,0.4v4.6c0,0.2-0.2,0.4-0.4,0.4    c-0.1,0-0.2-0.1-0.3-0.2c0,0,0,0,0,0l-2.6-3.5V79.8z"></path>
	</g>
	<g>
		<g>
			<path d="M52.1,77.6C52.1,77.6,52.1,77.6,52.1,77.6L52.1,77.6z"></path>
		</g>
		<g>
			<path d="M47.2,77.7C47.2,77.7,47.2,77.7,47.2,77.7C47.2,77.8,47.2,77.8,47.2,77.7L47.2,77.7z"></path>
		</g>
		<g>
			<path d="M46.4,77.7C46.4,77.7,46.4,77.7,46.4,77.7C46.4,77.7,46.4,77.7,46.4,77.7z"></path>
		</g>
		<g>
			<path d="M49,77.6C49,77.6,49,77.6,49,77.6C49,77.6,49,77.6,49,77.6z"></path>
		</g>
		<g>
			<polygon points="53.6,77.6 53.6,77.6 53.6,77.6    "></polygon>
		</g>
		<g>
			<path d="M53.5,77.6C53.5,77.6,53.6,77.6,53.5,77.6C53.5,77.5,53.5,77.5,53.5,77.6C53.5,77.6,53.5,77.6,53.5,77.6z"></path>
		</g>
		<g>
			<path d="M56.2,77.5L56.2,77.5C56.2,77.5,56.2,77.5,56.2,77.5z"></path>
		</g>
		<g>
			<path d="M48.9,76.5C48.9,76.5,48.9,76.5,48.9,76.5C48.9,76.5,48.9,76.5,48.9,76.5z"></path>
		</g>
		<g>
			<path d="M55.8,77.5L55.8,77.5C55.8,77.5,55.8,77.5,55.8,77.5z"></path>
		</g>
		<g>
			<path d="M47.2,77.8L47.2,77.8C47.2,77.8,47.2,77.8,47.2,77.8z"></path>
		</g>
		<g>
			<path d="M45.7,77.6C45.7,77.6,45.7,77.6,45.7,77.6C45.7,77.6,45.7,77.6,45.7,77.6L45.7,77.6z"></path>
		</g>
		<g>
			<path d="M42,77.1C42,77.1,42,77.1,42,77.1L42,77.1C42,77.1,42,77.1,42,77.1z"></path>
		</g>
		<g>
			<path d="M44.7,77.5C44.7,77.5,44.7,77.5,44.7,77.5c0,0,0.1,0,0.1,0l0,0L44.7,77.5z"></path>
		</g>
		<g>
			<path d="M43.6,76.5l0.1,0.1c-0.3,0-0.5,0-0.8,0l0,0c0,0-0.1,0.2-0.5-0.1v0c0,0,0,0,0,0l0.1,0.1c0,0-0.1,0.1-0.2,0.1c0,0,0,0,0,0     l-0.2,0l0-0.1c0,0,0,0.1-0.2,0.1c0,0.1-0.1,0,0,0.1c0,0,0,0,0,0c-0.1,0-0.2,0-0.3,0.1c0,0,0.3,0.2,0.4,0.3c-0.1,0,0,0,0,0l0,0     c0.1,0,0.1,0.1,0.1,0.1c0,0,0,0,0,0l0,0c0,0,0,0,0,0c0,0,0,0,0,0l0,0c0,0,0.1,0,0.1,0l0,0c0-0.1,0.3,0.1,0.4,0.1     c0.1,0.1,0.1,0,0.2,0c0.1,0,0.1,0.1,0.1,0.1c0.1,0,0,0,0-0.1l0.1,0.1c-0.1,0,0,0,0,0c0.1,0,0.2,0.1,0.2,0c0.1,0,0.1,0.1,0.2,0.1     c0,0,0,0,0,0c0,0,0,0,0,0c0.1,0,0.4,0.2,0.4,0.1v0c0-0.1,0-0.1,0-0.2l0,0l0,0c0,0,0,0,0,0c0.1,0,0.2,0,0.3,0L44,77.2     c0.1,0,0.2,0.1,0.2,0.1l0,0.1c0.2,0.1,0.1-0.1,0.2,0l0.1,0.1l-0.1,0c0.1,0,0.1,0.1,0.2,0.1c0,0,0,0,0,0c0,0,0,0,0,0l0,0     c0,0,0.1-0.1,0.1-0.1c0.1,0,0.1,0,0.3,0l0-0.1l0.1,0v0.1c-0.1,0-0.3,0-0.4,0l0,0c0.1,0,0.2,0,0.2,0c0,0,0.1,0.1,0,0.1l0-0.1     c0.2,0,0.2,0,0.5,0.1l0,0c0.1,0,0.1,0,0.1,0c0.2,0,0.3,0,0.4,0.1l0-0.1c0,0,0.1,0.1,0.1,0l0.1,0c0,0,0.1,0,0.1,0v0l0,0     c0,0,0,0,0,0c0,0,0,0,0,0c0.1,0,0-0.1,0.1,0c0,0,0-0.1,0.1-0.1l0.1,0.1c0.1,0.1,0.1,0,0.3,0c0.1,0,0.1,0.1,0.1,0.2     c0.1-0.1,0-0.1,0.1-0.1c0,0,0,0,0,0.1c0.1,0,0,0,0.1,0c0-0.1,0-0.2,0.1-0.2l0,0c0.1,0,0.1-0.1,0.2,0l0,0l0.1,0l0,0l0.1,0l0,0     c0,0,0.1,0,0.2,0l0,0c0.1,0.1,0.2,0,0.4,0l0,0c0.1,0,0-0.1,0.1-0.1l0,0.1c0.1-0.1,0.1,0,0.1,0l0-0.1l0.1,0c0.1,0,0,0.1,0,0.1     l0.1-0.1l0,0.1c0-0.1,0,0,0.1,0c0,0,0,0,0,0.1l0.1-0.1l-0.1,0l0-0.1c0.1-0.1,0.1,0,0.1,0l0,0c0.1,0,0.1,0,0.1,0c0,0,0,0,0-0.1     c0,0,0,0,0,0c0-0.1,0.1-0.1,0.1-0.1c0,0,0,0,0,0c0,0,0,0,0,0l0,0.1l0-0.1c0,0,0.1,0,0.1,0l0,0l0.2,0l0,0.1c0-0.1,0.1,0,0.1-0.1     c0,0.1,0.2,0,0.1,0.1c0.2,0,0.2-0.1,0.4,0c0.1,0.1,0.2,0.1,0.4,0.1c0.2,0,0.4-0.1,0.6-0.1c0.1,0.1,0.4,0,0.5,0l0-0.1     c0.1,0.1,0.3,0,0.4,0.1c0,0,0.1,0,0.1,0c0,0,0,0,0,0c0,0,0.1,0,0.1,0.1l0,0c0,0.1,0.1,0,0.2,0l0-0.1l0.1,0l0,0     c0.3-0.2,0.5,0.1,0.8-0.1c0,0.1,0.1,0,0.1,0c0.1,0.1,0.1,0,0.2-0.1c0,0,0,0,0,0l0.1,0c-0.1,0.1,0.1-0.1,0,0c0.3,0.1,0.7,0,1,0     l0,0c0.1,0,0.2,0,0.3,0c0.1,0,0.1-0.1,0.2-0.1c0.1,0,0.1,0,0.1,0c0.1,0,0.2-0.1,0.3-0.1c0,0.1,0.3-0.1,0.3,0l0,0     c0.1,0.1,0.3-0.1,0.4,0c0,0,0,0,0,0l0.3-0.3l-0.1-0.4l-0.3-0.3l-0.7,0.1l-0.6-0.1l-1.4,0l-0.1,0.1c-0.3-0.1-0.6,0-0.9-0.1l0,0.1     c-0.1,0-0.1,0-0.1-0.1c-0.8,0-1.6,0.1-2.3,0c-0.1,0-0.3,0-0.3-0.1c-0.2,0.1-0.5,0.1-0.7,0.1l0,0l-0.1,0c0,0,0,0,0,0     c-0.1,0.1-0.3,0-0.5,0l0,0c-0.9,0-1.7,0.1-2.5,0c-0.4-0.1-0.9,0-1.3-0.1C44.6,76.4,43.6,76.5,43.6,76.5z"></path>
		</g>
		<g>
			<path d="M42.2,76.6L42.2,76.6C42.2,76.6,42.2,76.6,42.2,76.6z"></path>
		</g>
		<g>
			<polygon points="44.1,77.4 44.1,77.4 44.1,77.4    "></polygon>
		</g>
		<g>
			<path d="M42.9,77.4C42.9,77.4,43,77.4,42.9,77.4C42.9,77.4,42.9,77.4,42.9,77.4z"></path>
		</g>
		<g>
			<path d="M41.8,76.7C41.7,76.6,41.7,76.7,41.8,76.7C41.8,76.7,41.8,76.7,41.8,76.7C41.8,76.7,41.8,76.7,41.8,76.7z"></path>
		</g>
		<g>
			<path d="M41.9,77L41.9,77C41.9,77.1,41.9,77.1,41.9,77z"></path>
		</g>
	</g>
	<g>
		<path d="M25.1,60.7l-4.5-15.9h-0.1c0.2,2.7,0.3,4.8,0.3,6.3v9.6h-5.3V38.6h8L28,54.3h0.1l4.5-15.7h8v22.1h-5.5V51    c0-0.5,0-1.1,0-1.7c0-0.6,0.1-2.1,0.2-4.5h-0.1l-4.5,15.9H25.1z"></path>
		<path d="M47.7,60.7V38.6h6v22.1H47.7z"></path>
		<path d="M81.9,60.7h-7.8L66,45.1h-0.1c0.2,2.5,0.3,4.3,0.3,5.6v10h-5.3V38.6h7.8l8.1,15.4h0.1c-0.1-2.2-0.2-4-0.2-5.4v-10h5.3    V60.7z"></path>
		<path d="M89,60.7V38.6h6v22.1H89z"></path>
		<path d="M111.8,60.7l-4.5-15.9h-0.1c0.2,2.7,0.3,4.8,0.3,6.3v9.6h-5.3V38.6h8l4.6,15.7h0.1l4.5-15.7h8v22.1h-5.5V51    c0-0.5,0-1.1,0-1.7c0-0.6,0.1-2.1,0.2-4.5H122l-4.5,15.9H111.8z"></path>
		<path d="M148,60.7l-1.1-4.1h-7.2l-1.1,4.1h-6.6l7.2-22.2h8l7.3,22.2H148z M145.7,51.6l-1-3.6c-0.2-0.8-0.5-1.9-0.8-3.1    c-0.3-1.3-0.5-2.2-0.6-2.8c-0.1,0.5-0.3,1.4-0.5,2.5c-0.3,1.2-0.9,3.5-1.8,7H145.7z"></path>
		<path d="M159.3,60.7V38.6h6v17.3h8.5v4.8H159.3z"></path>
	</g>
	<g>
		<path d="M108.3,18.9c0,1-0.9,1.9-1.9,1.9c-1.1,0-1.9-0.9-1.9-1.9c0-0.7,0.3-1.2,0.9-1.6c-0.2-0.2-0.3-0.5-0.3-0.8    c0-0.7,0.6-1.3,1.3-1.3c0.7,0,1.3,0.6,1.3,1.3c0,0.3-0.1,0.6-0.3,0.8C107.9,17.6,108.3,18.2,108.3,18.9z M107.4,18.9    c0-0.6-0.5-1-1-1c-0.6,0-1,0.5-1,1c0,0.6,0.5,1,1,1C106.9,19.9,107.4,19.5,107.4,18.9z M105.9,16.5c0,0.2,0.2,0.5,0.5,0.5    c0.2,0,0.4-0.2,0.4-0.5c0-0.2-0.2-0.4-0.4-0.4C106.1,16.1,105.9,16.3,105.9,16.5z"></path>
		<path d="M112.5,17.4c0.4,0.4,0.6,0.9,0.6,1.4c0,0.5-0.2,1-0.6,1.4c-0.4,0.4-0.9,0.6-1.4,0.6c0,0,0,0,0,0c-0.5,0-1-0.2-1.4-0.6    c-0.2-0.2-0.2-0.5,0-0.6c0.2-0.2,0.5-0.2,0.6,0c0.2,0.2,0.5,0.3,0.8,0.3c0.3,0,0.6-0.1,0.8-0.3c0.2-0.2,0.3-0.5,0.3-0.8    c0-0.3-0.1-0.6-0.3-0.8c-0.2-0.2-0.5-0.3-0.8-0.3c-0.3,0-0.6,0.1-0.8,0.3c-0.2,0.2-0.5,0.2-0.6,0c0,0-0.1-0.1-0.1-0.1c0,0,0,0,0,0    c0,0,0,0,0,0c0,0,0,0,0-0.1c0,0,0,0,0,0c0,0,0-0.1,0-0.1l0.2-2.1c0-0.1,0.1-0.2,0.2-0.3c0,0,0,0,0,0c0,0,0,0,0,0    c0.1,0,0.1,0,0.2,0h2.4c0.3,0,0.5,0.2,0.5,0.5c0,0.2-0.2,0.4-0.5,0.4h-2l-0.1,0.8c0.2,0,0.4-0.1,0.5-0.1    C111.6,16.8,112.1,17,112.5,17.4z"></path>
		<path d="M114.5,17c0.4-0.1,0.6-0.4,0.5-0.7c-0.2-0.1-0.5-0.2-0.5-0.5v-0.1c0-0.3,0.2-0.5,0.5-0.5c0.4,0,0.6,0.3,0.6,0.7v0.1    c0,0.5-0.1,0.9-0.4,1.2c-0.2,0.2-0.5,0.3-0.8,0.3c-0.2,0-0.2-0.1-0.2-0.2C114.4,17.1,114.4,17,114.5,17z"></path>
	</g>
	<g>
		<g>
			<g>
				<path d="M91.2,20C91.2,20,91.2,20,91.2,20L91.2,20z"></path>
			</g>
			<g>
				<path d="M96,15.1C96,15.1,96,15.1,96,15.1C96,15.1,95.9,15.1,96,15.1L96,15.1z"></path>
			</g>
			<g>
				<path d="M96.8,14.4C96.8,14.4,96.8,14.4,96.8,14.4C96.8,14.4,96.8,14.4,96.8,14.4z"></path>
			</g>
			<g>
				<path d="M94.3,17C94.3,17,94.3,17,94.3,17C94.3,17,94.3,17,94.3,17z"></path>
			</g>
			<g>
				<path d="M89.9,21.5C89.9,21.5,89.9,21.4,89.9,21.5C89.9,21.4,89.9,21.4,89.9,21.5L89.9,21.5z"></path>
			</g>
			<g>
				<path d="M89.9,21.4C89.9,21.4,89.9,21.4,89.9,21.4C89.9,21.4,89.9,21.4,89.9,21.4C89.9,21.4,89.9,21.4,89.9,21.4z"></path>
			</g>
			<g>
				<path d="M87.3,24.1L87.3,24.1C87.3,24,87.3,24.1,87.3,24.1z"></path>
			</g>
			<g>
				<path d="M95.1,17.7C95.1,17.7,95.1,17.7,95.1,17.7C95.1,17.7,95.1,17.7,95.1,17.7z"></path>
			</g>
			<g>
				<path d="M87.8,23.7L87.8,23.7C87.7,23.7,87.8,23.7,87.8,23.7z"></path>
			</g>
			<g>
				<path d="M95.9,15.1L95.9,15.1C95.9,15.1,95.9,15.1,95.9,15.1z"></path>
			</g>
			<g>
				<path d="M97.5,13.7C97.5,13.7,97.5,13.7,97.5,13.7C97.5,13.7,97.5,13.7,97.5,13.7L97.5,13.7z"></path>
			</g>
			<g>
				<path d="M101.5,10.5C101.5,10.5,101.5,10.5,101.5,10.5L101.5,10.5C101.5,10.5,101.5,10.5,101.5,10.5z"></path>
			</g>
			<g>
				<path d="M98.6,12.8C98.6,12.8,98.6,12.8,98.6,12.8c0,0-0.1,0-0.1,0.1l0,0L98.6,12.8z"></path>
			</g>
			<g>
				<path d="M100.4,12.5l-0.2,0c0.3-0.4,0.5-0.5,0.8-0.8l0,0c0.1,0-0.1-0.2,0.6-0.5l0,0c0,0,0,0,0.1,0l-0.1,0c0-0.1,0-0.1,0.1-0.2      c0,0,0,0,0,0l0.1-0.2l0.1,0c0-0.1-0.1-0.1,0.1-0.2c-0.1,0,0-0.1,0-0.1c0,0,0,0,0.1,0c0.1-0.1,0.2-0.2,0.2-0.3      c0,0-0.4,0.2-0.6,0.2c0.1-0.1,0,0,0,0l0,0c-0.1,0.1-0.1,0-0.2,0c0,0,0,0,0,0l0,0c0,0,0,0,0,0c0,0,0,0,0,0l0,0      c0,0-0.1,0.1-0.1,0.1l0,0c0,0.1-0.4,0.2-0.5,0.3c-0.1,0-0.1,0.2-0.2,0.2c-0.1,0.1-0.1,0-0.2,0.1c-0.1,0.1,0.1,0,0,0.1l-0.1,0.1      c0.1-0.1,0,0,0,0c-0.1,0.1-0.3,0.2-0.2,0.2c-0.1,0.1-0.2,0.1-0.2,0.1c0,0,0.1,0,0.1,0c-0.1,0,0,0,0,0c0,0.1-0.5,0.2-0.4,0.3l0,0      c0,0.1,0.1,0.1,0.1,0.2l-0.1,0l0,0.1c0,0,0,0-0.1,0c-0.1,0.1-0.2,0.2-0.3,0.3l0.2,0c-0.1,0-0.3,0.1-0.3,0.2l-0.1,0      c-0.2,0.1-0.1,0.1-0.2,0.2l-0.1,0l0.1-0.1c-0.1,0.1-0.2,0.1-0.2,0.1c0,0,0,0,0,0c0,0,0,0,0,0l0,0c0,0,0,0.1-0.1,0.1      c-0.1,0.1-0.1,0.2-0.3,0.2l0,0.1l-0.1,0.1l0,0c0.1-0.1,0.3-0.3,0.4-0.4l0,0c-0.1,0.1-0.1,0.2-0.2,0.2c0,0-0.1,0-0.1,0l0,0.1      c-0.2,0.2-0.2,0.2-0.5,0.5l0,0c0,0.1-0.1,0.1-0.1,0.1c-0.2,0.1-0.3,0.3-0.5,0.3l0,0.1c0,0-0.2,0-0.1,0.1l0,0.1      c0,0,0,0.1-0.1,0.1l0,0l0,0c0,0,0,0,0,0c0,0,0,0,0,0c-0.1,0.1,0,0-0.1,0.1c-0.1,0,0,0.1,0,0.1l-0.1,0c-0.1,0.1-0.1,0.1-0.2,0.3      c-0.1,0-0.2,0-0.2-0.1c0,0.1,0,0.1,0,0.2c0,0,0,0,0-0.1c-0.1,0,0,0.1-0.1,0.1c0,0.1,0.1,0.2,0.1,0.2l0,0c0,0.1-0.1,0.2-0.2,0.2      l0,0l-0.1,0.1l0,0l-0.1,0.1l0,0c0,0-0.1,0.1-0.2,0.1l0,0c-0.2,0.1-0.2,0.3-0.4,0.4l0-0.1c-0.1,0,0,0.1,0,0.1l0,0      c0,0.1-0.1,0.1-0.1,0.1l0.1,0l-0.1,0.1c-0.1,0.1-0.1,0-0.1-0.1l0,0.1l-0.1,0c0,0.1,0,0-0.1,0.1c0,0,0,0,0,0l0,0.2l0-0.1l0.1,0.1      c0,0.1-0.1,0.1-0.1,0.2l0-0.1c-0.1,0.1-0.1,0.1-0.2,0.1c0,0,0.1,0,0,0c0,0,0,0-0.1,0c0,0.1,0,0.1-0.1,0.2c0,0,0,0,0,0      c0,0,0,0,0,0.1l0-0.1l0,0.1c0,0-0.1,0.1-0.1,0.1l0,0l-0.2,0.2l0,0c0,0.1-0.1,0.1-0.1,0.2c-0.1,0-0.1,0.2-0.2,0.1      c-0.2,0.1-0.2,0.3-0.4,0.4c-0.1,0-0.3,0.2-0.4,0.3c-0.2,0.3-0.3,0.4-0.5,0.7c-0.2,0-0.3,0.4-0.5,0.5l0,0.1      c-0.2,0-0.2,0.3-0.4,0.3c0,0.1,0,0.1,0,0.1c0,0,0,0,0.1,0c-0.1,0-0.1,0.1-0.2,0.1l0,0c0-0.1-0.1,0.1-0.2,0.1l0.1,0l-0.1,0.1l0,0      c-0.2,0.4-0.5,0.4-0.7,0.9c0-0.1,0,0.1-0.1,0c-0.2,0-0.1,0.2-0.2,0.2c0,0,0,0,0,0l-0.1,0.1c0-0.1,0,0.1,0,0      c-0.4,0.2-0.7,0.7-1,1l0,0c-0.1,0.1-0.2,0.2-0.3,0.2c-0.1,0-0.1,0.2-0.1,0.2c0,0.1-0.2,0.1-0.1,0.1c-0.1,0.1-0.1,0.2-0.2,0.3      c-0.1,0-0.2,0.4-0.3,0.3l0,0c-0.2,0.1-0.2,0.3-0.4,0.4c0,0,0,0,0,0l-0.1,0.5l0.3,0.2l0.5-0.1l0.7-0.7l0.6-0.5l1.3-1.4l0-0.2      c0.4-0.2,0.6-0.6,1-0.8l0-0.1c0.1-0.1,0.1,0,0.1-0.1c0.7-0.8,1.5-1.6,2.2-2.2c0.1,0,0.3-0.3,0.4-0.3c0.2-0.3,0.4-0.5,0.6-0.7      l0,0l0.1-0.1c0,0,0,0,0,0c0.1-0.2,0.3-0.3,0.5-0.4l0,0c0.8-0.8,1.5-1.7,2.4-2.5c0.5-0.3,0.8-0.9,1.3-1.2      C99.4,13.5,100.3,12.6,100.4,12.5z"></path>
			</g>
			<g>
				<path d="M101.6,11.1L101.6,11.1C101.6,11.1,101.6,11.1,101.6,11.1z"></path>
			</g>
			<g>
				<polygon points="99.2,12.4 99.2,12.4 99.2,12.3     "></polygon>
			</g>
			<g>
				<path d="M100.4,11.1C100.3,11.2,100.3,11.2,100.4,11.1C100.3,11.2,100.4,11.2,100.4,11.1z"></path>
			</g>
			<g>
				<path d="M102,10.6C102,10.6,102,10.6,102,10.6C102,10.6,101.9,10.6,102,10.6C102,10.6,102,10.6,102,10.6z"></path>
			</g>
			<g>
				<path d="M101.6,10.4L101.6,10.4C101.6,10.4,101.6,10.4,101.6,10.4z"></path>
			</g>
		</g>
		<g>
			<g>
				<path d="M97.3,20.7C97.3,20.7,97.3,20.7,97.3,20.7L97.3,20.7z"></path>
			</g>
			<g>
				<path d="M92.4,16C92.4,16,92.4,16,92.4,16C92.4,16,92.4,16,92.4,16L92.4,16z"></path>
			</g>
			<g>
				<path d="M91.7,15.2C91.7,15.1,91.7,15.1,91.7,15.2C91.7,15.1,91.7,15.2,91.7,15.2z"></path>
			</g>
			<g>
				<path d="M94.3,17.7C94.3,17.7,94.3,17.7,94.3,17.7C94.3,17.7,94.3,17.7,94.3,17.7z"></path>
			</g>
			<g>
				<path d="M98.8,22.1C98.8,22.1,98.8,22.1,98.8,22.1C98.8,22.1,98.8,22.1,98.8,22.1L98.8,22.1z"></path>
			</g>
			<g>
				<path d="M98.7,22.1C98.7,22,98.7,22.1,98.7,22.1C98.8,22,98.7,22,98.7,22.1C98.7,22,98.7,22.1,98.7,22.1z"></path>
			</g>
			<g>
				<path d="M101.4,24.6L101.4,24.6C101.4,24.6,101.4,24.6,101.4,24.6z"></path>
			</g>
			<g>
				<path d="M95,16.8C95,16.8,95,16.8,95,16.8C95,16.8,95,16.8,95,16.8z"></path>
			</g>
			<g>
				<path d="M101,24.2L101,24.2C101,24.2,101,24.2,101,24.2z"></path>
			</g>
			<g>
				<path d="M92.4,16L92.4,16C92.4,16,92.4,16,92.4,16z"></path>
			</g>
			<g>
				<path d="M91,14.4C91,14.4,91,14.4,91,14.4C91,14.4,91,14.4,91,14.4L91,14.4z"></path>
			</g>
			<g>
				<path d="M87.8,10.4C87.8,10.4,87.8,10.4,87.8,10.4L87.8,10.4C87.8,10.4,87.8,10.4,87.8,10.4z"></path>
			</g>
			<g>
				<path d="M90.1,13.3C90.1,13.3,90.1,13.3,90.1,13.3c0,0,0,0.1,0.1,0.1l0,0L90.1,13.3z"></path>
			</g>
			<g>
				<path d="M89.8,11.6l0,0.2c-0.4-0.3-0.5-0.5-0.8-0.8l0,0c0-0.1-0.2,0.1-0.5-0.6l0,0c0,0,0,0,0-0.1l0,0.1c-0.1,0-0.1,0-0.2-0.1      c0,0,0,0,0,0l-0.2-0.1l0-0.1c-0.1,0-0.1,0.1-0.2-0.1c0,0.1-0.1,0-0.1,0c0,0,0,0,0-0.1c-0.1-0.1-0.2-0.2-0.3-0.2      c0,0,0.2,0.4,0.2,0.6c-0.1-0.1,0,0,0,0l0,0c0.1,0.1,0,0.1,0,0.2c0,0,0,0,0,0l0,0c0,0,0,0,0,0c0,0,0,0,0,0l0,0      c0,0,0.1,0.1,0.1,0.1l0,0c0.1,0,0.2,0.4,0.3,0.5c0,0.1,0.2,0.1,0.2,0.2c0.1,0.1,0,0.1,0.1,0.2c0.1,0.1,0-0.1,0.1,0l0.1,0.1      c-0.1-0.1,0,0,0,0c0.1,0.1,0.2,0.3,0.2,0.2c0.1,0.1,0.1,0.2,0.1,0.2c0,0,0-0.1,0-0.1c0,0.1,0,0,0,0c0.1,0,0.2,0.5,0.3,0.4l0,0      c0.1,0,0.1-0.1,0.2-0.1l0,0.1l0.1,0c0,0,0,0,0,0.1c0.1,0.1,0.2,0.2,0.3,0.3l0-0.2c0,0.1,0.1,0.3,0.2,0.3l0,0.1      C90,13.1,90,13,90.1,13l0,0.1L90,13.1c0.1,0.1,0.1,0.2,0.1,0.2c0,0,0,0,0,0c0,0,0,0,0,0l0,0c0,0,0.1,0,0.1,0.1      c0.1,0.1,0.2,0.1,0.2,0.3l0.1,0l0.1,0.1l0,0c-0.1-0.1-0.3-0.3-0.4-0.4l0,0c0.1,0.1,0.2,0.1,0.2,0.2c0,0,0,0.1,0,0.1l0.1,0      c0.2,0.2,0.2,0.2,0.5,0.5l0,0c0.1,0,0.1,0.1,0.1,0.1c0.1,0.2,0.3,0.3,0.3,0.5l0.1,0c0,0,0,0.2,0.1,0.1l0.1,0c0,0,0.1,0,0.1,0.1      l0,0l0,0c0,0,0,0,0,0c0,0,0,0,0,0c0.1,0.1,0,0,0.1,0.1c0,0.1,0.1,0,0.1,0l0,0.1c0.1,0.1,0.1,0.1,0.3,0.2c0,0.1,0,0.2-0.1,0.2      c0.1,0,0.1,0,0.2,0c0,0,0,0-0.1,0c0,0.1,0.1,0,0.1,0.1c0.1,0,0.2-0.1,0.2-0.1l0,0c0.1,0,0.2,0.1,0.2,0.2l0,0l0.1,0.1l0,0      l0.1,0.1l0,0c0,0,0.1,0.1,0.1,0.2l0,0c0.1,0.2,0.3,0.2,0.4,0.4l-0.1,0c0,0.1,0.1,0,0.1,0l0,0c0.1,0,0.1,0.1,0.1,0.1l0-0.1      l0.1,0.1c0.1,0.1,0,0.1-0.1,0.1l0.1,0l0,0.1c0.1,0,0,0,0.1,0.1c0,0,0,0,0,0l0.2,0l-0.1,0l0.1-0.1c0.1,0,0.1,0.1,0.2,0.1l-0.1,0      c0.1,0.1,0.1,0.1,0.1,0.2c0,0,0-0.1,0,0c0,0,0,0,0,0.1c0.1,0,0.1,0,0.2,0.1c0,0,0,0,0,0c0,0,0,0,0.1,0l-0.1,0l0.1,0      c0,0,0.1,0.1,0.1,0.1l0,0l0.2,0.2l0,0c0.1,0,0.1,0.1,0.2,0.1c0,0.1,0.2,0.1,0.1,0.2c0.1,0.2,0.3,0.2,0.4,0.4      c0,0.1,0.2,0.3,0.3,0.4c0.3,0.2,0.4,0.3,0.7,0.5c0,0.2,0.4,0.3,0.5,0.5l0.1,0c0,0.2,0.3,0.2,0.3,0.4c0.1,0,0.1,0,0.1,0      c0,0,0,0,0-0.1c0,0.1,0.1,0.1,0.1,0.2l0,0c-0.1,0,0.1,0.1,0.1,0.2l0-0.1l0.1,0.1l0,0c0.4,0.2,0.4,0.5,0.9,0.7      c-0.1,0,0.1,0,0,0.1c0,0.2,0.2,0.1,0.2,0.2c0,0,0,0,0,0l0.1,0.1c-0.1,0,0.1,0,0,0c0.2,0.4,0.7,0.7,1,1l0,0      c0.1,0.1,0.2,0.2,0.2,0.3c0,0.1,0.2,0.1,0.2,0.1c0.1,0,0.1,0.2,0.1,0.1c0.1,0.1,0.2,0.1,0.3,0.2c0,0.1,0.4,0.2,0.3,0.3l0,0      c0.1,0.2,0.3,0.2,0.4,0.4c0,0,0,0,0,0l0.5,0.1l0.2-0.3l-0.1-0.5l-0.7-0.7l-0.5-0.6l-1.4-1.3l-0.2,0c-0.2-0.4-0.6-0.6-0.8-1      l-0.1,0c-0.1-0.1,0-0.1-0.1-0.1c-0.8-0.7-1.6-1.5-2.2-2.2c0-0.1-0.3-0.3-0.3-0.4c-0.3-0.2-0.5-0.4-0.7-0.6l0,0L95,16.9      c0,0,0,0,0,0c-0.2-0.1-0.3-0.3-0.4-0.5l0,0c-0.8-0.8-1.7-1.5-2.5-2.4c-0.3-0.5-0.9-0.8-1.2-1.3C90.8,12.5,89.9,11.6,89.8,11.6z"></path>
			</g>
			<g>
				<path d="M88.4,10.3L88.4,10.3C88.4,10.3,88.4,10.3,88.4,10.3z"></path>
			</g>
			<g>
				<polygon points="89.7,12.7 89.7,12.7 89.7,12.8     "></polygon>
			</g>
			<g>
				<path d="M88.5,11.6C88.5,11.6,88.5,11.6,88.5,11.6C88.5,11.6,88.5,11.6,88.5,11.6z"></path>
			</g>
			<g>
				<path d="M87.9,9.9C87.9,9.9,87.9,9.9,87.9,9.9C87.9,10,87.9,10,87.9,9.9C87.9,10,87.9,9.9,87.9,9.9z"></path>
			</g>
			<g>
				<path d="M87.7,10.3L87.7,10.3C87.7,10.3,87.7,10.3,87.7,10.3z"></path>
			</g>
		</g>
	</g>
	<g>
		<path d="M72.2,20.3v-4.7c0-0.2,0.2-0.4,0.4-0.4h0c0,0,0,0,0,0h2.6c0.2,0,0.4,0.2,0.4,0.4c0,0.2-0.2,0.4-0.4,0.4h-2.2v1.5h1.9    c0.2,0,0.4,0.2,0.4,0.4c0,0.2-0.2,0.4-0.4,0.4h-1.9v1.5h2.2c0.2,0,0.4,0.2,0.4,0.4c0,0.2-0.2,0.4-0.4,0.4h-2.6c0,0,0,0,0,0l0,0    C72.4,20.8,72.2,20.6,72.2,20.3z"></path>
		<path d="M76.8,19.4c0.1-0.2,0.4-0.2,0.6-0.1c0.4,0.3,1,0.6,1.5,0.6c0.4,0,0.8-0.1,1-0.3c0.2-0.2,0.3-0.4,0.3-0.6    c0-0.1,0-0.2-0.1-0.3c0-0.1-0.1-0.2-0.2-0.2c-0.2-0.2-0.6-0.3-1.1-0.4h0c-0.4-0.1-0.7-0.2-1-0.3c-0.3-0.1-0.6-0.3-0.7-0.6    c-0.1-0.2-0.2-0.4-0.2-0.7c0-0.5,0.3-0.9,0.6-1.2c0.4-0.3,0.9-0.4,1.4-0.4c0.8,0,1.3,0.4,1.7,0.6c0.2,0.1,0.2,0.4,0.1,0.6    c-0.1,0.2-0.4,0.2-0.6,0.1c-0.4-0.3-0.8-0.5-1.3-0.5c-0.4,0-0.7,0.1-0.9,0.3c-0.2,0.2-0.3,0.3-0.3,0.5c0,0.1,0,0.2,0.1,0.2    c0,0.1,0.1,0.1,0.2,0.2c0.2,0.1,0.6,0.3,1,0.4h0c0.4,0.1,0.8,0.2,1.1,0.3c0.3,0.2,0.6,0.4,0.8,0.7c0.1,0.2,0.2,0.4,0.2,0.7    c0,0.5-0.3,1-0.7,1.2c-0.4,0.3-0.9,0.5-1.5,0.5c-0.9,0-1.6-0.4-2-0.8C76.6,19.8,76.6,19.6,76.8,19.4z"></path>
		<path d="M85.6,16.1h-1.3v4.3c0,0.2-0.2,0.4-0.4,0.4c-0.2,0-0.4-0.2-0.4-0.4v-4.3h-1.3c-0.2,0-0.4-0.2-0.4-0.4    c0-0.2,0.2-0.4,0.4-0.4h3.4c0.2,0,0.4,0.2,0.4,0.4C86,15.9,85.8,16.1,85.6,16.1z"></path>
	</g>
</g>
</svg>