<?xml version="1.0" encoding="utf-8"?>
<!-- Generator: Adobe Illustrator 18.0.0, SVG Export Plug-In . SVG Version: 6.00 Build 0)  -->
<!DOCTYPE svg PUBLIC "-//W3C//DTD SVG 1.1//EN" "http://www.w3.org/Graphics/SVG/1.1/DTD/svg11.dtd">
<svg version="1.1" id="Layer_1" xmlns="http://www.w3.org/2000/svg" xmlns:xlink="http://www.w3.org/1999/xlink" x="0px" y="0px"
	 viewBox="0 0 190 90" enable-background="new 0 0 190 90" xml:space="preserve">
<g>
	<g>
		<g>
			<path fill="#231F20" d="M24.6,29.3c0,4.8,0.3,9.5,0.5,14.3c0,1.6,2.3,1.6,2.5,0c0.4-4.8,0.5-9.9-0.3-14.7
				C26.9,27.5,24.5,27.9,24.6,29.3z"/>
		</g>
		<g>
			<path fill="#231F20" d="M32.2,28.9c-0.1,5,0.4,10.2,0.9,15.2c0.1,1.5,2.3,1.6,2.4,0c0.2-5,0.2-10.5-0.8-15.5
				C34.4,27.1,32.2,27.5,32.2,28.9z"/>
		</g>
		<g>
			<path fill="#231F20" d="M40,30.1c-0.2,4.2,0,8.5,0.1,12.7c0,1.3,2.1,1.7,2.3,0.3c0.7-4.2,0.8-9.1,0.1-13.4
				C42.3,28.3,40.1,28.7,40,30.1z"/>
		</g>
	</g>
	<g>
		<g>
			<g>
				<g>
					<path fill="#231F20" d="M72.6,61.5L72.6,61.5c0.3,0.1,0.6,0.2,0.9,0.2c0.6,0,0.8-0.5,0.8-1v-5.6H75v5.7c0,0.7-0.4,1.4-1.5,1.4
						c-0.4,0-0.7-0.1-1.1-0.3L72.6,61.5z"/>
				</g>
			</g>
			<g>
				<g>
					<path fill="#231F20" d="M81.3,59.9h-2.8l-0.8,2.3H77l2.7-7h0.6l2.7,7h-0.7L81.3,59.9z M81.1,59.3l-0.8-2.2L79.9,56l-0.4,1.1
						l-0.8,2.2H81.1z"/>
				</g>
			</g>
			<g>
				<g>
					<path fill="#231F20" d="M91.6,62.2h-0.7l-0.5-4.4l-0.1-1.5l-0.5,1.5l-1.4,3.5h-0.6l-1.4-3.4l-0.6-1.5l-0.1,1.5l-0.4,4.4h-0.7
						l0.8-7H86l1.8,4.6l0.3,0.6l0.2-0.6l1.8-4.6h0.7L91.6,62.2z"/>
				</g>
			</g>
			<g>
				<g>
					<path fill="#231F20" d="M98.1,61.6v0.6h-3.8v-7H98v0.6h-3.1v2.5h2.6l-0.1,0.6h-2.6v2.8H98.1z"/>
				</g>
			</g>
			<g>
				<g>
					<path fill="#231F20" d="M100.1,61.7v-0.8h0.1c0.6,0.4,1.3,0.8,2.1,0.8c0.9,0,1.5-0.5,1.5-1.3c0-0.7-0.5-1.1-1.5-1.5
						c-1-0.4-2.1-0.7-2.1-2c0-1.1,0.8-1.9,2.1-1.9c0.6,0,1.3,0.2,1.8,0.5l-0.2,0.7h0c-0.6-0.4-1.2-0.6-1.7-0.6
						c-0.9,0-1.3,0.6-1.3,1.2c0,0.7,0.4,0.9,1.5,1.4c1,0.5,2.1,0.9,2.1,2.1c0,1.1-0.9,2-2.3,2C101.3,62.3,100.5,62,100.1,61.7z"/>
				</g>
			</g>
			<g>
				<g>
					<path fill="#231F20" d="M114,61.6v0.6h-3.7v-7h0.7v6.4H114z"/>
				</g>
			</g>
			<g>
				<g>
					<path fill="#231F20" d="M115.9,55.2h0.7v7h-0.7V55.2z"/>
				</g>
			</g>
			<g>
				<g>
					<path fill="#231F20" d="M122.9,59.9h-2.8l-0.8,2.3h-0.7l2.7-7h0.6l2.7,7h-0.7L122.9,59.9z M122.7,59.3l-0.8-2.2l-0.4-1.1
						l-0.4,1.1l-0.8,2.2H122.7z"/>
				</g>
			</g>
			<g>
				<g>
					<path fill="#231F20" d="M133.2,62.2h-0.7l-0.5-4.4l-0.1-1.5l-0.5,1.5l-1.4,3.5h-0.6l-1.4-3.4l-0.6-1.5l-0.1,1.5l-0.4,4.4h-0.7
						l0.8-7h0.7l1.8,4.6l0.3,0.6l0.2-0.6l1.8-4.6h0.7L133.2,62.2z"/>
				</g>
			</g>
			<g>
				<g>
					<path fill="#231F20" d="M135.8,59.9v-4.7h0.7v4.6c0,1.4,0.8,1.9,1.7,1.9c0.9,0,1.7-0.5,1.7-1.9v-4.6h0.7v4.7
						c0,1.5-1,2.5-2.4,2.5C136.7,62.3,135.8,61.5,135.8,59.9z"/>
				</g>
			</g>
		</g>
		<g>
			<g>
				<g>
					<path fill="#231F20" d="M62.2,30c2.9,2.6,3.7,7,1.9,10.5c-2.9,5.6-9.2,4.7-14.4,4.7c0-5.8,0-11.6,0-17.4h4.4
						C57.1,27.8,59.9,27.9,62.2,30z M56.5,32c-0.8,0-1.6,0-2.4,0c0,3,0,6,0,9c2.8,0,5.9-0.2,6.7-3.4C61.4,34.8,59.3,32.1,56.5,32z"
						/>
				</g>
			</g>
			<g>
				<g>
					<path fill="#231F20" d="M71.1,45.2h-4.4V28h4.4V45.2z"/>
				</g>
			</g>
			<g>
				<g>
					<path fill="#231F20" d="M87.2,45.2h-4.4l-2.7-6.5h-2.8v6.5h-4.1V28h1.7h2.5h4.1c3,0,5.4,2.4,5.4,5.4c0,1.9-1,3.5-2.4,4.5
						L87.2,45.2z M81.2,31.5c-0.1,0-1.1,0-4.1,0v3.7h4.1c0.9-0.1,1.6-0.9,1.6-1.9C82.8,32.3,82.1,31.6,81.2,31.5z"/>
				</g>
			</g>
			<g>
				<g>
					<path fill="#231F20" d="M100.4,45.2h-7.3h-4.4V28h4.4h7.1v3.7h-7.1v3h6v3.7h-6v3h7.3V45.2z"/>
				</g>
			</g>
			<g>
				<g>
					<path fill="#231F20" d="M113.8,39.8l3,3c-1.6,1.6-3.8,2.6-6.2,2.6c-4.8,0-8.7-3.9-8.7-8.7c0-4.8,3.9-8.7,8.7-8.7
						c2.4,0,4.6,1,6.2,2.6l-3,3c-0.8-0.8-2-1.3-3.2-1.3c-2.5,0-4.5,2-4.5,4.5c0,2.5,2,4.5,4.5,4.5C111.8,41.1,113,40.6,113.8,39.8z"
						/>
				</g>
			</g>
			<g>
				<g>
					<path fill="#231F20" d="M131.2,32.3h-4.4v12.9h-4.4V32.3H118V28h4.4h4.4h4.4V32.3z"/>
				</g>
			</g>
			<g>
				<g>
					<path fill="#231F20" d="M149.9,36.7c0,4.8-3.9,8.7-8.7,8.7c-4.8,0-8.7-3.9-8.7-8.7c0-4.8,3.9-8.7,8.7-8.7
						C146,28,149.9,31.9,149.9,36.7z M145.7,36.7c0-2.5-2-4.5-4.5-4.5c-2.5,0-4.5,2-4.5,4.5c0,2.5,2,4.5,4.5,4.5
						C143.7,41.2,145.7,39.2,145.7,36.7z"/>
				</g>
			</g>
			<g>
				<g>
					<path fill="#231F20" d="M165.4,45.2H161l-2.7-6.5h-2.8v6.5h-4.1V28h1.7h2.5h4.1c3,0,5.4,2.4,5.4,5.4c0,1.9-1,3.5-2.4,4.5
						L165.4,45.2z M159.4,31.5c-0.1,0-1.1,0-4.1,0v3.7h4.1c0.9-0.1,1.6-0.9,1.6-1.9C161.1,32.3,160.3,31.6,159.4,31.5z"/>
				</g>
			</g>
		</g>
	</g>
</g>
</svg>
