<svg xmlns="http://www.w3.org/2000/svg" xmlns:xlink="http://www.w3.org/1999/xlink" id="Layer_1" x="0px" y="0px" viewBox="0 0 190 90" xml:space="preserve">
<g>
	<g>
		<path fill="#333333" d="M29.9,53.6c-0.2,0-0.3,0.1-0.5,0.1c-0.2,0-0.4,0.1-0.6,0.1c-0.2,0-0.4,0.1-0.7,0.1    c-0.2,0.1-0.5,0.1-0.7,0.2c-0.3,0-0.5,0.1-0.7,0.2c0,0.1,0,0.2-0.1,0.4c0,0.1,0,0.3-0.1,0.4c0.1,0.1,0.2,0.2,0.4,0.4    c0.1,0.1,0.3,0.3,0.4,0.4c0.2,0.3,0.5,0.5,0.7,0.8c0.3,0.3,0.5,0.5,0.7,0.8c0,0,0,0.1,0.1,0.1c0,0,0,0.1,0,0.1c0,0,0,0.1,0,0.1    c0,0,0,0.1,0,0.1c0,0.1-0.1,0.2-0.2,0.3c-0.1,0.1-0.2,0.1-0.4,0.1c0,0-0.1,0-0.2,0c-0.1,0-0.1-0.1-0.2-0.1c-0.3-0.3-0.5-0.7-0.8-1    c-0.3-0.3-0.6-0.6-0.9-0.9c0,0.3-0.1,0.5-0.1,0.8c0,0.3-0.1,0.5-0.1,0.8c-0.4,1.8-1.1,3.6-2,5.2c-0.9,1.6-2.3,2.8-4.2,3.5    c-0.3,0.1-0.6,0.2-1,0.3c-0.3,0-0.6,0.1-1,0.1c-1.2,0-2.3-0.4-3.2-1.2c-0.9-0.8-1.4-1.9-1.4-3.3c0-2.5,0.9-4.7,2.6-6.6    c1.8-1.9,3.8-3.3,6-4.2c-0.2-0.2-0.4-0.5-0.6-0.7c-0.2-0.3-0.5-0.5-0.7-0.8c-0.6-0.7-1.2-1.6-1.7-2.5c-0.5-0.9-0.8-1.8-0.8-2.7    c0-0.2,0-0.4,0-0.6c0-0.2,0.1-0.4,0.1-0.5c0.3-0.9,0.8-1.7,1.6-2.3c0.8-0.6,1.6-1.1,2.5-1.6c0.2-0.1,0.5-0.3,0.7-0.4    c0.3-0.1,0.5-0.2,0.7-0.4c0.2-0.1,0.4-0.2,0.6-0.3c0.2-0.1,0.4-0.2,0.6-0.3c0-0.3,0.1-0.6,0.2-1c0.1-0.4,0.3-0.8,0.5-1.3    c0.4-0.7,0.8-1.4,1.3-2c0.5-0.6,1.1-0.9,1.7-0.9c0.1,0,0.3,0,0.4,0.1c0.1,0,0.3,0.1,0.4,0.2c0.2,0.1,0.3,0.3,0.4,0.4    c0.1,0.2,0.1,0.3,0.1,0.5c0,0.3-0.1,0.5-0.2,0.8c-0.1,0.3-0.3,0.6-0.6,0.9c-0.2,0.2-0.4,0.5-0.6,0.7c-0.2,0.3-0.5,0.5-0.8,0.7    c-0.4,0.4-0.8,0.7-1.2,1c-0.4,0.3-0.7,0.5-0.8,0.7c0,0.9,0,1.8,0.1,2.8c0.1,0.9,0.2,1.8,0.3,2.8c0,0.1,0,0.1,0,0.2    c0,0.1,0,0.1,0,0.2c0.1,0.9,0.2,1.7,0.3,2.6c0.1,0.9,0.1,1.7,0.1,2.5c0.4,0,0.7,0,1,0c0.3,0,0.7,0,1,0.1c0.2,0,0.3,0,0.5,0.1    c0.2,0,0.3,0,0.5,0.1l0.6,2.7C30.2,53.6,30.1,53.6,29.9,53.6z M24.9,54.9c-1.2,0.4-2.3,0.9-3.3,1.4c-1.1,0.6-2.1,1.1-3.2,1.8    c-0.2,0.1-0.5,0.3-0.8,0.5c-0.3,0.2-0.6,0.4-0.9,0.6c-0.4,0.3-0.8,0.7-1.2,1.1c-0.4,0.4-0.7,0.8-0.9,1.1c0,0.1-0.1,0.2-0.1,0.3    c0,0.1-0.1,0.2-0.1,0.2c0,0.1,0,0.1-0.1,0.2c0,0.1,0,0.2-0.1,0.3c0,0,0,0.1,0,0.1c0,0,0,0.1,0,0.1c0,0.3,0.1,0.5,0.2,0.8    c0.1,0.3,0.4,0.4,0.8,0.6c0.2,0.1,0.4,0.1,0.6,0.1c0.2,0,0.4,0,0.6,0c0.8,0,1.6-0.2,2.3-0.6c0.7-0.4,1.4-0.8,2-1.3    c0,0,0.1-0.1,0.2-0.1c0.1,0,0.1-0.1,0.2-0.1c1-0.9,1.9-1.9,2.7-3c0.8-1.1,1.3-2.3,1.5-3.7L24.9,54.9z M25.6,48.1    c-0.1-0.9-0.2-1.7-0.3-2.6c0,0,0-0.1,0-0.1c0,0,0-0.1,0-0.1c-0.1-0.8-0.1-1.6-0.2-2.4C25.1,42,25,41.2,25,40.4    c-0.1,0.1-0.2,0.1-0.2,0.2c-0.1,0.1-0.2,0.1-0.2,0.2c-1,0.9-1.9,1.8-2.8,2.8c-0.8,1-1.3,2-1.3,3c0,0.2,0,0.4,0.1,0.6    c0.1,0.2,0.1,0.4,0.2,0.6c0.2,0.5,0.5,0.9,0.8,1.3c0.3,0.4,0.7,0.8,1,1.2c0,0,0.1,0.1,0.1,0.1c0,0,0.1,0.1,0.1,0.1    c0.1,0.1,0.1,0.2,0.2,0.3c0.1,0.1,0.1,0.2,0.2,0.3c0.4-0.1,0.8-0.2,1.2-0.3c0.4-0.1,0.8-0.1,1.2-0.2C25.8,49.8,25.7,49,25.6,48.1z     M29,34.4c-0.1,0-0.1,0-0.2,0c-0.1,0-0.2,0-0.2,0.1c-0.1,0-0.2,0.1-0.2,0.1c-0.2,0.1-0.4,0.4-0.6,0.6c-0.2,0.3-0.4,0.6-0.6,0.9    c-0.2,0.3-0.4,0.7-0.5,1c-0.1,0.3-0.2,0.5-0.3,0.6c0.2-0.1,0.4-0.3,0.6-0.4c0.2-0.1,0.4-0.3,0.6-0.5c0,0,0.2-0.1,0.3-0.3    c0.2-0.1,0.3-0.3,0.5-0.5c0.1-0.1,0.1-0.1,0.2-0.2c0-0.1,0.1-0.1,0.2-0.2c0.1-0.2,0.3-0.3,0.4-0.5c0.1-0.2,0.1-0.3,0.1-0.4    c0,0,0-0.1,0-0.1c0,0,0-0.1-0.1-0.1C29.1,34.5,29,34.5,29,34.4z"></path>
		<path fill="#333333" d="M44.3,53.9c0,0.1-0.1,0.1-0.1,0.2c-0.5,0.7-1.2,1.4-2,2c-0.8,0.6-1.7,0.9-2.6,0.9c0,0-0.1,0-0.1,0    c0,0-0.1,0-0.1,0c0,0-0.1,0-0.1,0c0,0-0.1,0-0.1,0c-0.2,0.5-0.4,0.9-0.6,1.3c-0.2,0.4-0.5,0.8-0.8,1.2c-0.4,0.5-0.9,0.9-1.4,1.2    c-0.5,0.3-1,0.5-1.6,0.5c-0.1,0-0.1,0-0.2,0c-0.1,0-0.1,0-0.2,0c-0.5,0-1-0.1-1.5-0.4c-0.5-0.3-0.9-0.7-1.3-1.3    c-0.3-0.5-0.5-1-0.7-1.5c-0.1-0.5-0.2-1.1-0.2-1.7c0-0.1,0-0.2,0-0.4c0-0.1,0-0.3,0-0.4c0.1-0.9,0.3-1.7,0.6-2.5    c0.3-0.8,0.8-1.5,1.3-2.1c0.5-0.6,1-1,1.6-1.3c0.6-0.3,1.2-0.5,1.8-0.5c1.1,0,2,0.4,2.5,1.3c0.6,0.8,0.9,1.8,1,2.7    c0,0.1,0,0.1,0,0.2c0,0.1,0,0.1,0,0.2c0,0.2,0,0.3,0,0.5c0,0.2,0,0.4,0,0.6c0,0.2,0,0.4-0.1,0.6c0,0.2-0.1,0.4-0.1,0.6    c0,0,0.1,0,0.1,0c0,0,0.1,0,0.1,0c0.7,0,1.3-0.2,1.9-0.6c0.6-0.4,1.1-0.9,1.5-1.4c0.1-0.1,0.2-0.2,0.3-0.4    c0.1-0.1,0.2-0.2,0.2-0.4c0-0.1,0.1-0.2,0.2-0.2c0.1,0,0.2-0.1,0.3-0.1c0.1,0,0.3,0,0.4,0.1c0.1,0.1,0.1,0.2,0.1,0.4    c0,0,0,0.1,0,0.1c0,0.1,0,0.1-0.1,0.2C44.4,53.8,44.3,53.8,44.3,53.9z M38.1,56.5c0-0.1,0.1-0.3,0.1-0.5c0-0.1,0-0.3,0-0.4    c0-0.1-0.1-0.3-0.1-0.5c-0.1-0.2-0.1-0.3-0.2-0.5c-0.1-0.2-0.1-0.3-0.2-0.5c-0.1-0.1-0.2-0.3-0.3-0.4c-0.1-0.1-0.1-0.2-0.2-0.3    c-0.1-0.1-0.2-0.2-0.3-0.4c-0.1-0.1-0.3-0.3-0.4-0.4c-0.1-0.1-0.3-0.3-0.5-0.4c-0.2-0.1-0.3-0.2-0.5-0.3c-0.1-0.1-0.3-0.1-0.4-0.2    c-0.1,0-0.3-0.1-0.4-0.1c-0.1,0-0.2,0-0.3,0.1c-0.1,0-0.2,0.1-0.2,0.1C34,51.9,34,52,33.9,52.1s-0.1,0.3-0.1,0.5    c0,0.1,0,0.2,0,0.4c0,0.1,0,0.3,0.1,0.4c0.1,0.2,0.1,0.4,0.2,0.6c0.1,0.2,0.2,0.4,0.3,0.6c0.1,0.1,0.1,0.3,0.2,0.4    c0.1,0.1,0.1,0.2,0.2,0.3c0.1,0.1,0.2,0.2,0.3,0.4c0.1,0.1,0.3,0.3,0.4,0.4c0.2,0.1,0.3,0.3,0.5,0.4c0.2,0.1,0.4,0.2,0.6,0.3    c0.1,0.1,0.2,0.1,0.4,0.2c0.1,0,0.3,0.1,0.4,0.1c0.1,0,0.2,0,0.3-0.1c0.1,0,0.2-0.1,0.2-0.1C38,56.7,38.1,56.6,38.1,56.5z"></path>
		<path fill="#333333" d="M57.3,55.5c-0.3,0.4-0.7,0.9-1,1.3c-0.3,0.5-0.7,0.9-1,1.4c-0.3,0.4-0.7,0.9-1,1.3    c-0.3,0.4-0.7,0.8-1.1,1.1c-0.4,0.3-0.9,0.5-1.3,0.7c-0.2,0-0.3,0.1-0.5,0.1c-0.2,0-0.3,0-0.5,0c-0.6,0-1.1-0.2-1.5-0.6    c-0.4-0.4-0.7-1.1-0.7-2c0-0.3,0-0.6-0.1-0.9c0-0.3,0-0.6-0.1-0.9c0-0.3,0-0.5-0.1-0.8c0-0.3,0-0.6-0.1-0.9L46,60.3l-3.3,0.8    c0-0.8,0-1.6,0.1-2.4c0-0.8,0-1.6,0.1-2.4c0-0.8,0-1.6,0-2.4c0-0.8,0-1.6,0.1-2.4l3.8-1.4l0.2,6.1c0.2-0.3,0.3-0.7,0.5-1    c0.2-0.3,0.3-0.7,0.5-1c0.2-0.3,0.3-0.7,0.5-1c0.2-0.3,0.3-0.7,0.5-1c0.2-0.4,0.4-0.6,0.6-0.9c0.2-0.2,0.5-0.4,0.7-0.5    c0.1,0,0.2-0.1,0.4-0.1c0.1,0,0.3,0,0.4,0c0.5,0,1,0.2,1.4,0.5c0.4,0.3,0.6,0.8,0.7,1.3c0.1,1.1,0.1,2.2,0.2,3.3    c0.1,1.1,0.1,2.2,0.2,3.3c0.5-0.6,0.9-1.2,1.4-1.8c0.4-0.6,0.9-1.2,1.3-1.8c0-0.1,0.1-0.1,0.2-0.2c0.1-0.1,0.1-0.1,0.2-0.2    c0.2-0.2,0.3-0.5,0.5-0.7c0.2-0.2,0.3-0.5,0.5-0.7c0.1-0.1,0.1-0.2,0.2-0.2c0.1,0,0.1,0,0.2,0c0.1,0,0.3,0,0.4,0.1    c0.1,0.1,0.2,0.2,0.1,0.4c0,0,0,0.1,0,0.2c0,0.1,0,0.1-0.1,0.2C57.9,54.6,57.6,55,57.3,55.5z"></path>
		<path fill="#333333" d="M68.7,57.6c-0.7,0.8-1.4,1.6-2.1,2.4c-0.3,0.4-0.7,0.7-1,0.9c-0.4,0.2-0.8,0.3-1.3,0.3    c-0.7,0-1.2-0.2-1.7-0.6c-0.5-0.4-0.8-0.9-1.1-1.4c0,0,0,0.1-0.1,0.2c0,0.1-0.1,0.1-0.1,0.2c-0.2,0.4-0.6,0.8-1,1.2    c-0.4,0.4-0.9,0.5-1.4,0.5c0,0,0,0-0.1,0c0,0,0,0-0.1,0c-0.7-0.1-1.2-0.5-1.6-1.3c-0.4-0.8-0.6-1.8-0.6-3c0-0.2,0-0.4,0-0.6    c0-0.2,0-0.4,0.1-0.5c0-0.3,0.1-0.6,0.2-1c0.1-0.4,0.2-0.8,0.3-1.2c0.3-0.7,0.7-1.4,1.1-2.1c0.5-0.6,1.1-1,1.8-1c0,0,0.1,0,0.1,0    c0,0,0.1,0,0.1,0c0.1,0,0.2,0,0.3,0.1c0.1,0,0.2,0.1,0.3,0.1c0,0,0.1,0.1,0.1,0.1c0,0,0.1,0.1,0.1,0.1v-0.4h4.6v8.8l0,0v0    c0.4-0.4,0.7-0.8,1.1-1.2c0.3-0.4,0.7-0.8,1.1-1.2c0.3-0.4,0.7-0.8,1-1.2c0.3-0.4,0.7-0.8,1.1-1.2c0-0.1,0.1-0.1,0.2-0.2    c0.1,0,0.1,0,0.2,0c0.1,0,0.3,0,0.4,0.1c0.1,0.1,0.1,0.2,0.1,0.4c0,0,0,0.1,0,0.1c0,0,0,0.1,0,0.1c0,0,0,0.1,0,0.1    c0,0,0,0.1-0.1,0.1C70.1,56,69.4,56.8,68.7,57.6z M61.2,52.5c0,0,0-0.1-0.1-0.1c0,0,0-0.1-0.1-0.2c-0.1-0.1-0.2-0.2-0.3-0.4    c-0.1-0.1-0.2-0.2-0.4-0.2c-0.4,0-0.7,0.2-0.8,0.7c-0.2,0.5-0.3,1-0.3,1.6c0,0.1,0,0.1,0,0.2c0,0.1,0,0.1,0,0.2    c0,0.7,0.2,1.4,0.4,2c0.2,0.6,0.6,0.9,1,0.9c0,0,0,0,0.1,0c0,0,0,0,0.1,0c0,0,0.1-0.1,0.2-0.1c0.1,0,0.1-0.1,0.1-0.1V52.5z"></path>
		<path fill="#333333" d="M79.5,55c-0.1,0.2-0.3,0.3-0.4,0.5c-0.1,0.2-0.2,0.3-0.4,0.5c-0.1,0.2-0.3,0.3-0.4,0.5    c-0.4,0.5-0.9,1.1-1.3,1.6c-0.5,0.5-0.9,1-1.4,1.5c-0.1,0.1-0.2,0.1-0.2,0.2c-0.1,0.1-0.2,0.1-0.2,0.2c-0.4,0.3-0.9,0.7-1.3,0.9    c-0.5,0.3-1,0.4-1.5,0.4c-0.1,0-0.2,0-0.3,0c-0.1,0-0.2,0-0.3-0.1c-0.2,0-0.5-0.2-0.7-0.3c-0.2-0.2-0.4-0.4-0.6-0.7    c-0.1-0.3-0.3-0.6-0.3-1C70,58.7,70,58.3,70,57.7c0-0.5,0-1,0-1.5c0-0.5,0-1,0.1-1.5c0-0.5,0-1,0.1-1.5c0-0.5,0-1,0-1.5    c-0.3,0-0.6,0-1,0c-0.3,0-0.7,0-1,0c-0.2,0-0.3-0.1-0.4-0.2c-0.1-0.1-0.1-0.2-0.1-0.4c0,0,0,0,0-0.1c0-0.1,0.1-0.2,0.2-0.3    c0.1-0.1,0.2-0.1,0.4-0.1c0.3,0,0.7,0,1,0c0.3,0,0.7,0,1,0c0-1.2,0.1-2.4,0.1-3.6c0-1.2,0.1-2.4,0.1-3.6l3.6-1.9l-0.1,9.1    c0.5,0,0.9,0,1.4,0c0.4,0,0.9,0,1.4,0c0.2,0,0.3,0.1,0.4,0.2c0.1,0.1,0.1,0.2,0.1,0.4c0,0,0,0,0,0.1s0,0,0,0    c0,0.1-0.1,0.2-0.2,0.3c-0.1,0.1-0.2,0.1-0.4,0.1c-0.2,0-0.4,0-0.7,0c-0.2,0-0.5,0-0.7,0c-0.2,0-0.5,0-0.7,0c-0.2,0-0.5,0-0.7,0    c0,1.1,0,2.3-0.1,3.4c0,1.1,0,2.3-0.1,3.4c0,0.1,0,0.2,0.1,0.3c0.1,0.1,0.1,0.1,0.2,0.1c0,0,0.1,0,0.1,0c0,0,0.1,0,0.2-0.1    c0,0,0.1-0.1,0.2-0.1c0.1,0,0.1-0.1,0.2-0.1c0,0,0,0,0.1-0.1c0,0,0,0,0.1-0.1c0.4-0.4,0.7-0.8,1.1-1.2c0.4-0.4,0.7-0.8,1.1-1.2    c0.4-0.4,0.7-0.8,1.1-1.2c0.3-0.4,0.7-0.8,1.1-1.2c0.1-0.1,0.1-0.1,0.2-0.2c0.1,0,0.1,0,0.2,0c0.1,0,0.3,0,0.4,0.1    c0.1,0.1,0.1,0.2,0.1,0.4c0,0,0,0.1,0,0.1c0,0,0,0.1,0,0.1c0,0,0,0.1,0,0.1c0,0,0,0.1-0.1,0.1C79.8,54.6,79.7,54.8,79.5,55z"></path>
		<path fill="#333333" d="M92.4,55.5c-0.3,0.4-0.5,0.9-0.8,1.3c-0.3,0.5-0.5,0.9-0.8,1.4c-0.3,0.4-0.6,0.9-0.8,1.3    c-0.3,0.5-0.6,0.8-1,1.2c-0.4,0.3-0.8,0.5-1.2,0.6c-0.1,0-0.3,0.1-0.4,0.1c-0.1,0-0.3,0-0.4,0c-0.5,0-1-0.2-1.4-0.6    c-0.4-0.4-0.7-1.1-0.8-2c0-0.6-0.1-1.3-0.2-1.9c-0.1-0.6-0.1-1.3-0.2-1.9l-1.7,3.5l0,2.6h-4.1c0-1.3,0-2.6,0-3.8    c0-1.3,0-2.6,0-3.8c0-1.3,0-2.6,0-3.8c0-1.3,0-2.6,0-3.8c0-1.1,0.1-2.1,0.3-3c0.2-0.9,0.5-1.6,0.9-2.3c0,0,0-0.1,0.1-0.1    c0,0,0.1-0.1,0.1-0.1c0.3-0.5,0.7-1,1.3-1.4c0.5-0.4,1.1-0.7,1.6-0.8c0.1,0,0.2,0,0.2,0c0.1,0,0.2,0,0.3,0c0.4,0,0.7,0.1,1,0.3    c0.3,0.2,0.6,0.5,0.8,1c0.2,0.3,0.3,0.6,0.4,1c0.1,0.3,0.1,0.7,0.1,1c0,0.1,0,0.2,0,0.2c0,0.1,0,0.2,0,0.3c0,0.3,0,0.6,0,0.8    c0,0.3-0.1,0.5-0.1,0.8c-0.2,1.2-0.5,2.4-1,3.5c-0.5,1.2-1.2,2.2-2,3.1l0,6.2c0.2-0.4,0.3-0.7,0.5-1.1c0.2-0.3,0.4-0.7,0.5-1.1    c0.2-0.4,0.3-0.7,0.5-1.1c0.2-0.3,0.4-0.7,0.5-1.1c0.2-0.4,0.5-0.8,0.8-1c0.3-0.3,0.7-0.4,1.2-0.4c0,0,0.1,0,0.2,0    c0.1,0,0.1,0,0.2,0c0.3,0,0.6,0.2,0.9,0.4c0.3,0.2,0.4,0.5,0.5,0.9c0,0.6,0.1,1.2,0.2,1.8c0.1,0.6,0.1,1.2,0.2,1.8    c0,0.6,0.1,1.2,0.2,1.8c0.1,0.6,0.1,1.2,0.2,1.8c0.3-0.4,0.5-0.9,0.8-1.3c0.3-0.4,0.6-0.9,0.8-1.3c0.3-0.4,0.5-0.9,0.8-1.3    c0.3-0.4,0.5-0.9,0.8-1.3c0.1-0.1,0.2-0.2,0.2-0.3c0.1,0,0.2-0.1,0.3,0c0.1,0,0.2,0.1,0.3,0.2c0.1,0.1,0.1,0.2,0.1,0.4    c0,0,0,0.1,0,0.1c0,0.1,0,0.1-0.1,0.2C92.9,54.6,92.7,55,92.4,55.5z M84.7,41.4c0-0.3-0.1-0.5-0.1-0.8c-0.1-0.3-0.2-0.6-0.3-0.9    c-0.1-0.3-0.3-0.4-0.5-0.4c-0.3,0-0.6,0.2-0.8,0.6c-0.2,0.4-0.3,0.9-0.4,1.4c0,0.4-0.1,0.8-0.1,1.1c0,0.4,0,0.6,0,0.8    c0,0.4,0,0.9,0,1.3c0,0.4,0,0.9,0,1.3c0,0.4,0,0.9,0,1.3c0,0.4,0,0.9,0,1.3c0.6-0.8,1.1-1.7,1.4-2.7c0.4-1,0.6-2,0.7-3    c0-0.1,0-0.3,0-0.4c0-0.1,0-0.3,0-0.4C84.7,41.8,84.7,41.7,84.7,41.4z"></path>
		<path fill="#333333" d="M104.2,57.6c-0.7,0.8-1.4,1.6-2.1,2.4c-0.3,0.4-0.7,0.7-1,0.9c-0.4,0.2-0.8,0.3-1.3,0.3    c-0.7,0-1.2-0.2-1.7-0.6c-0.5-0.4-0.8-0.9-1.1-1.4c0,0,0,0.1-0.1,0.2c0,0.1-0.1,0.1-0.1,0.2c-0.2,0.4-0.6,0.8-1,1.2    c-0.4,0.4-0.9,0.5-1.4,0.5c0,0,0,0-0.1,0c0,0,0,0-0.1,0c-0.7-0.1-1.2-0.5-1.6-1.3c-0.4-0.8-0.6-1.8-0.6-3c0-0.2,0-0.4,0-0.6    c0-0.2,0-0.4,0.1-0.5c0-0.3,0.1-0.6,0.2-1c0.1-0.4,0.2-0.8,0.3-1.2c0.3-0.7,0.7-1.4,1.1-2.1c0.5-0.6,1.1-1,1.8-1c0,0,0.1,0,0.1,0    c0,0,0.1,0,0.1,0c0.1,0,0.2,0,0.3,0.1c0.1,0,0.2,0.1,0.3,0.1c0,0,0.1,0.1,0.1,0.1c0,0,0.1,0.1,0.1,0.1v-0.4h4.6v8.8l0,0v0    c0.4-0.4,0.7-0.8,1.1-1.2c0.3-0.4,0.7-0.8,1.1-1.2c0.3-0.4,0.7-0.8,1-1.2c0.3-0.4,0.7-0.8,1.1-1.2c0-0.1,0.1-0.1,0.2-0.2    c0.1,0,0.1,0,0.2,0c0.1,0,0.3,0,0.4,0.1c0.1,0.1,0.1,0.2,0.1,0.4c0,0,0,0.1,0,0.1c0,0,0,0.1,0,0.1c0,0,0,0.1,0,0.1    c0,0,0,0.1-0.1,0.1C105.6,56,104.9,56.8,104.2,57.6z M96.7,52.5c0,0,0-0.1-0.1-0.1c0,0,0-0.1-0.1-0.2c-0.1-0.1-0.2-0.2-0.3-0.4    c-0.1-0.1-0.2-0.2-0.4-0.2c-0.4,0-0.7,0.2-0.8,0.7c-0.2,0.5-0.3,1-0.3,1.6c0,0.1,0,0.1,0,0.2c0,0.1,0,0.1,0,0.2    c0,0.7,0.2,1.4,0.4,2c0.2,0.6,0.6,0.9,1,0.9c0,0,0,0,0.1,0c0,0,0,0,0.1,0c0,0,0.1-0.1,0.2-0.1c0.1,0,0.1-0.1,0.1-0.1V52.5z"></path>
		<path fill="#333333" d="M119.9,55.5c-0.3,0.4-0.7,0.9-1,1.3c-0.3,0.5-0.7,0.9-1,1.4c-0.3,0.4-0.7,0.9-1,1.3    c-0.3,0.4-0.7,0.8-1.1,1.1c-0.4,0.3-0.9,0.5-1.3,0.7c-0.2,0-0.3,0.1-0.5,0.1c-0.2,0-0.3,0-0.5,0c-0.6,0-1.1-0.2-1.5-0.6    c-0.4-0.4-0.7-1.1-0.7-2c0-0.3,0-0.6-0.1-0.9c0-0.3,0-0.6-0.1-0.9c0-0.3,0-0.5-0.1-0.8c0-0.3,0-0.6-0.1-0.9l-2.3,4.9l-3.3,0.8    c0-0.8,0-1.6,0.1-2.4c0-0.8,0-1.6,0.1-2.4c0-0.8,0-1.6,0-2.4c0-0.8,0-1.6,0.1-2.4l3.8-1.4l0.2,6.1c0.2-0.3,0.3-0.7,0.5-1    c0.2-0.3,0.3-0.7,0.5-1c0.2-0.3,0.3-0.7,0.5-1c0.2-0.3,0.3-0.7,0.5-1c0.2-0.4,0.4-0.6,0.6-0.9c0.2-0.2,0.5-0.4,0.7-0.5    c0.1,0,0.2-0.1,0.4-0.1c0.1,0,0.3,0,0.4,0c0.5,0,1,0.2,1.4,0.5c0.4,0.3,0.6,0.8,0.7,1.3c0.1,1.1,0.1,2.2,0.2,3.3    c0.1,1.1,0.1,2.2,0.2,3.3c0.5-0.6,0.9-1.2,1.4-1.8c0.4-0.6,0.9-1.2,1.3-1.8c0-0.1,0.1-0.1,0.2-0.2c0.1-0.1,0.1-0.1,0.2-0.2    c0.2-0.2,0.3-0.5,0.5-0.7c0.2-0.2,0.3-0.5,0.5-0.7c0.1-0.1,0.1-0.2,0.2-0.2c0.1,0,0.1,0,0.2,0c0.1,0,0.3,0,0.4,0.1    c0.1,0.1,0.2,0.2,0.1,0.4c0,0,0,0.1,0,0.2c0,0.1,0,0.1-0.1,0.2C120.5,54.6,120.2,55,119.9,55.5z"></path>
		<path fill="#333333" d="M152.4,52.2c-0.1,0.6-0.3,1.1-0.6,1.7c-0.5,1.1-1.1,2.2-1.9,3.2c-0.8,1-1.6,1.9-2.5,2.6    c-0.2,0.2-0.5,0.4-0.7,0.6c-0.2,0.2-0.5,0.3-0.7,0.4c-0.2,0.1-0.5,0.2-0.8,0.3c-0.3,0.1-0.6,0.1-0.9,0.1c-0.4,0-0.8,0-1.2-0.1    c-0.4-0.1-0.9-0.2-1.3-0.3c-0.5-0.1-0.9-0.3-1.4-0.5c-0.5-0.2-0.9-0.4-1.3-0.6c-0.5-0.2-0.9-0.4-1.3-0.6c-0.4-0.2-0.7-0.4-1-0.5    l-0.5,2.7c-0.1-0.1-0.2-0.1-0.3-0.2c-0.1-0.1-0.2-0.1-0.3-0.2c-1.4-0.9-2.4-1.8-3.1-2.9c-0.7-1-1.4-2.3-2-3.9l2.6-2.8    c0.6,0.4,1.2,0.9,1.7,1.3c0.6,0.4,1.2,0.8,1.7,1.2l0.5-2.5c-1.4-0.3-2.8-0.7-4.1-1.4c-1.3-0.6-2.6-1.3-3.8-2.1    c-0.5-0.3-0.8-0.6-1-1c-0.2-0.4-0.3-0.8-0.3-1.3c0-0.1,0-0.2,0-0.3c0-0.1,0-0.2,0.1-0.3c0.1-0.6,0.3-1.2,0.7-1.8    c0.4-0.6,0.8-1,1.2-1.4c1.2-1,2.5-1.7,3.9-2.2c1.4-0.5,2.8-0.8,4.3-0.8c0.3,0,0.5,0,0.8,0c0.3,0,0.5,0,0.7,0c0-0.3,0.1-0.7,0.2-1    c0.1-0.3,0.1-0.7,0.2-1c0-0.2,0.1-0.3,0.2-0.4c0.1-0.1,0.2-0.1,0.3-0.1c0.1,0,0.2,0.1,0.3,0.2c0.1,0.1,0.1,0.2,0.1,0.3    c0,0,0,0,0,0.1c0,0,0,0,0,0.1l-0.4,1.9c3.1,0.4,5.8,1.7,8.2,3.9c2.4,2.2,3.6,4.9,3.8,8.1C152.6,51.1,152.5,51.6,152.4,52.2z     M138.4,42.1c-0.1,0-0.3-0.1-0.5-0.1c-0.4-0.1-0.9-0.1-1.5-0.2c-0.6-0.1-1.2-0.1-1.8-0.1c-0.1,0-0.1,0-0.2,0c-0.1,0-0.1,0-0.2,0    c-1,0-1.9,0.1-2.7,0.4c-0.8,0.2-1.4,0.7-1.7,1.4c0,0,0,0.1,0,0.1c0,0,0,0.1,0,0.1c0,0,0,0.1,0,0.1c0,0,0,0.1,0,0.1    c0,0.6,0.4,1.1,1.3,1.5c0.9,0.5,1.8,0.9,2.9,1.2c0.8,0.3,1.6,0.5,2.3,0.6c0.7,0.2,1.2,0.3,1.6,0.3l1-5.2    C138.7,42.2,138.5,42.2,138.4,42.1z M133.9,56.7c-0.6-0.4-1.1-0.7-1.7-1c0.4,0.8,0.8,1.5,1.3,2.1c0.5,0.6,1.1,1.2,1.8,1.7l0.3-1.6    C135.1,57.4,134.5,57,133.9,56.7z M146.1,45.9c-1.7-1.5-3.8-2.6-6.3-3.4l-1,5.1c0.8,0.1,1.6,0.2,2.4,0.2c0.8,0,1.6,0.1,2.4,0.1    c-0.5,1-1.2,1.9-1.9,2.5c-0.8,0.6-1.8,0.9-2.9,0.9c0,0-0.1,0-0.1,0c0,0-0.1,0-0.1,0c-0.1,0-0.1,0-0.2,0c0,0-0.1,0-0.1,0l-0.6,3    c1.1,0.8,2.3,1.5,3.5,2.1c1.2,0.7,2.5,1.2,3.8,1.7c0.3,0.1,0.5,0.2,0.7,0.2c0.2,0,0.5,0.1,0.7,0.1c1,0,1.8-0.5,2.4-1.4    c0.6-0.9,0.9-1.9,1-3c0-0.1,0-0.1,0-0.2c0-0.1,0-0.2,0-0.2c0-0.3,0-0.5,0-0.7c0-0.2-0.1-0.5-0.1-0.7    C148.9,49.4,147.8,47.4,146.1,45.9z"></path>
		<path fill="#333333" d="M166.3,53.9c0,0.1-0.1,0.1-0.1,0.2c-0.5,0.7-1.2,1.4-2,2c-0.8,0.6-1.7,0.9-2.6,0.9c0,0-0.1,0-0.1,0    s-0.1,0-0.1,0c0,0-0.1,0-0.1,0c0,0-0.1,0-0.1,0c-0.2,0.5-0.4,0.9-0.6,1.3c-0.2,0.4-0.5,0.8-0.8,1.2c-0.4,0.5-0.9,0.9-1.4,1.2    c-0.5,0.3-1,0.5-1.6,0.5c-0.1,0-0.1,0-0.2,0c-0.1,0-0.1,0-0.2,0c-0.5,0-1-0.1-1.5-0.4c-0.5-0.3-0.9-0.7-1.3-1.3    c-0.3-0.5-0.5-1-0.7-1.5c-0.1-0.5-0.2-1.1-0.2-1.7c0-0.1,0-0.2,0-0.4c0-0.1,0-0.3,0-0.4c0.1-0.9,0.3-1.7,0.6-2.5    c0.3-0.8,0.8-1.5,1.3-2.1c0.5-0.6,1-1,1.6-1.3c0.6-0.3,1.2-0.5,1.8-0.5c1.1,0,2,0.4,2.5,1.3c0.6,0.8,0.9,1.8,1,2.7    c0,0.1,0,0.1,0,0.2c0,0.1,0,0.1,0,0.2c0,0.2,0,0.3,0,0.5c0,0.2,0,0.4,0,0.6c0,0.2,0,0.4-0.1,0.6c0,0.2-0.1,0.4-0.1,0.6    c0,0,0.1,0,0.1,0c0,0,0.1,0,0.1,0c0.7,0,1.3-0.2,1.9-0.6c0.6-0.4,1.1-0.9,1.5-1.4c0.1-0.1,0.2-0.2,0.3-0.4    c0.1-0.1,0.2-0.2,0.2-0.4c0-0.1,0.1-0.2,0.2-0.2c0.1,0,0.2-0.1,0.3-0.1c0.1,0,0.3,0,0.4,0.1c0.1,0.1,0.1,0.2,0.1,0.4    c0,0,0,0.1,0,0.1c0,0.1,0,0.1-0.1,0.2C166.4,53.8,166.3,53.8,166.3,53.9z M160.2,56.5c0-0.1,0.1-0.3,0.1-0.5c0-0.1,0-0.3,0-0.4    c0-0.1-0.1-0.3-0.1-0.5c-0.1-0.2-0.1-0.3-0.2-0.5c-0.1-0.2-0.1-0.3-0.2-0.5c-0.1-0.1-0.2-0.3-0.3-0.4c-0.1-0.1-0.1-0.2-0.2-0.3    c-0.1-0.1-0.2-0.2-0.3-0.4c-0.1-0.1-0.3-0.3-0.4-0.4c-0.1-0.1-0.3-0.3-0.5-0.4c-0.2-0.1-0.3-0.2-0.5-0.3c-0.1-0.1-0.3-0.1-0.4-0.2    c-0.1,0-0.3-0.1-0.4-0.1c-0.1,0-0.2,0-0.3,0.1c-0.1,0-0.2,0.1-0.2,0.1c-0.1,0.1-0.2,0.2-0.3,0.4c-0.1,0.1-0.1,0.3-0.1,0.5    c0,0.1,0,0.2,0,0.4c0,0.1,0,0.3,0.1,0.4c0.1,0.2,0.1,0.4,0.2,0.6c0.1,0.2,0.2,0.4,0.3,0.6c0.1,0.1,0.1,0.3,0.2,0.4    c0.1,0.1,0.1,0.2,0.2,0.3c0.1,0.1,0.2,0.2,0.3,0.4c0.1,0.1,0.3,0.3,0.4,0.4c0.2,0.1,0.3,0.3,0.5,0.4c0.2,0.1,0.4,0.2,0.6,0.3    c0.1,0.1,0.2,0.1,0.4,0.2c0.1,0,0.3,0.1,0.4,0.1c0.1,0,0.2,0,0.3-0.1c0.1,0,0.2-0.1,0.2-0.1C160,56.7,160.1,56.6,160.2,56.5z"></path>
		<path fill="#333333" d="M176.7,54c0,0.2,0,0.3-0.1,0.5c-0.4,1.7-1.4,3.2-2.8,4.6c-1.4,1.4-3,2.1-4.8,2.1c0,0-0.1,0-0.1,0    c0,0-0.1,0-0.1,0c0,0-0.1,0-0.1,0c0,0-0.1,0-0.1,0c-1.1-0.1-2-0.6-2.7-1.6c-0.7-1-1-2.2-1-3.7c0-0.1,0-0.2,0-0.2    c0-0.1,0-0.2,0-0.2c0-0.1,0-0.2,0-0.2c0-0.1,0-0.2,0-0.2c0.1-0.8,0.3-1.6,0.6-2.3c0.3-0.7,0.7-1.3,1.1-1.9c0,0,0.1-0.1,0.1-0.2    c0-0.1,0.1-0.1,0.1-0.2c0.4-0.5,0.9-0.9,1.4-1.2c0.5-0.4,1.1-0.5,1.7-0.5c0.1,0,0.1,0,0.2,0c0.1,0,0.1,0,0.2,0    c0.6,0.1,1.1,0.5,1.4,1c0.3,0.5,0.5,1,0.6,1.6c0,0.1,0,0.2,0,0.3c0,0.1,0,0.2,0,0.3c0,0.2,0,0.4,0,0.7c0,0.2-0.1,0.5-0.1,0.7    c-0.2,0.8-0.5,1.5-0.9,2.2c-0.4,0.7-1,1.2-1.7,1.6c0.2,0.1,0.4,0.3,0.7,0.4c0.2,0.1,0.5,0.2,0.7,0.2c0.1,0,0.2,0,0.3,0.1    c0.1,0,0.2,0,0.3,0c0.5,0,1-0.1,1.4-0.3c0.5-0.2,0.9-0.5,1.3-0.9c0.4-0.4,0.7-0.8,0.9-1.3c0.2-0.5,0.4-1.1,0.4-1.7    c0-0.2,0.1-0.3,0.2-0.4c0.1-0.1,0.2-0.1,0.3-0.1c0,0,0.1,0,0.1,0c0.1,0,0.2,0.1,0.3,0.1s0.1,0.2,0.1,0.3c0,0,0,0,0,0.1    c0,0,0,0,0,0.1C176.7,53.7,176.7,53.9,176.7,54z M170.1,51.9c0-0.1,0-0.2-0.1-0.4c-0.1-0.2-0.2-0.4-0.3-0.6    c-0.1-0.2-0.3-0.3-0.5-0.3c-0.5,0-0.8,0.2-1,0.5c-0.2,0.3-0.4,0.7-0.4,1.1c0,0.1,0,0.2-0.1,0.4c0,0.1,0,0.2,0,0.3c0,0,0,0.1,0,0.1    c0,0,0,0.1,0,0.1c0,0,0,0.1,0,0.1c0,0,0,0.1,0,0.1c0,0.5,0.1,0.9,0.3,1.3c0.1,0.4,0.3,0.8,0.6,1.2c0.4-0.4,0.8-0.8,1-1.4    c0.3-0.5,0.5-1.1,0.5-1.6c0-0.1,0-0.2,0.1-0.4c0-0.1,0-0.2,0-0.4C170.1,52.1,170.1,52.1,170.1,51.9z"></path>
	</g>
	<g>
		<path fill="#333333" d="M49.8,72.1c0.1,0,0.1,0,0.2,0c0.1,0,0.2,0,0.3,0c0.1,0,0.2,0.1,0.4,0.1c0.1,0,0.2,0.1,0.4,0.1    c0.1,0.1,0.2,0.1,0.3,0.2c0.1,0.1,0.1,0.2,0.1,0.3c0,0.3-0.1,0.5-0.2,0.7c-0.1,0.2-0.3,0.4-0.5,0.5s-0.4,0.3-0.7,0.3    c-0.2,0.1-0.5,0.2-0.7,0.2c-0.2,0.1-0.5,0.1-0.7,0.1c-0.2,0-0.4,0-0.6,0l0,1.6c0,0,0,0.1-0.1,0.1c0,0-0.1,0-0.2,0s-0.1,0-0.2,0    c-0.1,0-0.1,0-0.1,0c0-0.3,0-0.5,0-0.8c0-0.3,0-0.6,0-0.8c0-0.4,0-0.7,0.1-0.9c0-0.3,0-0.5,0.1-0.7c0-0.2,0.1-0.4,0.2-0.5    c0.1-0.1,0.2-0.2,0.3-0.3c0.2-0.1,0.4-0.1,0.6-0.2C49.1,72.1,49.4,72.1,49.8,72.1z M48.3,73.3c0,0.1,0,0.1,0,0.2    c0,0.1,0,0.2,0,0.2c0,0.1,0,0.2,0,0.3c0,0.1,0,0.2,0,0.2c0,0.1,0.1,0.1,0.1,0.1c0.1,0,0.1,0,0.2,0c0.1,0,0.2,0,0.4,0    c0.2,0,0.3,0,0.5-0.1c0.2,0,0.4-0.1,0.5-0.1c0.2-0.1,0.3-0.1,0.5-0.2c0.1-0.1,0.3-0.2,0.4-0.3c0.1-0.1,0.1-0.3,0.1-0.4    c0-0.1-0.1-0.2-0.2-0.3c-0.1-0.1-0.2-0.2-0.3-0.2c-0.1,0-0.3-0.1-0.4-0.1c-0.2,0-0.3,0-0.5,0c-0.2,0-0.3,0-0.5,0.1    c-0.2,0-0.3,0.1-0.4,0.2c-0.1,0.1-0.2,0.1-0.3,0.2C48.3,73.1,48.3,73.2,48.3,73.3z"></path>
		<path fill="#333333" d="M56.1,74.6c-0.1,0-0.1,0-0.2-0.1c0,0-0.1-0.1-0.1-0.1c0,0,0-0.1,0-0.1c0,0,0.1-0.1,0.1-0.2    c0-0.1,0.1-0.1,0.1-0.2c0-0.1,0.1-0.1,0.1-0.2c0,0,0-0.1,0-0.2c0-0.1,0-0.2,0-0.4c0-0.1,0-0.3,0-0.4c0-0.1,0-0.3,0-0.4    c0-0.1,0-0.3,0-0.4c0-0.1,0-0.2,0-0.2c0,0,0.1-0.1,0.1-0.1c0,0,0.1-0.1,0.1-0.1c0,0,0.1,0,0.1,0c0,0,0.1,0,0.1,0.1l0,2.2    c0,0,0.1,0,0.1,0c0.1,0,0.2,0,0.3,0c0.1,0,0.3,0,0.4,0c0.1,0,0.3,0,0.4,0c0.1,0,0.3,0,0.4-0.1c0.1,0,0.2-0.1,0.3-0.1v-2.3    c0,0,0-0.1,0.1-0.1c0,0,0.1,0,0.1,0c0.1,0,0.1,0,0.2,0c0,0,0.1,0,0.1,0c0,0.1,0,0.2,0,0.4c0,0.2,0,0.4,0,0.6c0,0.2,0,0.5,0,0.7    c0,0.3,0,0.5,0,0.7c0,0.2,0,0.4,0,0.6c0,0.2,0,0.3,0,0.4c0,0.3,0,0.5,0.1,0.7c0,0.2,0.1,0.5,0.2,0.7c-0.1,0-0.2,0.1-0.3,0.1    c-0.1,0-0.2,0-0.4,0c-0.1-0.3-0.2-0.7-0.2-1.1c0-0.4-0.1-0.7-0.1-1.1c-0.2,0-0.3,0-0.5,0c-0.1,0-0.3,0-0.4,0c-0.1,0-0.3,0-0.4,0.1    c-0.1,0-0.3,0.1-0.5,0.2c0,0.3,0,0.6,0,0.9c0,0.3,0.1,0.6,0.1,0.9l-0.5,0.3L56.1,74.6z"></path>
		<path fill="#333333" d="M64.1,74.3c0-0.3,0.1-0.6,0.2-0.9c0.1-0.3,0.2-0.5,0.4-0.7c0.2-0.2,0.4-0.3,0.6-0.4    c0.2-0.1,0.5-0.2,0.8-0.2c0.3,0,0.5,0,0.8,0.1c0.3,0.1,0.5,0.2,0.7,0.3c0.2,0.2,0.4,0.4,0.5,0.6c0.1,0.2,0.2,0.5,0.2,0.9    c0,0.8-0.2,1.4-0.5,1.7c-0.3,0.4-0.8,0.6-1.5,0.6c-0.3,0-0.6,0-0.8-0.1c-0.2-0.1-0.5-0.2-0.6-0.4c-0.2-0.2-0.3-0.4-0.4-0.6    C64.2,75,64.1,74.7,64.1,74.3z M64.6,74.2c0,0.6,0.1,1,0.4,1.3c0.3,0.3,0.6,0.4,1.1,0.4c0.3,0,0.5,0,0.7-0.1    c0.2-0.1,0.4-0.2,0.5-0.4c0.1-0.2,0.3-0.3,0.3-0.6c0.1-0.2,0.1-0.5,0.1-0.7c0-0.3-0.1-0.5-0.2-0.7c-0.1-0.2-0.2-0.3-0.4-0.5    c-0.2-0.1-0.4-0.2-0.6-0.3c-0.2-0.1-0.4-0.1-0.6-0.1c-0.2,0-0.4,0-0.6,0.1c-0.2,0.1-0.3,0.2-0.5,0.3c-0.1,0.1-0.2,0.3-0.3,0.5    C64.7,73.8,64.6,74,64.6,74.2z"></path>
		<path fill="#333333" d="M74,73l-1.4-0.1c0,0,0,0,0,0c0,0,0,0,0-0.1c0,0,0-0.1,0-0.1c0,0,0,0,0-0.1c0-0.1,0-0.1,0.1-0.2    c0-0.1,0.1-0.1,0.1-0.1c0.3,0,0.6,0,0.9,0.1c0.3,0,0.6,0.1,0.9,0.1c0.3,0,0.6,0,0.9,0c0.3,0,0.6,0,0.9-0.1c0,0,0,0,0.1,0.1    c0,0,0,0.1,0,0.1c0,0,0,0.1,0,0.2c0,0.1,0,0.1,0,0.1c-0.2,0.1-0.4,0.1-0.6,0.1c-0.2,0-0.3,0-0.5,0c-0.2,0-0.3,0-0.5,0    c-0.2,0-0.3,0-0.6,0c0,0.1,0,0.3,0,0.5c0,0.2,0,0.4,0,0.6c0,0.2,0,0.4,0,0.6c0,0.2,0,0.4,0,0.6c0,0.2,0,0.4,0,0.6    c0,0.2,0,0.4,0,0.5l-0.6,0.1L74,73z"></path>
		<path fill="#333333" d="M81,74.3c0-0.3,0.1-0.6,0.2-0.9c0.1-0.3,0.2-0.5,0.4-0.7c0.2-0.2,0.4-0.3,0.6-0.4c0.2-0.1,0.5-0.2,0.8-0.2    c0.3,0,0.5,0,0.8,0.1c0.3,0.1,0.5,0.2,0.7,0.3c0.2,0.2,0.4,0.4,0.5,0.6c0.1,0.2,0.2,0.5,0.2,0.9c0,0.8-0.2,1.4-0.5,1.7    c-0.3,0.4-0.8,0.6-1.5,0.6c-0.3,0-0.6,0-0.8-0.1c-0.2-0.1-0.5-0.2-0.6-0.4c-0.2-0.2-0.3-0.4-0.4-0.6C81,75,81,74.7,81,74.3z     M81.5,74.2c0,0.6,0.1,1,0.4,1.3c0.3,0.3,0.6,0.4,1.1,0.4c0.3,0,0.5,0,0.7-0.1c0.2-0.1,0.4-0.2,0.5-0.4c0.1-0.2,0.3-0.3,0.3-0.6    c0.1-0.2,0.1-0.5,0.1-0.7c0-0.3-0.1-0.5-0.2-0.7c-0.1-0.2-0.2-0.3-0.4-0.5c-0.2-0.1-0.4-0.2-0.6-0.3c-0.2-0.1-0.4-0.1-0.6-0.1    c-0.2,0-0.4,0-0.6,0.1c-0.2,0.1-0.3,0.2-0.5,0.3c-0.1,0.1-0.2,0.3-0.3,0.5C81.6,73.8,81.5,74,81.5,74.2z"></path>
		<path fill="#333333" d="M92.2,75.8c-0.1,0.1-0.3,0.2-0.4,0.3c-0.2,0.1-0.3,0.2-0.5,0.2c-0.2,0.1-0.3,0.1-0.5,0.1    c-0.2,0-0.3,0-0.5-0.1c-0.1-0.1-0.3-0.2-0.4-0.3c-0.1-0.1-0.2-0.3-0.3-0.4c-0.1-0.2-0.1-0.3-0.1-0.5c0-0.3,0.1-0.5,0.1-0.8    c0.1-0.3,0.1-0.5,0.2-0.8c0.1-0.2,0.2-0.5,0.4-0.7c0.1-0.2,0.3-0.4,0.5-0.6c0.2-0.2,0.4-0.3,0.6-0.4c0.2-0.1,0.5-0.1,0.7-0.1    c0,0,0.1,0,0.1,0c0.1,0,0.1,0,0.2,0c0,0,0.1,0,0.1,0.1c0,0,0,0.1,0,0.2c-0.3,0-0.7,0.1-1,0.3c-0.3,0.2-0.6,0.4-0.8,0.6    c-0.2,0.3-0.4,0.6-0.5,0.9c-0.1,0.4-0.2,0.7-0.2,1.1c0,0.2,0,0.3,0.1,0.4c0,0.1,0.1,0.2,0.2,0.3c0.1,0.1,0.2,0.1,0.3,0.2    c0.1,0,0.2,0.1,0.4,0.1c0.1,0,0.2,0,0.3,0c0.1,0,0.2-0.1,0.3-0.1c0.1,0,0.2-0.1,0.4-0.2c0.1-0.1,0.2-0.1,0.3-0.2    c0.1-0.1,0.2-0.2,0.2-0.3c0.1-0.1,0.1-0.2,0.1-0.3v-1.1c0,0-0.1,0-0.2,0c-0.1,0-0.2,0-0.3,0.1c-0.1,0-0.2,0-0.3,0.1    c-0.1,0-0.2,0.1-0.3,0.1c-0.1,0-0.2,0.1-0.3,0.1c-0.1,0-0.2,0-0.2,0c0,0-0.1,0-0.1,0c0,0,0,0,0-0.1c0,0,0-0.1,0.1-0.1    c0-0.1,0.1-0.1,0.2-0.2c0,0,0.1,0,0.1,0c0.1,0,0.2,0,0.3-0.1c0.1,0,0.3,0,0.4-0.1c0.2,0,0.3-0.1,0.5-0.1c0.2,0,0.3-0.1,0.5-0.1    c0.1,0,0.3,0,0.4-0.1c0,0,0.1,0,0.2,0c0.1,0,0.1,0,0.2,0c0.1,0,0.1,0,0.1,0.1c0,0,0.1,0.1,0,0.2l-0.5,0.2c0,0.1-0.1,0.2-0.1,0.4    c0,0.2,0,0.3,0,0.5c0,0.2,0,0.4,0,0.5c0,0.2,0,0.4,0,0.6c0,0.2,0,0.4,0,0.5c0,0.2,0,0.3,0,0.5c0,0-0.1,0-0.1,0.1    c-0.1,0-0.1,0-0.2,0c-0.1,0-0.1,0-0.2,0c-0.1,0-0.1,0-0.1-0.1v-1.3C92.5,75.6,92.4,75.7,92.2,75.8z"></path>
		<path fill="#333333" d="M99.1,76.2C99.1,76.3,99.1,76.3,99.1,76.2c-0.1,0.1-0.1,0.1-0.1,0.1c0,0-0.1,0-0.1,0c0,0-0.1,0-0.1,0    c-0.1,0-0.2,0-0.2-0.1c0-0.1-0.1-0.2-0.1-0.4c0-0.2,0-0.4,0-0.7c0-0.3,0-0.5,0-0.9c0-0.3,0-0.7,0-1c0-0.4,0-0.8-0.1-1.2    c0-0.1,0.1-0.1,0.1-0.1c0,0,0.1,0,0.1,0c0,0,0.1,0.1,0.1,0.1c0,0,0.1,0.1,0.1,0.1c0.1-0.1,0.3-0.2,0.4-0.3    c0.2-0.1,0.4-0.1,0.6-0.1c0.2,0,0.4,0,0.7,0c0.2,0,0.4,0.1,0.6,0.1c0.2,0.1,0.3,0.1,0.5,0.2c0.1,0.1,0.2,0.2,0.2,0.3    c0,0.1,0,0.2-0.2,0.4c-0.1,0.1-0.3,0.3-0.7,0.4c0,0-0.1,0.1-0.2,0.1c-0.1,0-0.2,0.1-0.3,0.1c-0.1,0-0.3,0.1-0.4,0.2    c-0.1,0.1-0.3,0.1-0.4,0.2c-0.1,0.1-0.2,0.1-0.3,0.1c-0.1,0-0.2,0.1-0.2,0.1c0,0,0,0,0,0.1c0,0,0.1,0,0.1,0.1    c0.1,0,0.2,0.1,0.3,0.2c0.1,0.1,0.3,0.2,0.5,0.3c0.2,0.1,0.5,0.3,0.8,0.5c0.3,0.2,0.7,0.5,1.2,0.8c0,0,0,0,0.1,0.1    c0,0,0,0,0.1,0.1c0,0,0,0.1,0.1,0.1c0,0,0,0.1,0,0.1c0,0,0,0.1-0.1,0.1c0,0-0.1,0-0.1,0.1c0,0-0.1,0-0.1,0c-0.1,0-0.1,0-0.1,0    c-0.1,0-0.1,0-0.3-0.1c-0.1-0.1-0.3-0.2-0.4-0.3c-0.2-0.1-0.4-0.3-0.5-0.4c-0.2-0.2-0.4-0.3-0.6-0.4c-0.2-0.1-0.4-0.3-0.6-0.4    c-0.2-0.1-0.4-0.2-0.5-0.3V76.2z M99,72.7c0,0.1-0.1,0.1-0.1,0.2c0,0.1,0,0.2,0,0.3c0,0.1,0,0.2,0.1,0.3c0,0.1,0.1,0.1,0.1,0.2    c0,0,0.1,0,0.2,0c0.1,0,0.2-0.1,0.4-0.1c0.1,0,0.3-0.1,0.5-0.2c0.2-0.1,0.3-0.1,0.5-0.2c0.2-0.1,0.3-0.2,0.4-0.2    c0.1-0.1,0.2-0.2,0.3-0.2c0.1-0.1,0.1-0.1,0-0.2c0-0.1-0.1-0.1-0.3-0.1c-0.1,0-0.2,0-0.3,0c-0.1,0-0.3,0-0.4,0c-0.1,0-0.3,0-0.4,0    c-0.1,0-0.3,0-0.4,0.1c-0.1,0-0.2,0.1-0.3,0.1C99.2,72.6,99.1,72.6,99,72.7z"></path>
		<path fill="#333333" d="M107.6,76.4C107.6,76.4,107.6,76.4,107.6,76.4c-0.1,0-0.2,0-0.2,0c0,0-0.1,0-0.1-0.1c0,0,0,0,0-0.1    c0-0.1,0.1-0.3,0.2-0.5c0.1-0.2,0.2-0.5,0.2-0.7c0.1-0.3,0.2-0.6,0.3-0.9c0.1-0.3,0.2-0.6,0.3-0.9c0.1-0.3,0.2-0.5,0.2-0.7    c0.1-0.2,0.1-0.4,0.2-0.5c0-0.1,0-0.2,0.1-0.2c0-0.1,0-0.1,0-0.2c0-0.1,0.1-0.1,0.1-0.1c0,0,0.1,0,0.2,0c0.1,0.1,0.2,0.2,0.3,0.3    c0.1,0.1,0.2,0.2,0.2,0.4c0.1,0.1,0.1,0.3,0.2,0.4c0,0.1,0.1,0.3,0.1,0.4c0,0.1,0.1,0.3,0.1,0.4c0.1,0.1,0.1,0.3,0.2,0.4    c0,0,0.1,0.1,0.1,0.1c0.1,0,0.1,0,0.2,0c0.1,0,0.1,0,0.2,0c0.1,0,0.1,0,0.2,0c0.1,0,0.1,0,0.1,0c0,0,0.1,0.1,0.1,0.1    c0,0.1,0,0.1,0,0.2c0,0-0.1,0.1-0.1,0.1c0,0-0.1,0-0.2,0c-0.1,0-0.1,0-0.2,0c-0.1,0-0.1,0-0.1,0c0,0,0,0,0,0    c0,0.1,0.1,0.3,0.1,0.5c0,0.2,0.1,0.3,0.2,0.5c0.1,0.2,0.1,0.3,0.2,0.5c0.1,0.2,0.2,0.3,0.2,0.4c0,0,0,0.1-0.1,0.1    c0,0-0.1,0.1-0.1,0.1c0,0-0.1,0.1-0.1,0.1c0,0-0.1,0-0.1,0l-0.9-2.1l-1.7,0.5c0,0.1,0,0.2-0.1,0.3c0,0.1-0.1,0.3-0.1,0.4    c0,0.1-0.1,0.3-0.1,0.4C107.7,76.2,107.7,76.3,107.6,76.4z M109,72.3c0,0.2-0.1,0.3-0.1,0.5c-0.1,0.2-0.1,0.4-0.2,0.5    c-0.1,0.2-0.1,0.4-0.2,0.5c-0.1,0.2-0.1,0.3-0.2,0.5c0.1,0,0.2,0,0.4,0c0.1,0,0.2-0.1,0.4-0.1c0.1,0,0.2-0.1,0.3-0.1    c0.1,0,0.2-0.1,0.3-0.1c0-0.1,0-0.1,0-0.2c0-0.1,0-0.2-0.1-0.3c0-0.1-0.1-0.2-0.1-0.3c0-0.1-0.1-0.2-0.1-0.3    c0-0.1-0.1-0.2-0.2-0.3C109.1,72.4,109.1,72.4,109,72.3z"></path>
		<path fill="#333333" d="M117.9,72.1c0.1,0,0.1,0,0.2,0c0.1,0,0.2,0,0.3,0c0.1,0,0.3,0.1,0.4,0.1c0.1,0,0.2,0.1,0.4,0.1    c0.1,0.1,0.2,0.1,0.3,0.2c0.1,0.1,0.1,0.2,0.1,0.3c0,0.3-0.1,0.5-0.2,0.7c-0.1,0.2-0.3,0.4-0.5,0.5c-0.2,0.1-0.4,0.3-0.7,0.3    c-0.2,0.1-0.5,0.2-0.7,0.2c-0.2,0.1-0.5,0.1-0.7,0.1c-0.2,0-0.4,0-0.6,0l0,1.6c0,0,0,0.1-0.1,0.1c0,0-0.1,0-0.2,0    c-0.1,0-0.1,0-0.2,0c-0.1,0-0.1,0-0.1,0c0-0.3,0-0.5,0-0.8c0-0.3,0-0.6,0-0.8c0-0.4,0-0.7,0.1-0.9c0-0.3,0-0.5,0.1-0.7    c0-0.2,0.1-0.4,0.2-0.5c0.1-0.1,0.2-0.2,0.3-0.3c0.2-0.1,0.4-0.1,0.6-0.2C117.2,72.1,117.5,72.1,117.9,72.1z M116.4,73.3    c0,0.1,0,0.1,0,0.2c0,0.1,0,0.2,0,0.2c0,0.1,0,0.2,0,0.3c0,0.1,0,0.2,0,0.2c0,0.1,0.1,0.1,0.1,0.1c0.1,0,0.1,0,0.2,0    c0.1,0,0.2,0,0.4,0c0.2,0,0.3,0,0.5-0.1c0.2,0,0.4-0.1,0.5-0.1c0.2-0.1,0.3-0.1,0.5-0.2c0.1-0.1,0.3-0.2,0.4-0.3    c0.1-0.1,0.1-0.3,0.1-0.4c0-0.1-0.1-0.2-0.2-0.3c-0.1-0.1-0.2-0.2-0.3-0.2c-0.1,0-0.3-0.1-0.4-0.1c-0.2,0-0.3,0-0.5,0    c-0.2,0-0.3,0-0.5,0.1c-0.2,0-0.3,0.1-0.4,0.2c-0.1,0.1-0.2,0.1-0.3,0.2C116.4,73.1,116.4,73.2,116.4,73.3z"></path>
		<path fill="#333333" d="M124.2,74.6c-0.1,0-0.1,0-0.2-0.1c0,0-0.1-0.1-0.1-0.1c0,0,0-0.1,0-0.1c0,0,0.1-0.1,0.1-0.2    c0-0.1,0.1-0.1,0.1-0.2c0-0.1,0.1-0.1,0.1-0.2c0,0,0-0.1,0-0.2c0-0.1,0-0.2,0-0.4c0-0.1,0-0.3,0-0.4c0-0.1,0-0.3,0-0.4    c0-0.1,0-0.3,0-0.4c0-0.1,0-0.2,0-0.2c0,0,0.1-0.1,0.1-0.1c0,0,0.1-0.1,0.1-0.1c0,0,0.1,0,0.1,0c0,0,0.1,0,0.1,0.1l0,2.2    c0,0,0.1,0,0.1,0c0.1,0,0.2,0,0.3,0c0.1,0,0.3,0,0.4,0c0.1,0,0.3,0,0.4,0c0.1,0,0.3,0,0.4-0.1c0.1,0,0.2-0.1,0.3-0.1v-2.3    c0,0,0-0.1,0.1-0.1c0,0,0.1,0,0.1,0c0.1,0,0.1,0,0.2,0c0,0,0.1,0,0.1,0c0,0.1,0,0.2,0,0.4c0,0.2,0,0.4,0,0.6c0,0.2,0,0.5,0,0.7    c0,0.3,0,0.5,0,0.7c0,0.2,0,0.4,0,0.6c0,0.2,0,0.3,0,0.4c0,0.3,0,0.5,0.1,0.7c0,0.2,0.1,0.5,0.2,0.7c-0.1,0-0.2,0.1-0.3,0.1    c-0.1,0-0.2,0-0.4,0c-0.1-0.3-0.2-0.7-0.2-1.1c0-0.4-0.1-0.7-0.1-1.1c-0.2,0-0.3,0-0.5,0c-0.1,0-0.3,0-0.4,0c-0.1,0-0.3,0-0.4,0.1    c-0.1,0-0.3,0.1-0.5,0.2c0,0.3,0,0.6,0,0.9c0,0.3,0.1,0.6,0.1,0.9l-0.5,0.3L124.2,74.6z"></path>
		<path fill="#333333" d="M133.8,76.6c0,0-0.1,0-0.1,0c-0.1,0-0.1,0-0.1-0.1c0,0-0.1-0.1-0.1-0.1c0,0,0-0.1,0-0.1c0,0,0-0.1,0.1-0.2    c0-0.1,0.1-0.2,0.1-0.3c0-0.1,0.1-0.2,0.1-0.4c0-0.1,0.1-0.3,0.1-0.4c0-0.1,0.1-0.3,0.1-0.4c0-0.1,0.1-0.2,0.1-0.3l-1.7-1.9    c0-0.1-0.1-0.1,0-0.1c0,0,0-0.1,0.1-0.1c0,0,0.1,0,0.1,0c0,0,0.1,0,0.1,0c0.1,0,0.1,0,0.2,0c0.1,0,0.1,0,0.2,0.1    c0.1,0,0.1,0.1,0.2,0.2c0.1,0.1,0.2,0.2,0.3,0.3c0.1,0.1,0.2,0.3,0.4,0.5c0.1,0.2,0.3,0.4,0.5,0.7c0.1-0.4,0.2-0.8,0.3-1    c0.1-0.3,0.2-0.5,0.3-0.6c0.1-0.2,0.1-0.3,0.2-0.3c0.1-0.1,0.1-0.1,0.2-0.1c0,0,0.1,0,0.1,0c0,0,0.1,0,0.1,0.1    c-0.1,0.3-0.3,0.7-0.4,1.1c-0.1,0.4-0.2,0.8-0.4,1.2c-0.1,0.4-0.3,0.9-0.4,1.3C134.2,75.8,134,76.2,133.8,76.6z"></path>
	</g>
	<g>
		<g>
			<path fill="#333333" d="M74.5,13.5c-2.5-0.5-5.8-1-7.8,1.2c-0.5,0.5-0.6,1.2-1,1.8c-1,1.3,0.1,1.4-1.8,0c-3.6-2.7-9.9-3.8-11,2     c-1.6,8.2,7.8,9.6,11.8,15.1c0.9,1.2,1.4,3.4,2.3,4.5c0,0.1,0.2,0.9,0.3,0.9c-0.2,0,1.4-4.2,1.5-4.6c1.9-4.3,5-7.7,7.9-11.4     c1.4-1.8,2.4-3.2,2.2-5.5C78.8,14.7,77.1,14.2,74.5,13.5c0.2,0-0.2,2.5,0,2.5c1.6,0.4,4.4,0.9,4.5,3c0-0.8,0-1.6,0-2.5     c-0.4,2.7-3.3,5.1-5,7.2c-0.8,1-8,12.2-6.7,12.6c-0.1,0-0.8-2.4-0.9-2.5c-0.8-1.8-2-3.5-3.4-4.9c-3.3-3.4-9.7-4.4-10.1-9.8     c0,0.8,0,1.6,0,2.5c0.4-6.4,7.2-5.7,11-2.8c1.8,1.4,0.8,1.3,1.8,0c0.4-0.5,0.5-1.2,1-1.8c2-2.2,5.2-1.6,7.8-1.2     C74.3,16,74.6,13.5,74.5,13.5z"></path>
		</g>
	</g>
</g>
</svg>