<?xml version="1.0" encoding="utf-8"?>
<!-- Generator: Adobe Illustrator 18.0.0, SVG Export Plug-In . SVG Version: 6.00 Build 0)  -->
<!DOCTYPE svg PUBLIC "-//W3C//DTD SVG 1.1//EN" "http://www.w3.org/Graphics/SVG/1.1/DTD/svg11.dtd">
<svg version="1.1" id="Layer_1" xmlns="http://www.w3.org/2000/svg" xmlns:xlink="http://www.w3.org/1999/xlink" x="0px" y="0px"
	 viewBox="0 0 190 90" enable-background="new 0 0 190 90" xml:space="preserve">
<g>
	<g>
		<path fill="#231F20" d="M18.8,45.5h1v-2.6c0-2.1-0.1-3.5-0.4-4.3c-0.2-0.7-0.7-1.1-1.4-1.1c-0.4,0-0.8,0.1-1.1,0.3
			c-0.3,0.2-0.5,0.5-0.5,0.9c0,0.4,0.1,0.7,0.2,1.1h0.8c0.2,0.5,0.3,1,0.3,1.7c0,0.7-0.3,1.2-0.8,1.7c-0.6,0.5-1.3,0.7-2.1,0.7
			c-1.9,0-2.9-0.9-2.9-2.8c0-2.7,2.3-4.1,7-4.1c2.7,0,4.5,0.5,5.5,1.4c1,0.9,1.5,2.6,1.5,5v6.8c0,1.2,0.3,1.7,1,1.7
			c0.8,0,1.2-1.1,1.3-3.4l0.5,0c-0.1,2-0.5,3.3-1.1,4c-0.6,0.7-1.7,1.1-3.2,1.1c-2.7,0-4.2-0.8-4.6-2.5c-0.3,0.8-0.7,1.5-1.3,1.9
			c-0.6,0.4-1.4,0.6-2.5,0.6c-3.3,0-4.9-1.3-4.9-4c0-1.6,0.6-2.7,1.9-3.3C14.3,45.8,16.2,45.5,18.8,45.5z M17.5,49.6
			c0,1.2,0.1,1.9,0.2,2.2c0.1,0.3,0.4,0.5,0.7,0.5c0.3,0,0.7-0.3,1-0.9c0.3-0.6,0.5-1.4,0.5-2.4v-3.1h-0.2c-1.4,0-2.1,1-2.1,3V49.6
			L17.5,49.6z"/>
	</g>
	<g>
		<path fill="#231F20" d="M26.8,38.1v-0.6h10v0.6h-2.1l4,11.1l3.6-11.1h-2.2v-0.6h4.5v0.6h-1.5l-4.9,15.3h-3.8l-6.2-15.3H26.8z"/>
	</g>
	<g>
		<path fill="#231F20" d="M51.9,45.5h1v-2.6c0-2.1-0.1-3.5-0.4-4.3c-0.2-0.7-0.7-1.1-1.4-1.1c-0.4,0-0.8,0.1-1.1,0.3
			c-0.3,0.2-0.5,0.5-0.5,0.9c0,0.4,0.1,0.7,0.2,1.1h0.8c0.2,0.5,0.3,1,0.3,1.7c0,0.7-0.3,1.2-0.8,1.7C49.5,43.8,48.8,44,48,44
			c-1.9,0-2.9-0.9-2.9-2.8c0-2.7,2.3-4.1,7-4.1c2.7,0,4.5,0.5,5.5,1.4c1,0.9,1.5,2.6,1.5,5v6.8c0,1.2,0.3,1.7,1,1.7
			c0.8,0,1.2-1.1,1.3-3.4l0.5,0c-0.1,2-0.5,3.3-1.1,4c-0.6,0.7-1.7,1.1-3.2,1.1c-2.7,0-4.2-0.8-4.6-2.5c-0.3,0.8-0.7,1.5-1.3,1.9
			c-0.6,0.4-1.4,0.6-2.5,0.6c-3.3,0-4.9-1.3-4.9-4c0-1.6,0.6-2.7,1.9-3.3C47.4,45.8,49.3,45.5,51.9,45.5z M50.6,49.6
			c0,1.2,0.1,1.9,0.2,2.2c0.1,0.3,0.4,0.5,0.7,0.5c0.3,0,0.7-0.3,1-0.9s0.5-1.4,0.5-2.4v-3.1h-0.2c-1.4,0-2.1,1-2.1,3V49.6
			L50.6,49.6z"/>
	</g>
	<g>
		<path fill="#231F20" d="M62.3,37.5h8.1v3.1c0.4-1,0.9-1.8,1.6-2.5c0.7-0.6,1.8-0.9,3.3-0.9c3.5,0,5.2,1.9,5.2,5.6v10.1h1.9v0.6
			h-9.5v-0.6h1.4V41.9c0-1.3-0.1-2.2-0.3-2.6c-0.2-0.4-0.5-0.6-1-0.6c-0.7,0-1.3,0.5-1.9,1.4c-0.5,0.9-0.8,2.1-0.8,3.4v9.2h1.4v0.6
			h-9.5v-0.6h1.8V38.1h-1.8V37.5z"/>
	</g>
	<g>
		<path fill="#231F20" d="M84.3,48.6V38.1h-1.8v-0.6h1.8v-4.3l6.2-1.5v5.8h4.3v0.6h-4.3v11.3c0,1,0.1,1.8,0.3,2.3
			c0.2,0.5,0.7,0.7,1.3,0.7c0.7,0,1.3-0.3,1.8-1c0.5-0.7,0.8-1.6,1-2.7l0.6,0.1c-0.2,1.5-0.7,2.8-1.5,3.7c-0.8,0.9-2.1,1.4-4,1.4
			c-1.8,0-3.3-0.4-4.2-1.1C84.8,51.9,84.3,50.5,84.3,48.6z"/>
	</g>
	<g>
		<path fill="#231F20" d="M111.9,37.2c-0.1,1.2-0.1,2.5-0.1,4.4V51c0,3.7-0.7,6-2.3,7.4c-1.6,1.5-3.8,1.9-5.9,1.9
			c-1.9,0-4.1-0.5-5.4-1.3l0.7-2.2c1.1,0.7,2.7,1.3,4.7,1.3c3,0,5.2-1.6,5.2-5.6v-1.8h-0.1c-0.9,1.5-2.6,2.7-5.1,2.7
			c-4,0-6.9-3.4-6.9-7.9c0-5.5,3.6-8.6,7.3-8.6c2.8,0,4.3,1.5,5,2.8h0.1l0.1-2.4H111.9z M108.8,43.6c0-0.5,0-0.9-0.2-1.3
			c-0.5-1.7-2-3.1-4.1-3.1c-2.8,0-4.8,2.4-4.8,6.1c0,3.2,1.6,5.8,4.8,5.8c1.8,0,3.4-1.1,4.1-3c0.2-0.5,0.2-1.1,0.2-1.6V43.6z"/>
		<path fill="#231F20" d="M125.6,53.4l-0.2-2h-0.1c-0.9,1.3-2.6,2.4-4.9,2.4c-3.3,0-4.9-2.3-4.9-4.6c0-3.9,3.5-6,9.7-6v-0.3
			c0-1.3-0.4-3.7-3.7-3.7c-1.5,0-3.1,0.5-4.2,1.2l-0.7-1.9c1.3-0.9,3.3-1.4,5.3-1.4c4.9,0,6.2,3.4,6.2,6.6v6c0,1.4,0.1,2.8,0.3,3.9
			H125.6z M125.1,45.1c-3.2-0.1-6.9,0.5-6.9,3.6c0,1.9,1.3,2.8,2.8,2.8c2.1,0,3.4-1.3,3.9-2.7c0.1-0.3,0.2-0.6,0.2-0.9V45.1z"/>
	</g>
	<g>
		<path fill="#231F20" d="M128.5,42.2c0-1.9,0-3.5-0.1-5h2.6l0.1,3.2h0.1c0.7-2.2,2.5-3.5,4.5-3.5c0.3,0,0.6,0,0.8,0.1v2.8
			c-0.3-0.1-0.6-0.1-1-0.1c-2.1,0-3.5,1.6-3.9,3.8c-0.1,0.4-0.1,0.9-0.1,1.4v8.6h-2.9V42.2z"/>
	</g>
	<g>
		<path fill="#231F20" d="M154,29.6v19.6c0,1.4,0,3.1,0.1,4.2h-2.6l-0.1-2.8h-0.1c-0.9,1.8-2.9,3.2-5.5,3.2c-3.9,0-6.9-3.3-6.9-8.2
			c0-5.4,3.3-8.7,7.3-8.7c2.5,0,4.1,1.2,4.9,2.5h0.1v-9.7H154z M151,43.8c0-0.4,0-0.9-0.1-1.2c-0.4-1.9-2-3.4-4.2-3.4
			c-3,0-4.8,2.7-4.8,6.3c0,3.3,1.6,6,4.8,6c2,0,3.8-1.3,4.3-3.5c0.1-0.4,0.1-0.8,0.1-1.3V43.8z"/>
		<path fill="#231F20" d="M160.5,45.8c0.1,4,2.6,5.6,5.5,5.6c2.1,0,3.4-0.4,4.5-0.8l0.5,2.1c-1,0.5-2.8,1-5.4,1c-5,0-8-3.3-8-8.2
			c0-4.9,2.9-8.7,7.6-8.7c5.3,0,6.7,4.6,6.7,7.6c0,0.6-0.1,1.1-0.1,1.4H160.5z M169.1,43.7c0-1.9-0.8-4.8-4.1-4.8
			c-3,0-4.3,2.7-4.5,4.8H169.1z"/>
		<path fill="#231F20" d="M174.9,51.6c0-1.2,0.8-2.1,2-2.1s2,0.9,2,2.1c0,1.2-0.8,2.1-2,2.1C175.7,53.7,174.9,52.8,174.9,51.6z"/>
	</g>
</g>
</svg>
