<svg xmlns="http://www.w3.org/2000/svg" xmlns:xlink="http://www.w3.org/1999/xlink" id="Layer_1" x="0px" y="0px" viewBox="0 0 190 90" xml:space="preserve">
<g>
	<g>
		<g>
			<g>
				<g>
					<path fill="#231F20" d="M136.7,37.1c0,1.1-0.9,2-2.3,2c-0.7,0-1.6-0.3-2-0.9V39c0,0.1-0.1,0.1-0.2,0.1c-0.1,0-0.2-0.1-0.2-0.1       v-1.9c0-0.1,0.1-0.1,0.2-0.1c0.1,0,0.2,0.1,0.2,0.1v0.3c0,0.7,0.9,1.4,2,1.4c0.6,0,1.1-0.2,1.5-0.6l-3-3.5       c-0.4-0.5-0.7-1.1-0.7-1.6c0-1,0.8-1.7,2.1-1.7c0.6,0,1.3,0.3,1.6,0.7v-0.6c0-0.1,0.1-0.1,0.2-0.1c0.1,0,0.2,0.1,0.2,0.1v1.6       c0,0.1-0.1,0.2-0.2,0.2c-0.1,0-0.2-0.1-0.2-0.2V33c0-0.6-0.8-1.2-1.6-1.2c-0.5,0-0.9,0.1-1.3,0.4l3.1,3.7       C136.5,36.2,136.7,36.7,136.7,37.1z"></path>
				</g>
			</g>
			<g>
				<g>
					<path fill="#231F20" d="M144.5,31.7c0,0.1-0.1,0.2-0.1,0.2H144v4.2c0,1.7-1.4,3.1-3.1,3.1c-1.7,0-3.1-1.4-3.1-3.1v-4.2h-0.5       c-0.1,0-0.1-0.1-0.1-0.1s0.1-0.1,0.1-0.1h2.7c0.1,0,0.1,0.1,0.1,0.1s-0.1,0.1-0.1,0.1h-0.5v6.6c0.4,0.2,0.8,0.3,1.3,0.3       c0.5,0,0.9-0.1,1.3-0.3v-6.6h-0.6c-0.1,0-0.2-0.1-0.2-0.2c0-0.1,0.1-0.1,0.2-0.1h2.7C144.4,31.6,144.5,31.6,144.5,31.7z"></path>
				</g>
			</g>
			<g>
				<g>
					<path fill="#231F20" d="M150.4,37.4v1.4c0,0.1-0.1,0.1-0.2,0.1h-4.8c-0.1,0-0.1-0.1-0.1-0.1c0-0.1,0.1-0.1,0.1-0.1h0.5v-6.8       h-0.4c-0.1,0-0.1-0.1-0.1-0.1c0-0.1,0.1-0.1,0.1-0.1h4.7c0.1,0,0.2,0.1,0.2,0.1v1.2c0,0.1-0.1,0.1-0.2,0.1       c-0.1,0-0.2-0.1-0.2-0.1v-1.1h-2.4V35h2.1v-0.6c0-0.1,0.1-0.1,0.2-0.1c0.1,0,0.2,0.1,0.2,0.1v1.4c0,0.1-0.1,0.1-0.1,0.1       c-0.1,0-0.2-0.1-0.2-0.1v-0.5h-2.1v3.4h2.5v-1.2c0-0.1,0.1-0.2,0.2-0.2C150.3,37.3,150.4,37.3,150.4,37.4z"></path>
				</g>
			</g>
			<g>
				<g>
					<path fill="#231F20" d="M160.1,37.4v1.4c0,0.1-0.1,0.1-0.1,0.1h-4.7c-0.1,0-0.1-0.1-0.1-0.1c0-0.1,0.1-0.1,0.1-0.1h0.4v-6.8       h-0.4c-0.1,0-0.1-0.1-0.1-0.1s0.1-0.1,0.1-0.1h2.6c0.1,0,0.1,0.1,0.1,0.1s-0.1,0.1-0.1,0.1h-0.5v6.8h2.5v-1.2       c0-0.1,0.1-0.1,0.2-0.1S160.1,37.3,160.1,37.4z"></path>
				</g>
			</g>
			<g>
				<g>
					<path fill="#231F20" d="M163.9,38.8c0,0.1-0.1,0.1-0.1,0.1h-2.8c-0.1,0-0.1-0.1-0.1-0.1c0-0.1,0.1-0.1,0.1-0.1h0.6v-6.8H161       c-0.1,0-0.2-0.1-0.2-0.1s0.1-0.1,0.2-0.1h2.7c0.1,0,0.1,0.1,0.1,0.1s-0.1,0.1-0.1,0.1h-0.5v6.8h0.6       C163.8,38.7,163.9,38.7,163.9,38.8z"></path>
				</g>
			</g>
			<g>
				<g>
					<path fill="#231F20" d="M171.7,31.7c0,0.1-0.1,0.1-0.1,0.1h-0.7v6.9c0,0.2-0.1,0.3-0.1,0.3s-0.2-0.1-0.3-0.2l-4.5-6.5v6.3h1       c0.1,0,0.2,0.1,0.2,0.1c0,0.1-0.1,0.1-0.2,0.1h-1.9c-0.1,0-0.1-0.1-0.1-0.1c0-0.1,0.1-0.1,0.1-0.1h0.7v-6.8H165       c-0.1,0-0.1-0.1-0.1-0.1c0-0.1,0.1-0.1,0.1-0.1h2.3c0,0,0.1,0,0.1,0l3.2,4.6v-4.4h-0.7c-0.1,0-0.2-0.1-0.2-0.1s0.1-0.1,0.2-0.1       h1.7C171.7,31.6,171.7,31.6,171.7,31.7z"></path>
				</g>
			</g>
		</g>
		<g>
			<g>
				<g>
					<path fill="#231F20" d="M138.9,47.7c0,2.2-1.5,3.7-3.7,3.7h-3.1c-0.1,0-0.1-0.1-0.1-0.1c0-0.1,0.1-0.1,0.1-0.1h0.6v-6.8h-0.5       c-0.1,0-0.1-0.1-0.1-0.1c0-0.1,0.1-0.1,0.1-0.1h3C137.4,44.1,138.9,45.5,138.9,47.7z M135.2,51.1c0.7,0,1.3-0.2,1.9-0.5v-5.8       c-0.5-0.3-1.1-0.5-1.9-0.5h-0.8v6.8H135.2z"></path>
				</g>
			</g>
			<g>
				<g>
					<path fill="#231F20" d="M145.2,49.9v1.4c0,0.1-0.1,0.1-0.2,0.1h-4.8c-0.1,0-0.1-0.1-0.1-0.1c0-0.1,0.1-0.1,0.1-0.1h0.5v-6.8       h-0.4c-0.1,0-0.1-0.1-0.1-0.1c0-0.1,0.1-0.1,0.1-0.1h4.7c0.1,0,0.2,0.1,0.2,0.1v1.2c0,0.1-0.1,0.1-0.2,0.1       c-0.1,0-0.2-0.1-0.2-0.1v-1.1h-2.4v3.1h2.1v-0.6c0-0.1,0.1-0.1,0.2-0.1c0.1,0,0.2,0.1,0.2,0.1v1.4c0,0.1-0.1,0.1-0.1,0.1       c-0.1,0-0.2-0.1-0.2-0.1v-0.5h-2.1v3.4h2.5v-1.2c0-0.1,0.1-0.2,0.2-0.2C145.1,49.8,145.2,49.8,145.2,49.9z"></path>
				</g>
			</g>
			<g>
				<g>
					<path fill="#231F20" d="M151,49.6c0,1.1-0.9,2-2.3,2c-0.7,0-1.6-0.3-2-0.9v0.7c0,0.1-0.1,0.1-0.2,0.1c-0.1,0-0.2-0.1-0.2-0.1       v-1.9c0-0.1,0.1-0.1,0.2-0.1c0.1,0,0.2,0.1,0.2,0.1v0.3c0,0.7,0.9,1.4,2,1.4c0.6,0,1.1-0.2,1.5-0.6l-3-3.5       c-0.4-0.5-0.7-1.1-0.7-1.6c0-1,0.8-1.7,2.1-1.7c0.6,0,1.3,0.3,1.6,0.7v-0.6c0-0.1,0.1-0.1,0.2-0.1s0.2,0.1,0.2,0.1v1.6       c0,0.1-0.1,0.2-0.2,0.2s-0.2-0.1-0.2-0.2v-0.2c0-0.6-0.8-1.2-1.6-1.2c-0.5,0-0.9,0.1-1.3,0.4l3.1,3.7       C150.8,48.7,151,49.1,151,49.6z"></path>
				</g>
			</g>
			<g>
				<g>
					<path fill="#231F20" d="M155.4,51.3c0,0.1-0.1,0.1-0.1,0.1h-2.8c-0.1,0-0.1-0.1-0.1-0.1c0-0.1,0.1-0.1,0.1-0.1h0.6v-6.8h-0.5       c-0.1,0-0.2-0.1-0.2-0.1c0-0.1,0.1-0.1,0.2-0.1h2.7c0.1,0,0.1,0.1,0.1,0.1c0,0.1-0.1,0.1-0.1,0.1h-0.5v6.8h0.6       C155.3,51.1,155.4,51.2,155.4,51.3z"></path>
				</g>
			</g>
			<g>
				<g>
					<path fill="#231F20" d="M163.9,48.3c0,0.1-0.1,0.1-0.2,0.1h-0.3V50c0,0.1,0,0.1-0.1,0.2c-0.7,0.9-1.8,1.4-3,1.4       c-2.3,0-3.8-1.6-3.8-3.9c0-2.3,1.5-3.9,3.8-3.9h0c0.7,0,1.8,0.2,2.3,0.8V44c0-0.1,0.1-0.1,0.2-0.1c0.1,0,0.2,0.1,0.2,0.1v1.7       c0,0.1-0.1,0.2-0.2,0.2c-0.1,0-0.2-0.1-0.2-0.2v-0.2c0-1.1-1.4-1.4-2.3-1.4h0c-0.7,0-1.4,0.2-1.9,0.5v6.2       c0.5,0.3,1.2,0.5,1.9,0.5c0.5,0,1-0.1,1.4-0.3v-2.6h-0.5c-0.1,0-0.1-0.1-0.1-0.1s0.1-0.1,0.1-0.1h2.5       C163.9,48.2,163.9,48.2,163.9,48.3z"></path>
				</g>
			</g>
			<g>
				<g>
					<path fill="#231F20" d="M171.6,44.2c0,0.1-0.1,0.1-0.1,0.1h-0.7v6.9c0,0.2-0.1,0.3-0.1,0.3c-0.1,0-0.2-0.1-0.3-0.2l-4.5-6.5       v6.3h1c0.1,0,0.2,0.1,0.2,0.1c0,0.1-0.1,0.1-0.2,0.1h-1.9c-0.1,0-0.1-0.1-0.1-0.1c0-0.1,0.1-0.1,0.1-0.1h0.7v-6.8h-0.6       c-0.1,0-0.1-0.1-0.1-0.1c0-0.1,0.1-0.1,0.1-0.1h2.3c0,0,0.1,0,0.1,0l3.2,4.6v-4.4h-0.7c-0.1,0-0.2-0.1-0.2-0.1       c0-0.1,0.1-0.1,0.2-0.1h1.7C171.6,44.1,171.6,44.1,171.6,44.2z"></path>
				</g>
			</g>
		</g>
	</g>
	<g>
		<g>
			<g>
				<path fill="#231F20" d="M24.1,36.5c0.5-0.8,1-1.6,1.6-2.3c0.6-0.6,1.3-1.1,2.2-1.3c1-0.2,2.1,0.4,2.5,1.4      c0.3,0.9,0.5,1.8,0.6,2.7c0.1,0.4,0,0.8,0,1.2c0,0.4,0.1,0.8,0,1.2c0,0.6,0,1.7-0.1,2.4c0.1-0.1,0.3-0.2,0.4-0.2      c0.8-0.7,3-1.8,3.9-2.4c0.3-0.2,0.6-0.6,1-0.5c0,0.1,0.1,0.3,0,0.3c-0.4,0.3-0.4,0.5-1,0.9c-0.5,0.7-2.5,1.8-3.2,2.4      c-0.4,0.3-0.7,0.6-1.1,1c-0.2,0.2-0.3,0.4-0.4,0.7c-0.2,0.7-0.2,1.5-0.6,2.1c-0.2,0.3-0.3,0.7-0.5,1c-0.1,0.3-0.3,0.5-0.6,0.6      c-0.3,0.4-0.9,0.5-1.1,1c-0.3,0.2-0.4,0.5-0.7,0.6c-0.1,0-0.1,0.1-0.2,0.1c-0.1,0.2-0.2,0.3-0.3,0.5c-0.5-0.2-0.9-0.5-1.2-0.9      c-0.3-0.2-0.3-0.5-0.2-0.8c0.1-0.9,0.5-1.7,1.1-2.3c0.5-0.5,0.7-0.9,0.8-1.6c0.1-0.8,0.3-1.6,0.4-2.4c0.1-0.9,0.1-1.9,0.2-2.8      c0.1-1.4,0.2-2.7,0.2-4c0-0.3,0-0.5-0.1-0.8c-0.4,0.1-0.6,0.3-0.9,0.6c-0.7,0.8-1.3,1.8-1.7,2.9c-0.4,1-1.4,2-1.5,3.1      c-0.1,1-0.2,2-0.4,2.9c-0.1,0.4-0.1,0.8-0.1,1.2c-0.1,0.5-0.2,1-0.3,1.6c0.2,0.8,0,1.6-0.3,2.5c-0.2,0.8,0.1,1.7,0,2.6      c0,0.3-0.1,0.5-0.1,0.8c-0.1,0.7,0,1.5-0.1,2.3c0,0.5,0,0.9,0,1.4c0,0.2-0.1,0.5-0.1,0.7c0-0.1,0-0.1-0.1-0.2      c-0.1,0.3-0.2,0.5-0.3,0.8c0,0.1,0,0.2-0.1,0.2c-0.4,0.2-0.3,0.5-0.4,0.8c0,0.2-0.1,0.4-0.3,0.5c-0.1,0-0.1,0.1-0.2,0.2      c-0.3,0.3-0.6,0.3-0.9,0c-0.2-0.2-0.3-0.3-0.5-0.5c0,0-0.1-0.1-0.1-0.1c0-0.5,0.1-0.9,0.1-1.4c0-0.6,0.1-1.2,0.1-1.8      c0-0.8,0-1.7,0-2.5c0-1.5-0.1-2.9-0.1-4.4c0-0.8,0-1.7,0-2.5c0-1.1-0.1-2.1-0.1-3.2c0-0.9,0-1.9,0-2.8c0-0.9,0-1.7-0.1-2.6      c0-0.5-0.2-0.9-0.2-1.4c-0.1-0.5,0.1-1.1,0.2-1.6c0-0.2,0.2-0.2,0.4-0.2c0.2,0,0.5,0.1,0.7,0.1c0.4,0.1,0.7,0.4,0.9,0.7      c0.1,0.1,0.2,0.3,0.4,0.4c0.3,0.3,0.7,0.6,1,0.9c0.4,0.4,0.5,0.8,0.7,1.3c0,0.1,0.1,0.2,0.1,0.3c0,0,0.1,0,0.1,0      C23.7,37.2,23.9,36.9,24.1,36.5z M26.5,47.1c-0.1,0.1-0.1,0.1-0.2,0.2c-0.2,0.4-0.3,0.7-0.5,1.1c0,0.1,0,0.2,0,0.2      c0,0.1,0.1,0.1,0.1,0.1C26.4,48.4,26.7,47.6,26.5,47.1z"></path>
			</g>
		</g>
		<g>
			<g>
				<path fill="#231F20" d="M37.3,47.4c0.1-0.5,0.1-1,0.2-1.5c0-0.2,0.1-0.4,0.1-0.5c0.1-0.7,0.3-1.3,0.5-1.9c0.1-0.4,0.2-0.7,0.3-1      c0-0.1,0-0.1,0-0.2c0.1-0.4-0.1-0.7-0.6-1c-0.4-0.2-0.8-0.4-1.2-0.6c-0.4-0.3-0.8-0.5-1.2-0.8c-0.6-0.5-1.2-1.1-1.4-1.9      c0-0.2-0.1-0.4-0.1-0.6c-0.1-0.6,0-1.3,0.1-1.9c0.1-0.4,0.3-0.7,0.4-1.1c0.1-0.1,0.1-0.3,0.2-0.4c0.1-0.1,0.1-0.3,0.2-0.4      c0.1-0.3,0.3-0.4,0.5-0.6c0.1-0.1,0.2-0.2,0.2-0.3c0.1-0.1,0.3-0.3,0.5-0.3c0.4-0.1,0.7-0.1,1.1,0c0.3,0,0.6,0.1,0.9,0.2      c0.2,0,0.3,0.1,0.4,0.2c0.1,0.1,0.2,0.2,0.3,0.3c0.1,0.1,0.3,0.2,0.3,0.4c0.1,0.2,0.1,0.3,0.1,0.4c0,0.1,0,0.2,0,0.4      c0,0.1,0,0.3-0.1,0.4c0,0.2-0.1,0.3-0.1,0.4s-0.1,0.3-0.1,0.5c-0.1,0.2-0.2,0.4-0.3,0.6c-0.1,0.2-0.2,0.4-0.4,0.6      c-0.2,0.4-0.5,0.7-0.9,1c-0.1,0.1-0.2,0.2-0.2,0.2c-0.1,0.1-0.1,0.2,0,0.3c0.3,0.5,0.7,1,1.3,1.3c0.4,0.2,0.8,0.4,1.2,0.6      c0.4,0.1,0.7,0.3,1,0.5c0.2,0.2,0.5,0.3,0.6,0.6c0.1,0.2,0.3,0.4,0.2,0.6c-0.1,0,0,0.1,0,0.2c0.1,0.3,0.1,0.6,0,1c0,0,0,0,0,0      c0.1,0.3-0.2,0.5-0.2,0.8c0,0.2-0.2,0.4-0.3,0.6c0,0.2-0.1,0.5-0.2,0.7c-0.1,0.5-0.2,1-0.3,1.5C40,47.1,40,47.7,40,48.3      c0,0.3,0,0.5,0,0.8c0,0.3,0.1,0.5,0.2,0.8c0.1,0.5,0.1,0.8,0.3,1.2c0.2,0.4,0.6,1,1.1,0.7c0.2-0.1,0.3-0.3,0.5-0.5      c0.1-0.1,0.1-0.1,0.1-0.2c0.2-0.3,0.3-0.6,0.5-0.9c0,0,0-0.1,0.1-0.2c0.3-0.5,0.5-1,0.7-1.5c0-0.1,0-0.2,0.1-0.2      c0.2-0.5,0.4-0.9,0.5-1.4c0.1-0.3,0.3-0.6,0.4-1c0.1-0.3,0.2-0.5,0.3-0.7c0.1-0.5,0.3-0.9,0.5-1.4c0.1-0.3,0.2-0.7,0.2-1.1      c0.1-0.2,0.2-0.4,0.2-0.6c0.1-0.2,0.1-0.4,0.2-0.6c0.2-0.6,0.4-1.1,0.6-1.6c0.1-0.3,0.3-0.5,0.4-0.7c0.1-0.1,0.4-0.1,0.5,0      c0,0,0,0.1,0,0.1c-0.1,0.2,0,0.4,0,0.6c0,0.1,0,0.3-0.1,0.4c0,0.1,0,0.1,0,0.2c0,0.4-0.1,0.6-0.2,0.9c-0.1,0.2-0.1,0.3-0.2,0.5      c-0.2,0.6-0.5,1.2-0.6,1.8C46,44,45,46.9,44.5,48c-0.2,0.4-0.3,0.7-0.4,1c0,0.2-0.1,0.3-0.2,0.5c-0.2,0.4-0.4,0.8-0.6,1.2      c0,0.1-0.1,0.2-0.2,0.4c0,0.1-0.1,0.2-0.1,0.3c-0.1,0.2-0.3,0.3-0.4,0.5c-0.2,0.2-0.4,0.4-0.6,0.5c-0.1,0.1-0.2,0.1-0.3,0.2      c-0.1,0.1-0.3,0.1-0.5,0.2c-0.1,0.1-0.2,0.2-0.4,0.2c-0.1,0-0.1,0-0.2,0.1c-0.2,0.2-0.5,0.3-0.7,0.2c-0.2,0-0.3,0-0.5-0.1      c-0.3,0-0.5-0.1-0.7-0.2c-0.7-0.4-1.2-1-1.4-1.8c-0.1-0.5-0.1-1-0.2-1.4c0-0.3-0.1-0.6-0.1-0.9C37.3,48.2,37.3,47.8,37.3,47.4z       M37.2,36.9c0.1-0.2,0.2-0.4,0.3-0.5c0.2-0.2,0.3-0.5,0.4-0.7c0.1-0.2,0.1-0.3,0.1-0.5c0-0.4,0.1-0.9,0.2-1.4c0-0.1,0-0.1,0-0.2      c-0.2-0.3-0.4-0.5-0.7-0.6c0,0-0.1,0-0.1,0c0,0-0.1,0-0.1,0.1c0,0.1-0.2,0.2-0.2,0.3C37,33.6,37,33.8,37,33.9      c0,0.1,0,0.2-0.1,0.3c-0.2,0.4-0.3,0.8-0.4,1.3c0,0.1,0,0.1,0,0.2c0,0.1,0,0.3,0,0.3c0,0.2,0,0.5,0,0.7c0,0.3,0,0.6,0.1,0.9      C36.8,37.4,37.1,37.1,37.2,36.9z"></path>
			</g>
		</g>
		<g>
			<g>
				<path fill="#231F20" d="M56.2,39.2c0,0.1-0.1,0.2-0.1,0.3c-0.3,0.3-0.5,0.7-0.6,1.1c0,0-0.1,0.1-0.1,0.1c0,0.4-0.3,0.6-0.4,1      c-0.2,0.2-0.3,0.6-0.5,0.8c-1,1.2-1.5,2.7-2.8,3.6c-1,0.7-2,1.7-3.4,1.6c-0.5,0-0.9-0.2-1.4-0.4c0,0-0.1,0-0.1-0.1      c-0.4-0.3-0.7-0.5-1-0.9c-0.4-0.6-0.6-1.3-0.6-2c0-0.8,0-1.6,0.1-2.5c0.1-0.5,0.1-1.1,0.2-1.6c0-0.1,0-0.2,0.1-0.4      c0.1-0.5,0.2-1,0.3-1.6c0.2-0.7,0.4-1.3,0.7-1.9c0-0.1,0.1-0.2,0.1-0.3c0.2-0.2,0.3-0.4,0.4-0.6c0,0,0-0.1,0-0.1      c0.1-0.5,0.5-0.8,0.8-1.2c0.1-0.1,0.2-0.1,0.2-0.2c0.5-0.3,1.1-0.5,1.7-0.6c0.4-0.1,0.7-0.2,1-0.1c0.2,0,0.4,0,0.5,0.1      c0.1,0,0.1,0,0.2,0c2.1,0.1,1.2,3.9,0.1,4.7c-0.2,0.1-0.4,0.2-0.5,0.4c0,0.1-0.1,0.1-0.2,0.1c-0.2,0.1-0.3,0.2-0.5,0.3      c-0.4,0.1-0.7,0.3-1.1,0.4c-0.6,0.1-0.5,0.1-0.7,0.5c0,0.2-0.1,0.3-0.1,0.4c0,1.6-0.9,4.3,0.1,5.7c0.2,0.2,0.4,0.4,0.6,0.5      c0.1,0.1,0.3,0.1,0.4,0c0.3-0.1,0.6-0.2,0.8-0.4c0.4-0.3,0.7-0.5,1.1-0.8c0.2-0.1,0.3-0.3,0.4-0.4c0.4-0.5,0.8-1,1.1-1.6      c0.1-0.1,0.2-0.2,0.2-0.3c0.5-0.6,0.9-1.3,1.3-2c0.1-0.1,0.1-0.2,0.2-0.3c0.2-0.5,0.5-1,0.8-1.4c0.1-0.1,0.2-0.3,0.4-0.3      C56,39,56.1,39.1,56.2,39.2z M51.7,34.7c0-0.1,0-0.1-0.1-0.2c-0.3-0.3-0.7-0.5-1.2-0.5c-0.4,0.1-0.6,0.2-0.7,0.6      c-0.1,0.4-0.3,0.7-0.4,1.1c0,0.1,0,0.2-0.1,0.3c-0.2,0.4-0.2,0.7-0.3,1.1c0,0.3-0.1,0.5-0.2,0.8c-0.1,0.2-0.1,0.4-0.1,0.5      c0.5-0.1,1-0.2,1.5-0.4c0.3-0.2,0.6-0.4,0.8-0.6c0.3-0.4,0.5-0.8,0.8-1.2c0-0.1,0.1-0.2,0-0.3c0-0.2,0-0.3,0.1-0.5      c0-0.1,0.1-0.2,0.1-0.3C51.9,35.1,51.8,34.9,51.7,34.7z"></path>
			</g>
		</g>
		<g>
			<g>
				<path fill="#231F20" d="M76.8,47.8c-0.3,0.5-0.6,1-0.8,1.5c-0.2,0.5-0.5,0.8-0.9,1.2c-0.5,0.4-0.8,0.8-1.4,1c-0.1,0-0.1,0-0.2,0      c-0.6,0.1-1.2,0-1.8-0.2c-0.4-0.1-0.7-0.4-1-0.6c-0.5-0.5-0.7-1.2-0.9-1.9c0-0.2,0-0.4-0.1-0.5c-0.1-0.4-0.1-0.8-0.2-1.2      c0,0,0-0.1,0-0.1c0-0.6,0-1.3,0-2c0.2-3,1.1-5.7,2.2-8.5c0.3-0.6,0.5-1.3,0.7-1.9c0.2-0.5,0.2-0.9,0.4-1.4c-0.1,0-0.1,0-0.2,0      c-0.1,0-0.2,0.1-0.2,0.1c-1.3,1.1-2.4,2.4-3.6,3.5c-0.8,0.7-1.3,1.7-1.7,2.6c-0.6,1-1.1,2-1.8,3c-0.1,0.1-0.1,0.1-0.1,0.2      c-0.2,0.5-0.5,0.9-0.6,1.4c0,0.1-0.1,0.2-0.1,0.3c-0.1,0.2-0.3,0.5-0.4,0.7c0,0.1-0.1,0.3-0.1,0.5c0,0.2-0.1,0.3-0.1,0.4      s0,0.2,0,0.3c-0.2,0.1-0.4-0.1-0.6,0.1c0,0.1,0,0.2,0.1,0.3c-0.1,0-0.1,0-0.2,0c-0.1,0-0.2,0-0.3-0.1c-0.1-0.1-0.3-0.2-0.4-0.3      c-0.2-0.1-0.4-0.3-0.5-0.6c-0.1-0.4-0.2-0.8-0.2-1.3c0-0.8,0.1-1.6,0.3-2.5c0-0.2,0.1-0.5,0.2-0.7c0.4-1.3,0.8-2.5,1.1-3.8      c0-0.1,0-0.1,0.1-0.2c0.2-0.6,0.4-1.3,0.5-1.9c0-0.2,0.1-0.4,0-0.6c0,0-0.1,0-0.1,0.1c-0.1,0.1-0.2,0.2-0.2,0.3      c-0.1,0.2-0.2,0.3-0.3,0.4c-0.5,0.3-0.9,1.3-1.3,1.7c-0.5,0.6-0.9,1.3-1.3,2c-0.4,0.7-0.6,1.5-1,2.1c-0.3,0.5-0.5,1.1-0.7,1.6      c0,0.1-0.1,0.3-0.1,0.4c0,0.4-0.2,0.7-0.4,1.1c-0.1,0.2-0.2,0.4-0.3,0.6c-0.1,0.2-0.2,0.4-0.4,0.5c-0.2,0.1-0.3,0.3-0.5,0.5      c-0.2,0.2-0.4,0.4-0.6,0.5c-0.1,0.1-0.3,0.1-0.4,0c-0.1,0-0.2-0.1-0.2-0.1c-0.1,0-0.2-0.1-0.3-0.2c-0.1-0.1-0.2-0.1-0.3-0.1      c0,0,0,0-0.1,0c-0.5,0-0.6-0.4-0.7-0.7c0-0.3,0-0.5,0-0.8c0-0.7,0-1.4,0-2.1c0-0.3,0.1-0.6,0.1-0.9c0.1-1.1,0.4-2.2,0.5-3.3      c0.1-0.8,0.1-1.6,0.3-2.4c0.2-0.9,0.4-1.7,0.5-2.6c0-0.3,0-0.5,0-0.8c0-0.1,0-0.2,0.2-0.2c0.1,0,0.2,0,0.3,0c0.1,0,0.2,0,0.4,0      c0.2,0,0.4,0.1,0.6,0.3c0.1,0.1,0.2,0.2,0.3,0.2c0.1,0.1,0.2,0.2,0.2,0.3c0,0.2,0,0.4,0,0.6c0,0.2,0.1,0.4,0.2,0.6      c0.4,0.4,0.2,1,0.1,1.4c-0.2,0.7-0.1,1.4-0.2,2.1c-0.1,0.8-0.1,1.6-0.1,2.4c0,0.1,0,0.2-0.1,0.4c-0.1,0.1-0.1,0.3-0.1,0.4      c0,0.2,0,0.4,0,0.6c0.1-0.1,0.1-0.1,0.1-0.1c0.2-0.4,0.3-0.7,0.5-1c0.2-0.3,0.4-0.6,0.5-0.9c0.4-0.6,0.7-1.2,1.1-1.8      c0.1-0.2,0.3-0.5,0.4-0.7c0.1-0.2,0.3-0.4,0.4-0.6c0.1-0.1,0.1-0.2,0.2-0.3c0.3-0.3,0.6-0.6,0.9-1c0.3-0.3,0.6-0.5,0.9-0.8      c0.2-0.1,0.4-0.2,0.5-0.4c0.1-0.1,0.3-0.1,0.4-0.1c0.1,0,0.1,0,0.2,0c0.3,0,0.6-0.1,0.9,0.1c0.3,0.1,0.5,0.3,0.8,0.4      c0.1,0,0.2,0.1,0.3,0.2c0,0.2,0,0.3,0,0.5c0,0.2,0.1,0.3,0.1,0.5c0.1,0.4,0,0.8,0,1.2c0,0.5-0.1,0.9-0.2,1.3      c-0.1,0.3-0.1,0.6-0.2,0.9c0,0.1,0,0.1-0.1,0.2c-0.1,0.1-0.1,0.3-0.2,0.5c0,0.1,0,0.2-0.1,0.3c0,0.1,0,0.1,0,0.2      c0.1,0,0.1,0,0.2-0.1c0.4-0.6,0.7-1.3,1.1-1.9c0-0.1,0.1-0.2,0.2-0.3c0.5-0.5,0.8-1.2,1.3-1.7c0.1-0.1,0.1-0.2,0.2-0.3      c0.3-0.5,0.7-1,1.2-1.5c0.4-0.4,0.7-0.7,1.1-1.1c0.3-0.3,0.7-0.6,1.1-0.8c0.2-0.1,0.3-0.2,0.4-0.2c0.1-0.1,0.3-0.1,0.5-0.1      c0.4,0,0.7,0.1,1.1,0.1c0.2,0,0.4,0.1,0.5,0.2c0.2,0.1,0.5,0.2,0.7,0.3c0.1,0,0.2,0.1,0.3,0.2c0.2,0.2,0.3,0.5,0.3,0.8      c-0.1,0.2-0.1,0.5,0,0.7c0,0.1,0,0.1,0,0.2c0,0.1,0,0.2,0,0.2c0.1,0.3,0,0.5-0.1,0.7c-0.1,0.3-0.1,0.7-0.2,1      c-0.1,0.4-0.2,0.7-0.4,1.1c-0.4,0.8-0.8,1.6-1.1,2.4c-0.3,0.8-0.5,1.7-0.6,2.6c-0.3,1.6-0.8,3.3-0.8,5c0,0.4,0,0.6,0,1      c-0.3,0.8,0,1.9,0.7,2.4c0.1,0.1,0.2,0.1,0.3,0c0.1-0.1,0.2-0.1,0.3-0.2c0.3-0.3,0.5-0.5,0.7-0.9c0.1-0.2,0.2-0.3,0.3-0.5      c0.7-1.1,1.2-2.3,1.9-3.4c0.9-1.3,1.4-2.8,2.2-4.2c0.3-0.6,0.7-1.1,1-1.6c0.1-0.1,0.1-0.2,0.2-0.3c0.1-0.2,0.3-0.4,0.5-0.5      c0.1,0,0.2,0.1,0.4,0.1s0.2,0,0.4,0.1c0,0.3-0.2,0.5-0.3,0.7c-0.1,0.2-0.2,0.3-0.3,0.5c-0.2,0.3-0.5,0.6-0.6,0.9      c-0.4,0.8-0.7,1.6-1.2,2.3c-0.4,0.6-0.4,1.4-0.8,1.9c-0.3,0.5-0.4,1-0.6,1.5C77,47.3,76.9,47.5,76.8,47.8z"></path>
			</g>
		</g>
		<g>
			<g>
				<path fill="#231F20" d="M87.5,39.4c-0.1,0.2-0.1,0.4-0.1,0.5c-0.2,0.3-0.3,0.6-0.4,1c0,0.1-0.1,0.2-0.2,0.3      c-0.2,0.1-0.2,0.3-0.3,0.5c-0.1,0.1-0.1,0.2-0.2,0.3c-0.1,0.2-0.2,0.4-0.2,0.5c0,0.1-0.1,0.2-0.2,0.3c-0.2,0.5-0.4,0.9-0.5,1.5      l-0.1,0c-0.2,0.3-0.3,0.5-0.5,0.7c-0.2,0.4-0.7,0.6-1.1,0.9c-0.2,0.2-0.5,0.4-0.7,0.5c0,0-0.1,0-0.1,0.1      c-0.3,0.1-0.6,0.1-0.8,0.2c-0.2,0-0.4,0-0.5,0c-0.3-0.1-0.7-0.2-1-0.3c-0.5-0.2-0.7-0.5-1-1c-0.2-0.5-0.3-0.9-0.3-1.4      c-0.1-0.5,0-0.9,0-1.4c0-0.5,0-1.1,0-1.6c0-0.9,0-1.8,0.1-2.7c0.1-0.5,0.1-0.9,0.2-1.4c0-0.5,0.1-0.9,0.2-1.3      c0.1-0.4,0.3-0.7,0.4-1.2c0-0.1,0.1-0.1,0.2-0.1c0.3,0,0.5,0,0.7,0.1c0.2,0.1,0.3,0.1,0.3,0.3c0.1,0.2,0.2,0.3,0.3,0.5      c0,0.1,0.1,0.2,0.1,0.3c0,0.3,0,0.6,0.1,0.9c0.1,0.6,0,1.1,0,1.7c0,0.2,0,0.4,0,0.7c0,0.1,0,0.3,0,0.4c0,0.3,0.1,0.6,0,0.9      c-0.1,0.4-0.1,0.7-0.1,1.2c0,0.1,0,0.3,0,0.4c0,0-0.1,0-0.1,0.1c0.1,0.4,0,0.7-0.1,1.1c0,0.1,0,0.2,0,0.2      c0.1,0.2,0.1,0.4,0.1,0.6c0,0.2-0.1,0.4,0,0.6c0.1,0.3,0.1,0.6,0.1,0.9c0,0.3,0.1,0.5,0.2,0.7c0,0.1,0.1,0.1,0.2,0.1      c0.1,0,0.2,0,0.3,0c0.3-0.1,0.5-0.3,0.6-0.5c0.1-0.1,0.3-0.3,0.4-0.4c0.5-0.6,1-1.2,1.4-1.9c0.1-0.3,0.3-0.6,0.5-0.9      c0.2-0.3,0.4-0.6,0.5-1c0.2-0.5,0.4-0.8,0.6-1.4c0-0.2,0.2-0.3,0.2-0.5c0.2-0.3,0.4-0.4,0.8-0.4C87.5,39.2,87.5,39.3,87.5,39.4z       M80.2,31.1c0.1,0,0.1-0.1,0.1,0c0.1,0,0.3,0,0.5,0c0.4-0.1,0.7,0.1,0.9,0.4c-0.1,0.4-0.1,0.8-0.3,1.2c-0.1,0.1-0.2,0.2-0.3,0.3      c0,0,0,0-0.1,0c-0.2,0-0.5,0.1-0.7-0.2c-0.1-0.1-0.3-0.3-0.3-0.4c-0.2-0.2-0.3-0.4-0.2-0.7c0-0.2,0-0.4,0-0.5      C80,31.1,80.1,31.1,80.2,31.1z"></path>
			</g>
		</g>
		<g>
			<g>
				<path fill="#231F20" d="M96.5,49.1c0.2-0.3,0.4-0.5,0.5-0.7c0.2-0.2,0.3-0.5,0.4-0.7c0.1-0.2,0.2-0.4,0.4-0.6      c0.1-0.2,0.2-0.3,0.3-0.4c0.1-0.2,0.2-0.4,0.4-0.6c0.4-0.7,0.8-1.3,1.2-2c0.6-1,1.1-2.1,1.8-3.1c0-0.1,0-0.1,0.1-0.2      c0.1-0.1,0.1-0.3,0.2-0.5c0.2-0.3,0.4-0.6,0.5-1c0.2-0.1,0.5-0.1,0.7-0.1c0,0.1,0,0.2-0.1,0.3c-0.1,0.1-0.2,0.3-0.1,0.5      c0,0.1,0,0.2-0.1,0.3c0,0.1,0,0.1,0,0.2c0,0.1,0,0.1-0.1,0.2c-0.1,0.1-0.1,0.2-0.1,0.3c0,0.1,0,0.2-0.1,0.2      c0,0.1-0.1,0.2-0.1,0.3c-0.1,0.4-0.3,0.6-0.5,0.9c0,0,0,0.1-0.1,0.1c-0.3,0.5-0.6,1-0.9,1.5c-0.1,0.2-0.3,0.3-0.3,0.5      c-0.1,0.2-0.2,0.4-0.3,0.6c-0.6,1.2-1.2,2.3-1.9,3.4c0,0.1-0.1,0.1-0.1,0.1c-0.1,0.1-0.1,0.2-0.2,0.2c-0.3,0.3-0.5,0.5-0.7,0.7      c-0.1,0.1-0.2,0.2-0.4,0.3c-0.2,0.2-0.4,0.4-0.6,0.6c-0.1,0.1-0.2,0.2-0.4,0.2c-0.2,0-0.5,0.1-0.7,0c-0.1,0-0.2,0-0.3,0      c-0.4,0.1-0.6-0.1-0.9-0.3c-0.4-0.3-0.6-0.7-0.7-1.2c-0.1-0.6-0.2-1.2-0.2-1.7c0-0.1,0-0.3,0-0.4c0-0.6,0.1-1.2,0.1-1.7      c0-0.3,0-0.5,0.1-0.8c0-0.2,0-0.4,0.1-0.5c0-0.1,0-0.1,0-0.2c-0.1,0-0.1,0.1-0.2,0.1c-0.1,0.2-0.2,0.4-0.4,0.5      c0,0-0.1,0.1-0.1,0.1c-0.3,0.3-0.5,0.6-0.6,0.9c-0.1,0.2-0.2,0.3-0.3,0.5c-0.1,0.1-0.2,0.2-0.3,0.3c-0.2,0.3-0.5,0.5-0.7,0.7      c-0.2,0.2-0.5,0.3-0.8,0.5c0,0-0.1,0.1-0.1,0.1c-0.2,0-0.5,0-0.7,0c-0.1,0-0.1,0-0.2,0c-0.2-0.1-0.4-0.1-0.6-0.1      c-0.2,0-0.4-0.1-0.6-0.2c-0.2-0.1-0.5-0.3-0.5-0.5c0-0.1-0.1-0.1-0.2-0.2c-0.3-0.4-0.5-0.9-0.6-1.4c-0.1-0.5-0.2-1-0.3-1.5      c0-0.1,0-0.2,0-0.3c0-0.3,0-0.6,0-1c0-0.4,0-0.8,0.1-1.2c0-0.2,0.1-0.5,0.1-0.6c0-0.4,0.1-0.7,0.1-1c0-0.2,0.1-0.3,0.1-0.5      c0-0.2,0.1-0.4,0.1-0.6c0.1-0.7,0.3-1.4,0.5-2.1c0-0.2,0.1-0.3,0.1-0.5c0.1-0.3,0.1-0.6,0.2-0.9c0.1-0.2,0.1-0.4,0.2-0.5      c0.1-0.2,0.2-0.4,0.3-0.5c0-0.1,0.1-0.2,0.3-0.2c0.2,0,0.5,0,0.6,0.1c0,0.1,0.1,0.2,0.1,0.3c0,0,0,0.1-0.1,0.2      c-0.1,0.1-0.1,0.3,0,0.4c0,0,0,0,0,0.1c0.4,0.4,0,0.9,0.1,1.4c0,0.2,0.1,0.3,0.2,0.5c0.1,0.5,0,1,0,1.4c0.1,1.1,0.2,2.3,0.1,3.4      c0,0.6-0.2,1.2-0.2,1.8c0,0.3,0.1,0.5,0.1,0.8c0,0.3,0,0.5,0,0.7c0.1,0.2,0.2,0.5,0.2,0.7c0,0,0,0.1,0,0.1      c0,0.2,0.1,0.4,0.2,0.5c0,0,0.1,0.1,0.1,0.2c0.1,0,0.1-0.1,0.2-0.1c0.2-0.2,0.4-0.4,0.6-0.6c0.6-0.7,1.2-1.5,1.7-2.2      c0.1-0.1,0.2-0.3,0.3-0.4c0.4-0.5,0.7-1,0.9-1.5c0.1-0.1,0.1-0.3,0.1-0.4c0.1-0.4,0.1-0.9,0.2-1.3c0.1-0.5,0.2-1,0.4-1.5      c0.2-0.5,0.3-0.9,0.4-1.4c0.1-0.4,0.2-0.8,0.3-1.2c0.1-0.2,0.1-0.3,0.1-0.5c0.3-0.1,0.6-0.1,0.9,0c0.1,0,0.3,0.1,0.4,0.1      c0.2,0,0.3,0.2,0.3,0.4c0,0.2,0,0.5,0.1,0.7c0,0.1,0,0.2,0,0.2c0,0.4,0.1,0.8,0.1,1.2c0,0.5,0.2,0.9,0.2,1.4      c0.1,0.7-0.1,1.4-0.2,2.1c0,0.4,0,0.7-0.1,1.1c-0.1,0.3-0.3,0.6-0.3,1c-0.1,0.5-0.1,1-0.1,1.5c-0.1,0.5-0.1,1-0.1,1.6      c0,0.2,0.1,0.5,0,0.7c0,0.3-0.2,0.6-0.2,0.9c0,0.3,0,0.5,0,0.7c0,0.2,0,0.4,0.1,0.6C96.4,49.1,96.4,49.1,96.5,49.1z"></path>
			</g>
		</g>
		<g>
			<g>
				<path fill="#231F20" d="M123.4,47.8c-0.3,0.5-0.6,1-0.8,1.5c-0.2,0.5-0.5,0.8-0.9,1.2c-0.5,0.4-0.8,0.8-1.4,1      c-0.1,0-0.1,0-0.2,0c-0.6,0.1-1.2,0-1.8-0.2c-0.4-0.1-0.7-0.4-1-0.6c-0.5-0.5-0.7-1.2-0.9-1.9c0-0.2,0-0.4-0.1-0.5      c-0.1-0.4-0.1-0.8-0.2-1.2c0,0,0-0.1,0-0.1c0-0.6,0-1.3,0-2c0.2-3,1.1-5.7,2.2-8.5c0.3-0.6,0.5-1.3,0.7-1.9      c0.2-0.5,0.2-0.9,0.4-1.4c-0.1,0-0.1,0-0.2,0c-0.1,0-0.2,0.1-0.2,0.1c-1.3,1.1-2.4,2.4-3.6,3.5c-0.8,0.7-1.3,1.7-1.7,2.6      c-0.6,1-1.1,2-1.8,3c-0.1,0.1-0.1,0.1-0.1,0.2c-0.2,0.5-0.5,0.9-0.6,1.4c0,0.1-0.1,0.2-0.1,0.3c-0.1,0.2-0.3,0.5-0.4,0.7      c0,0.1-0.1,0.3-0.1,0.5c0,0.2-0.1,0.3-0.1,0.4s0,0.2,0,0.3c-0.2,0.1-0.4-0.1-0.6,0.1c0,0.1,0,0.2,0.1,0.3c-0.1,0-0.1,0-0.2,0      c-0.1,0-0.2,0-0.3-0.1c-0.1-0.1-0.3-0.2-0.4-0.3c-0.2-0.1-0.4-0.3-0.5-0.6c-0.1-0.4-0.2-0.8-0.2-1.3c0-0.8,0.1-1.6,0.3-2.5      c0-0.2,0.1-0.5,0.2-0.7c0.4-1.3,0.8-2.5,1.1-3.8c0-0.1,0-0.1,0.1-0.2c0.2-0.6,0.4-1.3,0.5-1.9c0-0.2,0.1-0.4,0-0.6      c0,0-0.1,0-0.1,0.1c-0.1,0.1-0.2,0.2-0.2,0.3c-0.1,0.2-0.2,0.3-0.3,0.4c-0.5,0.3-0.9,1.3-1.3,1.7c-0.5,0.6-0.9,1.3-1.3,2      c-0.4,0.7-0.6,1.5-1,2.1c-0.3,0.5-0.5,1.1-0.7,1.6c0,0.1-0.1,0.3-0.1,0.4c0,0.4-0.2,0.7-0.4,1.1c-0.1,0.2-0.2,0.4-0.3,0.6      c-0.1,0.2-0.2,0.4-0.4,0.5c-0.2,0.1-0.3,0.3-0.5,0.5c-0.2,0.2-0.4,0.4-0.6,0.5c-0.1,0.1-0.3,0.1-0.4,0c-0.1,0-0.2-0.1-0.2-0.1      c-0.1,0-0.2-0.1-0.3-0.2c-0.1-0.1-0.2-0.1-0.3-0.1c0,0,0,0-0.1,0c-0.5,0-0.6-0.4-0.7-0.7c0-0.3,0-0.5,0-0.8c0-0.7,0-1.4,0-2.1      c0-0.3,0.1-0.6,0.1-0.9c0.1-1.1,0.4-2.2,0.5-3.3c0.1-0.8,0.1-1.6,0.3-2.4c0.2-0.9,0.4-1.7,0.5-2.6c0-0.3,0-0.5,0-0.8      c0-0.1,0-0.2,0.2-0.2c0.1,0,0.2,0,0.3,0c0.1,0,0.2,0,0.4,0c0.2,0,0.4,0.1,0.6,0.3c0.1,0.1,0.2,0.2,0.3,0.2      c0.1,0.1,0.2,0.2,0.2,0.3c0,0.2,0,0.4,0,0.6c0,0.2,0.1,0.4,0.2,0.6c0.4,0.4,0.2,1,0.1,1.4c-0.2,0.7-0.1,1.4-0.2,2.1      c-0.1,0.8-0.1,1.6-0.1,2.4c0,0.1,0,0.2-0.1,0.4c-0.1,0.1-0.1,0.3-0.1,0.4c0,0.2,0,0.4,0,0.6c0.1-0.1,0.1-0.1,0.1-0.1      c0.2-0.4,0.3-0.7,0.5-1c0.2-0.3,0.4-0.6,0.5-0.9c0.4-0.6,0.7-1.2,1.1-1.8c0.1-0.2,0.3-0.5,0.4-0.7c0.1-0.2,0.3-0.4,0.4-0.6      c0.1-0.1,0.1-0.2,0.2-0.3c0.3-0.3,0.6-0.6,0.9-1c0.3-0.3,0.6-0.5,0.9-0.8c0.2-0.1,0.4-0.2,0.5-0.4c0.1-0.1,0.3-0.1,0.4-0.1      c0.1,0,0.1,0,0.2,0c0.3,0,0.6-0.1,0.9,0.1c0.3,0.1,0.5,0.3,0.8,0.4c0.1,0,0.2,0.1,0.3,0.2c0,0.2,0,0.3,0,0.5      c0,0.2,0.1,0.3,0.1,0.5c0.1,0.4,0,0.8,0,1.2c0,0.5-0.1,0.9-0.2,1.3c-0.1,0.3-0.1,0.6-0.2,0.9c0,0.1,0,0.1-0.1,0.2      c-0.1,0.1-0.1,0.3-0.2,0.5c0,0.1,0,0.2-0.1,0.3c0,0.1,0,0.1,0,0.2c0.1,0,0.1,0,0.2-0.1c0.4-0.6,0.7-1.3,1.1-1.9      c0-0.1,0.1-0.2,0.2-0.3c0.5-0.5,0.8-1.2,1.3-1.7c0.1-0.1,0.1-0.2,0.2-0.3c0.3-0.5,0.7-1,1.2-1.5c0.4-0.4,0.7-0.7,1.1-1.1      c0.3-0.3,0.7-0.6,1.1-0.8c0.2-0.1,0.3-0.2,0.4-0.2c0.1-0.1,0.3-0.1,0.5-0.1c0.4,0,0.7,0.1,1.1,0.1c0.2,0,0.4,0.1,0.5,0.2      c0.2,0.1,0.5,0.2,0.7,0.3c0.1,0,0.2,0.1,0.3,0.2c0.2,0.2,0.3,0.5,0.3,0.8c-0.1,0.2-0.1,0.5,0,0.7c0,0.1,0,0.1,0,0.2      c0,0.1,0,0.2,0,0.2c0.1,0.3,0,0.5-0.1,0.7c-0.1,0.3-0.1,0.7-0.2,1c-0.1,0.4-0.2,0.7-0.4,1.1c-0.4,0.8-0.8,1.6-1.1,2.4      c-0.3,0.8-0.5,1.7-0.6,2.6c-0.3,1.6-0.8,3.3-0.8,5c0,0.4,0,0.6,0,1c-0.3,0.8,0,1.9,0.7,2.4c0.1,0.1,0.2,0.1,0.3,0      c0.1-0.1,0.2-0.1,0.3-0.2c0.3-0.3,0.5-0.5,0.7-0.9c0.1-0.2,0.2-0.3,0.3-0.5c0.7-1.1,1.2-2.3,1.9-3.4c0.9-1.3,1.4-2.8,2.2-4.2      c0.3-0.6,0.7-1.1,1-1.6c0.1-0.1,0.1-0.2,0.2-0.3c0.1-0.2,0.3-0.4,0.5-0.5c0.1,0,0.2,0.1,0.4,0.1c0.1,0,0.2,0,0.4,0.1      c0,0.3-0.2,0.5-0.3,0.7c-0.1,0.2-0.2,0.3-0.3,0.5c-0.2,0.3-0.5,0.6-0.6,0.9c-0.4,0.8-0.7,1.6-1.2,2.3c-0.4,0.6-0.4,1.4-0.8,1.9      c-0.3,0.5-0.4,1-0.6,1.5C123.6,47.3,123.5,47.5,123.4,47.8z"></path>
			</g>
		</g>
	</g>
</g>
</svg>