<?xml version="1.0" encoding="utf-8"?>
<!-- Generator: Adobe Illustrator 18.0.0, SVG Export Plug-In . SVG Version: 6.00 Build 0)  -->
<!DOCTYPE svg PUBLIC "-//W3C//DTD SVG 1.1//EN" "http://www.w3.org/Graphics/SVG/1.1/DTD/svg11.dtd">
<svg version="1.1" id="Layer_1" xmlns="http://www.w3.org/2000/svg" xmlns:xlink="http://www.w3.org/1999/xlink" x="0px" y="0px"
	 viewBox="0 0 190 90" enable-background="new 0 0 190 90" xml:space="preserve">
<g>
	<g>
		<path d="M43.1,72.5c0,0,0.1,0.1,0.1,0.1c0.3,0.4,0.5,1,0.5,1.8c0,0.8-0.2,1.4-0.5,1.8c-0.4,0.4-0.9,0.7-1.7,0.7H41h-1.1v-1.1v-7.7
			h1.7c0.8,0,1.3,0.2,1.7,0.7c0.3,0.4,0.5,1,0.5,1.8c0,0.8-0.2,1.4-0.5,1.8C43.2,72.4,43.2,72.4,43.1,72.5z M41,71.9h0.6
			c0.3,0,0.4,0,0.6-0.1c0.1-0.1,0.2-0.1,0.2-0.2c0.2-0.2,0.3-0.6,0.3-1.1c0-0.3,0-0.6-0.1-0.7c-0.1-0.2-0.1-0.3-0.2-0.4
			c-0.1-0.1-0.2-0.2-0.3-0.2c-0.1,0-0.3,0-0.4,0H41V71.9z M41.6,75.8c0.1,0,0.3,0,0.4,0c0.1,0,0.2-0.1,0.3-0.2
			c0.1-0.1,0.2-0.2,0.2-0.4c0.1-0.2,0.1-0.4,0.1-0.7c0-0.3,0-0.6-0.1-0.8c-0.1-0.2-0.1-0.3-0.2-0.4c-0.1-0.1-0.2-0.1-0.3-0.2
			c-0.1,0-0.3,0-0.4,0H41v2.7H41.6z"/>
		<path d="M55.3,76.9c-0.4,0-0.8-0.1-1-0.2c-0.3-0.2-0.4-0.3-0.6-0.5c-0.3-0.4-0.5-1-0.5-1.8v-3.8c0-0.8,0.2-1.4,0.5-1.8
			c0.1-0.1,0.1-0.2,0.2-0.2c0.1-0.1,0.2-0.2,0.3-0.2c0.1-0.1,0.3-0.1,0.5-0.2c0.2,0,0.4-0.1,0.6-0.1c0.4,0,0.8,0.1,1,0.2
			c0.3,0.2,0.4,0.3,0.6,0.5c0.3,0.4,0.5,1,0.5,1.8v3.8c0,0.8-0.2,1.4-0.5,1.8c-0.1,0.2-0.3,0.3-0.6,0.5
			C56.1,76.8,55.8,76.9,55.3,76.9z M55.3,69.2c-0.1,0-0.2,0-0.3,0c-0.1,0-0.2,0.1-0.3,0.2c-0.1,0.1-0.2,0.2-0.3,0.4
			c-0.1,0.2-0.1,0.5-0.1,0.8v3.8c0,0.4,0,0.6,0.1,0.8c0.1,0.2,0.2,0.3,0.3,0.4c0.1,0.1,0.2,0.1,0.3,0.2c0.1,0,0.2,0,0.3,0
			c0.1,0,0.2,0,0.3,0c0.1,0,0.2-0.1,0.3-0.2s0.2-0.2,0.3-0.4c0.1-0.2,0.1-0.5,0.1-0.8v-3.8c0-0.3,0-0.6-0.1-0.8
			c-0.1-0.2-0.2-0.3-0.3-0.4c-0.1-0.1-0.2-0.1-0.3-0.2C55.5,69.2,55.4,69.2,55.3,69.2z"/>
		<path d="M69,76.9c-0.4,0-0.8-0.1-1-0.2c-0.3-0.2-0.4-0.3-0.6-0.5c-0.3-0.4-0.5-1-0.5-1.8v-3.8c0-0.8,0.2-1.4,0.5-1.8
			c0.1-0.1,0.1-0.2,0.2-0.2c0.1-0.1,0.2-0.2,0.3-0.2c0.1-0.1,0.3-0.1,0.5-0.2c0.2,0,0.4-0.1,0.6-0.1c0.4,0,0.8,0.1,1,0.2
			c0.3,0.2,0.4,0.3,0.6,0.5c0.3,0.4,0.5,1,0.5,1.8v3.8c0,0.8-0.2,1.4-0.5,1.8c-0.1,0.2-0.3,0.3-0.6,0.5C69.8,76.8,69.5,76.9,69,76.9
			z M69,69.2c-0.1,0-0.2,0-0.3,0c-0.1,0-0.2,0.1-0.3,0.2c-0.1,0.1-0.2,0.2-0.3,0.4c-0.1,0.2-0.1,0.5-0.1,0.8v3.8
			c0,0.4,0,0.6,0.1,0.8c0.1,0.2,0.2,0.3,0.3,0.4c0.1,0.1,0.2,0.1,0.3,0.2c0.1,0,0.2,0,0.3,0c0.1,0,0.2,0,0.3,0
			c0.1,0,0.2-0.1,0.3-0.2s0.2-0.2,0.3-0.4C70,75,70,74.7,70,74.4v-3.8c0-0.3,0-0.6-0.1-0.8c-0.1-0.2-0.2-0.3-0.3-0.4
			c-0.1-0.1-0.2-0.1-0.3-0.2C69.2,69.2,69.1,69.2,69,69.2z"/>
		<path d="M84.3,76.9l-2-3.6L81.8,74v2.9h-1.1v-3.2h0l0,0v-5.6h1.1v3.9l2.5-3.9h1.4L83,72.2l2.6,4.7H84.3z"/>
		<path d="M97,76.9c-0.7,0-1.2-0.2-1.6-0.7c-0.3-0.4-0.5-1-0.5-1.8v-0.6H96v0.6c0,0.5,0.1,0.9,0.3,1.1c0,0.1,0.1,0.1,0.2,0.2
			c0.1,0.1,0.3,0.1,0.5,0.1c0.2,0,0.4,0,0.5-0.1c0.1-0.1,0.2-0.2,0.3-0.3c0.1-0.1,0.1-0.3,0.1-0.4c0-0.2,0-0.3,0-0.4
			c0-0.2,0-0.4-0.1-0.5c-0.1-0.1-0.1-0.3-0.3-0.4c-0.1-0.1-0.2-0.2-0.3-0.3c-0.1-0.1-0.3-0.1-0.4-0.2L96.7,73
			c-0.1-0.1-0.3-0.1-0.5-0.2c-0.2-0.1-0.4-0.2-0.6-0.4c-0.5-0.5-0.7-1.1-0.7-1.8c0-0.4,0-0.7,0.2-1c0.1-0.3,0.2-0.6,0.4-0.8
			c0.2-0.2,0.4-0.4,0.7-0.5c0.3-0.1,0.5-0.2,0.9-0.2c0.4,0,0.8,0.1,1,0.2c0.3,0.2,0.4,0.3,0.6,0.5c0.3,0.4,0.5,1.1,0.5,1.8v0.6H98
			v-0.6c0-0.3,0-0.6-0.1-0.8c-0.1-0.2-0.2-0.3-0.3-0.4c-0.1-0.1-0.2-0.1-0.3-0.2c-0.1,0-0.2,0-0.3,0c-0.2,0-0.4,0.1-0.5,0.2
			s-0.2,0.2-0.3,0.4c-0.1,0.2-0.1,0.3-0.1,0.5c0,0.2,0,0.3,0,0.4c0,0.2,0,0.4,0.1,0.5c0.1,0.1,0.1,0.3,0.3,0.4
			c0.1,0.1,0.2,0.2,0.4,0.3c0.1,0.1,0.3,0.1,0.4,0.2l0.2,0.1c0.1,0,0.3,0.1,0.5,0.2c0.2,0.1,0.4,0.2,0.6,0.4c0.5,0.5,0.7,1,0.7,1.8
			c0,0.7-0.2,1.2-0.5,1.7C98.2,76.7,97.7,76.9,97,76.9z"/>
		<path d="M113.5,69.2h-1.9v7.7h-1.1v-7.7h-1.9v-1.1h5V69.2z"/>
		<path d="M125,76.9c-0.4,0-0.8-0.1-1-0.2c-0.3-0.2-0.4-0.3-0.6-0.5c-0.3-0.4-0.5-1-0.5-1.8v-3.8c0-0.8,0.2-1.4,0.5-1.8
			c0.1-0.1,0.1-0.2,0.2-0.2c0.1-0.1,0.2-0.2,0.3-0.2c0.1-0.1,0.3-0.1,0.5-0.2c0.2,0,0.4-0.1,0.6-0.1c0.4,0,0.8,0.1,1,0.2
			c0.3,0.2,0.4,0.3,0.6,0.5c0.3,0.4,0.5,1,0.5,1.8v3.8c0,0.8-0.2,1.4-0.5,1.8c-0.1,0.2-0.3,0.3-0.6,0.5
			C125.8,76.8,125.4,76.9,125,76.9z M125,69.2c-0.1,0-0.2,0-0.3,0c-0.1,0-0.2,0.1-0.3,0.2c-0.1,0.1-0.2,0.2-0.3,0.4
			c-0.1,0.2-0.1,0.5-0.1,0.8v3.8c0,0.4,0,0.6,0.1,0.8c0.1,0.2,0.2,0.3,0.3,0.4c0.1,0.1,0.2,0.1,0.3,0.2c0.1,0,0.2,0,0.3,0
			c0.1,0,0.2,0,0.3,0c0.1,0,0.2-0.1,0.3-0.2s0.2-0.2,0.3-0.4c0.1-0.2,0.1-0.5,0.1-0.8v-3.8c0-0.3,0-0.6-0.1-0.8
			c-0.1-0.2-0.2-0.3-0.3-0.4c-0.1-0.1-0.2-0.1-0.3-0.2C125.2,69.2,125.1,69.2,125,69.2z"/>
		<path d="M140.1,72.6c0.2,0.2,0.4,0.5,0.5,0.7c0.1,0.3,0.2,0.6,0.2,1v2.6h-1.1v-2.6c0-0.8-0.4-1.2-1.1-1.2h-0.6h-0.1v3.8h-1.1v-8.8
			h1.8c0.8,0,1.3,0.2,1.7,0.7c0.4,0.4,0.5,1,0.5,1.8c0,0.8-0.2,1.4-0.5,1.9C140.2,72.5,140.1,72.5,140.1,72.6
			C140.1,72.5,140.1,72.5,140.1,72.6z M138.5,72c0.3,0,0.5,0,0.6-0.1c0.1-0.1,0.2-0.1,0.2-0.2c0.2-0.2,0.3-0.6,0.3-1.1
			c0-0.3,0-0.5-0.1-0.7c0-0.2-0.1-0.3-0.2-0.4c-0.1-0.1-0.2-0.2-0.3-0.2c-0.1,0-0.3,0-0.5,0h-0.7V72h0.1H138.5z"/>
		<path d="M151.6,69.2v2.7h2.5v1.1h-2.5v2.7h2.5v1.1h-3.7v-8.8h3.7v1.1H151.6z"/>
	</g>
	<g>
		<path d="M102.3,16.9l-7.6,16.2h-3.2l-7.6-16.2h-2.2v-3h9.4v3h-3.3l5.4,11.7l5.4-11.7h-3.3v-3h9.4v3H102.3z"/>
		<path d="M111.5,30h2.4v3h-8.1v-3h2.4V16.9h-2.4v-3h8.1v3h-2.4V30z"/>
		<path d="M135.7,16.9V33h-2.6l-10.8-12.8V30h2.4v3h-8.1v-3h2.4V16.9h-2.4v-3h4.7l11.2,13.3V16.9H130v-3h8.1v3H135.7z"/>
		<path d="M99.7,44.3h-3V41h-4.1v13h3.2v3H86v-3h3.2V41h-4.1v3.3h-3v-6.4h17.6V44.3z"/>
		<path d="M121.7,57h-8.5v-3h2.8l-1.3-2.8h-8.4L105,54h2.5v3h-8v-3h1.9l6.1-13.1h-2.8v-3h7.3l7.4,16.1h2.2V57z M110.5,41.9l-2.9,6.4
			h5.8L110.5,41.9z"/>
		<path d="M141.9,57h-2.6l-0.1-2.9c-1.6,2-3.9,3.3-7,3.3c-5.7,0-9.9-4.4-9.9-9.9c0-5.7,4.6-9.9,10-9.9c2.7,0,4.9,0.9,6.4,2.5v-2.1
			h3.1v7.1h-3.2c-0.7-2.6-3.2-4.3-6.2-4.3c-3.8,0-6.7,2.7-6.7,6.7c0,3.7,2.7,6.7,6.5,6.7c3.1,0,5.5-2,6.2-4.7h-6.4v-2.9h9.8V57z"/>
		<path d="M161.3,44.3h-3V41h-7.4v5h6.4v3.1h-6.4v4.7h7.4v-3.3h3V57h-16.2v-3h2.4V40.9h-2.4v-3h16.2V44.3z"/>
	</g>
	<path d="M53.7,13.1h-25v25v20h45v-45H53.7z M48.7,53.1h-15v-5h15V53.1z M48.7,43.1h-15v-5h15V43.1z M41.6,33.1c0,0-7-3.1-7-8.6
		c0-2.2,1.7-3.9,3.9-3.9c1.3,0,2.4,0.6,3.1,1.6c0.7-1,1.8-1.6,3.1-1.6c2.2,0,3.9,1.7,3.9,3.9C48.7,30,41.6,33.1,41.6,33.1z
		 M58.7,53.1h-5v-15v-2.5V18.1h5V53.1z M68.7,53.1h-5v-35h5V53.1z"/>
</g>
</svg>
